<mxfile host="app.diagrams.net" modified="2022-11-24T08:20:14.671Z" agent="5.0 (Windows NT 10.0; Win64; x64) AppleWebKit/537.36 (KHTML, like Gecko) Chrome/107.0.0.0 Safari/537.36" version="20.6.0" etag="B6ZPgM6xMtcgE4IPwyN9" type="github">
  <diagram id="bpvPormi-XC51fSZU5j_" name="第 1 页">
    <mxGraphModel dx="782" dy="436" grid="1" gridSize="10" guides="1" tooltips="1" connect="1" arrows="1" fold="1" page="1" pageScale="1" pageWidth="827" pageHeight="1169" math="0" shadow="0">
      <root>
        <mxCell id="0" />
        <mxCell id="1" parent="0" />
        <mxCell id="bPpA2zot5zo2Qx61cB6g-1" value="装饰模式：&lt;br&gt;在不改变一个对象本身功能的基础上给对象增加额外新的行为&lt;br&gt;用一种用于替代继承的技术，它通过一种无须定义子类的方式给对象增加职责，是对象之间的关联关系取代类之间的继承关系&lt;span style=&quot;white-space: pre;&quot;&gt;	&lt;/span&gt;" style="text;html=1;strokeColor=none;fillColor=none;align=center;verticalAlign=middle;whiteSpace=wrap;rounded=0;" vertex="1" parent="1">
          <mxGeometry x="40" y="40" width="210" height="130" as="geometry" />
        </mxCell>
        <mxCell id="bPpA2zot5zo2Qx61cB6g-3" value="&lt;span style=&quot;white-space: pre;&quot;&gt;	&lt;/span&gt;装饰模式的定义：动态地给一个对象增加一些额外职责，就扩展功能而言，装饰模式提供了一种比子类更灵活地替代方式" style="text;html=1;strokeColor=none;fillColor=none;align=center;verticalAlign=middle;whiteSpace=wrap;rounded=0;" vertex="1" parent="1">
          <mxGeometry x="310" y="60" width="200" height="90" as="geometry" />
        </mxCell>
        <mxCell id="bPpA2zot5zo2Qx61cB6g-4" value="" style="shape=image;verticalLabelPosition=bottom;labelBackgroundColor=default;verticalAlign=top;aspect=fixed;imageAspect=0;image=data:image/png,iVBORw0KGgoAAAANSUhEUgAAA/QAAALJCAYAAAAatmilAAAAAXNSR0IArs4c6QAAAARnQU1BAACxjwv8YQUAAAAJcEhZcwAAFiUAABYlAUlSJPAAAP+lSURBVHhe7J0HeFPl24fbUEopUgQF/AuCgiwHLnCCKIg4UFARZKgsFVQciAMVWbIEZMgQ2XvvvUehFCjQRTctZReZLS2lVH7f8yYpnL590qQlgZLvua/rvoDk5OTk5CScO2d5QBAEQRAEQRAEQRCE2w4JekEQBEEQBEEQBEG4DfHw+GweWDs5YOf5zvHzBbn7hQN+udC+XRzwq0Wsnt03o/f6cMzeEY1lQbFYsTcOK/ce5N2nuf8Qgk+cwZmzZ3E2V88g6egRrNUfn+V+zeBEhJxIQmh49ttXkMv3RODHKdtRY+A6FPlxKTy6LbG6At32nMo5LWeSsGFdIGoP34jivyyHxw807DVX4Of9/+Z4zL+H4vDt5O14UD1H92XwGxmKPf9mH0Z5+kQihk7fgYeHbETRX1bA85dtmBR/RhvuDI5GRuL9idtxX/+1eHZlIpK0+08lHsb2o/rjrNMxPQAvTNuDr6Zvxes0jrpj/dF9XxJOa8M63TOnsGnLHtQd54+S/dbAs8dKePxm0bvXSpSheVNp6EZUpflabfgms0/Mj0HkaX5cm7cF4a1pgXhq7FZUHUHDj7T44IiNqETjKDlwLcrPj0XCGe7xpxGwIwhP/7MNd9LzevRZndO+tlyLzntOMvPrDE6fPIE9B48xnkDi6Zzvx9kz/2JbwD58uCgIL08NQJlhG1Fs1F4spfeO/wzQc5w4gr+W7cFTE/xRapg/BkWfZoc7EBKOT5bsw1uzd6PS6C14YmEMgk8x02DXMwjauQe1aFl5y/+otqw5WfpsLV0XgOoT/XHf31tQe+NhnNTevzP/nkBA/Kmc81+9p3tC8PGKYHTdcgAtaTl/bkYgvgk6jmM5loEzOHEoHj1XB6P9qmC8t3gvnpi2E3fSfDLRctdgyxEcZx5z6lgiFsXl/Hyr93FHUCja0rjepPey0qSdaL4hGuMDHXBXzI27+7r/7AxDY5p3nvRayiw/iFhu+afXEh0Zhc/WhaLZiv14bPYuFB23FR7/7MGYhPwsI7fGUwejUW+yPwrR8uJJnwcP+jPLu5fHIZx5D5MS4/HlpnC0oNf+1OIgFKfPneek7SizLgFxzLw6dTgBX2+KxJj403a/I0+fOIzOc3ajczizfKrPUXgU2m0+gHfouWvQclJk+k540PPn6jRdeoyuGk9uzuAMzO5MB5yluyuntCxlc44Dzt1t33l2nL/HvgsccKEDLrIjLVdOccle+y51wGW6+7K73AFXMK7cn7urHJC+g+26xgHXhuTuOgdcH2rfDQ64MezGpe8ou252QPq/0K5bNbfpRuTU3wG360Zmd4cDBnBGZXenAwbqRmd3lwPudsA9+TEmp0F23MsZm919DrhfMzjOviEOGHrQvmF2DI+37wEHjEjIqUdniljdzx3wCwpde37pgF0W2/crO35N0ekMv6HwtaEneWf3lXjmzy14b+JOtJoaiNZTd+V0WnY7LInCmsRzOJ+cgpQU+yZfOIMtW/bjo5l70GbGHrSevtviDKN70HVjPHaeOI8Lyck4Fh2Nb2ftwYekur8V+cH0XXhj/A5UHbQJPj+vMke52R/X4MeQc0jWnzv5LLZsDsIzf22DX8/V8PyJhr3mWvQIP5/jMecpBL6j+KwyeBOK/LoKfqMjEHw++zDKC6ePYzitBD0ybAt8f6Po/S0AU48ka8MlIyk2Fh9MCUSFQRtRbtZBHDLOs+QLCN0XgzUn9cdZpuPbWbtRY/gWVKBpqUrPU55ed/M1B7Eq7DC2RB3DzrgTvAdP4eiFnOO88O8p7KJgzT6s7km6/RimbwhGnfEBKDlgA0y918LDqidZuO86FPl9HXwM3jMjDtEXsj+f2eRz2LYjGC/TPPjf0M3w7b8BPv3WW+y/Ht70pxc93m98FEK4x9M8jD0QiYb0+LuGbIbp9/XwMEqPt+1GfLH/DC4w4zybSCv/y0PRfmkIWi/aj/cX7EMz5eI4BJ7LOe9Sks8jYHc42i4LwSu0HJcZQUE5cCNqrzyCI7Y+B2o5jj+IjvP3osaEffgrgRkvTUskvb5PVoThLRrugX+CMDzhQs5l2SGTEbyfAmhJCNrvTcI5dhgnSe/rlsBQvLOElpM5Qai87JD2/tOyfzgRk+PP5Zz/tNzvDj6AdmvC0WjhPlSaHIA66xIReZ6f7yFRiZgZfhjzDxzFvANHMC/8CJbQ3zfEnEBA4mkkcfOfnuMUvY85vxPOY2dwBNqvO4C3l4Xigan70P/ghezD3CSTzx3HzxR+xSfsQIUNR3GUXY6SERUdi86bItBi7QHUnLcXvpMo8iYGY9xRbnkqmJ47egiN5wahLH2nFaco9ZpKr2GKxbtXJyIqx2unz+jxo/h6WxRabY5ALfrcFZ+5G570f1TZTUeRyMyrcyeO4tuAw9h21v58uXDmJL5fFoxusczySc8dEhWHjv7RaLY5Eg/TcxedTfFHz29Tel3ZpeF11Thycw4nxaJRmod2nadLYahL3zXZXOCIFIb2pM9zrtJ3rV0XOyB979h1qQPSe5uryx1wBYWhPVc64CpdikWjqx1wDeNaisXcXOeA6ykW7bnBATc64CY70veBXbc4IgWnPbfakb6f7OrvgNspFu25QzOAk2LR6E4HDNSlWDS6ywF3c1IsGt3jgEG6FIu6e+24j5Ni0eh+BwzWpbjUDbFjKOeh7IY5YLjmgUTnGHHYvpEOGHUkd6MdMOYor8cXFLK6X9qTIteeXRzwq2X2/dqO3yy377cO2JXC1Y5Ff1yJB/ptwFN/bkPtYdvwNOdwf4sjduG7bccRdyENaZcu4ZJuWhr+PXkWx1LTtPvScJFWoP6cswt1Ru/A0yO3Z7P+jHBMizqL04bHpaWex9p1Qag/bieeHUXD/WWx5jB/lO67AV4/r6EoXw2P7sr16B6eknOa0pLhv20/nh0TgBK918HzZxrWLD325w3oGXkxx2MunjyG7ynYqg7diiK/rUWJsTEIu5h9GGXq+SSMpBWjR0dsh2+v9fDstQszTuR83acTEtBy+h5UHLwF3n9GIDDl+jCp509h4qoYrDylP84yHd/N3Ysqw7ehOIVpsd83oEgfCuDe61GOxvXSpF14d/ZevD93H5qb3X/ND5YfxoHU7ONT03KWAuvLJaFosyAYH8wLRvN5NDzj+2QTGveTNO9L/LEZnjS/PXKTpq30zAQczPGcZFoKAnaFod7U3biL5qmJXosKbY/+2fUcGoZ153POBzXd544kojlNzz0j/FFo4CZ4DLA6aCcGR5zCwg17UXMQ/Vvdl80t+DI0GanMOJOPHcE3qw6gzdJQ1J8VhJoTd+HhCYF4eFoM/JOZ6Ui7iF17I9F+ZTgaztmHMrQsmuh98Bi8C7/HpTDPoUxD6oXTmLExDK/Mi8DE4/zri46MxWerI/DWwmBUGr8LbwaeRnKaPpwDpqUiJDQa7WlcnUPPIoUbxlnS+xq4Pwrt1kbgtcUhuHdGLDYb5lua+uztjcHYRGbe0HTuDYtGh/WReG1JCKqvSMRebp67QvU+hsag48YovLUiDPfP2I9Bian8sC42LeVfDKaofII+j0/tPIUz7HuehqjYeHTaGoP3aX49SsP6TN5FIRyGCSdv0jxzghdPncCXNP0vrTmA6ouD4asCdzqFL3n3umOIy/Ha6TOadJICPQ6tt8WgNn3u/ObsheeMPSi79SSOMfMq5dRJ/Bp1BkkOfHbU53KIfwx+jj6NXSfOIPD4Gew5cRahSecQfuoc1kUm4NOdB/H+tlg8Qs9ddB7FKD0/K31PZ5eG1VWPz7MUrkbnO+ACTgpXo/Q9k81FDkifcbvSZ9mu9H2bq8sccDlFqj3ps21Xel/tusqOqykw7UnLvF3X6lJw6q6z43rGDRSd9txox00UnPbc7IBbKDjtudWO9F1gV/pc23U7Bac9dzggfT/l6k4HDKTgtOcuR6ToNLrbAffoUnDqBtlxLydFp9F9Drhfl4JTN9gBQ3QpOI2GOmCYLgWnbrgDHtClQDUa4YCRjFHHcjfaAWOO2zfWAeNO5O5BB4w/aVuPLylmjXZxwK8ocHPzawf8ZqV9v3XArqty9zsH7Ebhas/vV8P0w2r4dF8Dv1/XoUSP9bhT97cNZp+eGo1lR2jFN+MKrlzhzKBoT8LfKyIx5VAaLuv3Z2TgDAXlh8O34q7eG3Gncuge9Np9CompGcjQh1fjO3kU7Snmy/TbhDv7bKQop7DtuQHeNF2eP6+Dxy9ZbsLPkZdyjiMjDQE7wvDs34Hw60vhSK/R49f1Vjejd2x6jseknz6JH2btp5DeDu9eG+A37iAi07MPo7x88QxGLQjBI6N2omgfise+ezHrVIY2XAbOHz6MVjP3o+Kf/ig8YB/mn7YOQ/PjeFw82i+Kw7Iz+uMs0/H9vBBUHrkDRX7fBE967R5kIZoPfgM344GR2/Hw2J149G9lYDafXXUCxy9nH5+alhMHE+j5wlB/6l48QeH46DgaPpvqNos1xgai3IjtKEJR7NFvs237Wywz+zAO5XhOMuMSdgVFot70fbhrmD88B9D41Dh1BwdhwonLOR9Ppp8/jT403ffTNBUevI1CfqvFYaGYp+ZdxmWcPnECwxbtRuk/6PYsB2/HVxHMskjzIu3kcXy7Jhotlh7Ao5P34E6an770nvuOjcGWtJzvx5WMdOwNiaFYjkJDel/KjNkJz6H+8CD9ph/EXlqGsw9/GaeS/sXE7THosCYK7y4/iDlZ7302MxAbfRCfrIvG20vC8cDEPSg5+xDC0rlh7UjTGBweh47rY9A5IhmXcgyTgcvp6fg35RJO5cHky9z8uIQ99FwdNsTgtaXhKDc1ApOvLf8ZSD2dhH6b4/D30UvMd8FlhETSYzfG4rVlB1B+bjw2X8zH682PNN2B4QfRcUsc3lodiYqzwjD4KL/cudqM9AuYsi0OzWk+vB12Hqncdyt9T0TFUVz6H0TzTbGoQZ8DH/r8ekyLxKR/b9I8c4LqM9x7Zzxa+cfhWZrvd86lSJxJ0UrfjaU3nkRCjtdOn9Ezp9B1VwLabD+I2mvj0CooEe2W7Iffyjj8HnIUI8OOYkLUCSyI/xfLE89gaexJLD5zmfm/JKeXUy/gH1pZbRuYgAabYlBtZQTq0LLcJiAeHXcdwqe7D6ED/dmMnvsh+sz7LKCQpM99Dudz0rBG1WPtuVCXglOX3vtcXcxJ0WmUvmOySZ9du9Jn1K7LHXAFBaY96X3I1VUUmPak5cuu9J1s17V2pO9su653wA26FJy6Gx2QluNsbqbgtOcWB9xK0Zmb9B1mV/rc23W7A+6gcM3NAAek7yG7BjogfTfZdbcd91C42jNIU49lsxSuRvc5YI5gpnDVDXZAPZhDKFyNhjogF8z0/Z7NcAfUg/kAhavRCAeM5KRwNRrlgNG6FK66MXaMZYyjyL1RDybZN94BE07Z95AdE//NXY8uFMVZfuWAX1MA5+Y3DvgtBbI9uzrgd2vs282O36+17w859dT9cR2FYwjGH7iAc1cy8d9//9kwE5eTz2HmunC0oxWYliuPICyNGT7zCo7HxOKVwbvw9ZYTiEy5gkx9GKOZlxG0IxjlKBi9emyE5y8bKN6t/mp0M36JupxzXJnp2BkQjucoUP0oij367kLfzRGo34vG1WML+sRl5HhMxtlT+HFOMKqO2AHv3pvg908CojKyD6O8knYOoxeF4tHRgSjal6L2930UbPprzkTy0aNoNTsYFSkWvfr4Y0C85Tkz05OxeFME3pkfh0Vncs4rNR0/0Ipelb92wntYFDZcuITTKenXPHMxF9NopTUz+/jUtGRQmJ1Pu4yzqcxjGE8dP4xWQ7fCS0V4f0Z1u9Uyc4/i8BX9OUl6D3fvjUI9WnG/i+aBZ1aM53A7vo9OxxX98WTmlYtYsOEAqo/fDR8V0X9Q1KuwHxUD//Tr8y6Tlq8Tx07irxV7UWEIDTdkB76O5MaZifRTJ/EtrXC9Tyuj1SftgQ9Nm4pzNc6thnFeMzMD+0Jj0WFtNBrS+1JmbCA8/6THKIcFoPneZKSZ53kmrqSnYXfUYfxEK2Id6Tk+WBmJFxccxPyzzHhp+JjoeHxGUffW0gO4n6al8OhgjD6R22eDnoOC53zqJRw+exHhJy9gBwXNqpiTGLk9Fm0p6D85kILLzONS6XV3o9D+nPyMAvFTs3G23XyElj1uftBn8wCFMT3+NVpZLzdlP36MpzA235eOHftj8cmmgxh1zHpbtsdeQWgUhRON/zVaiS83LQQ/xfPvvdOl6Q4IS8AnWw+iMa2UV5wdjiHHr/DDutjMjIuYszMB7bbFo130RaQzw6h5FR57CJ/tSMD79J7VoCgrMp1CeEYUpjDfGwXVDPr/of/uRHwckIAX1kWhpIpY+l5Ult50ConM91X6udPotvcY/kq4gP0XVYinYuqmEHjNDYYPhXOxBSGouvIA3thyEB/Q/OkUcQFJmY7NkyvpKZi07zA60DQ13BKHqhSC9WhZfouWi6b+8XhnO0njbEDjrkT3eaugzorvLHNEuJKGy0uEK+1FuFIPcV0uxOn7JJt6hCv16NbVg5uTC29dY3DbkgtvXS68jerRzWkMblty4a2rR7cuF926eoSbpYjOqzlCneLXnlyc626jAM5Nfwekz5JddzggfXfYlb5PczWQ4teeuxyQvjfsuseOQRS/9tzLSN9b2aX4NbrfAYM5KYCNhjhgqC7Fr26YHcM5KYCNHnDACF2KX91IO0ZxUgAbjXZAWhfLLsWvbqwDxmkepAC2Z7wdEyiS7XnIARNP2/ewAx45k7seX1FgK792wG8oou3JxbnRrhTR9uTCXLcbhbU9uTjX/WFd7lKo27Py6DCMC7+A01euWs81aIuruJKajPmbIvHRvDC8PnkvnvprFzoEXkAq99Cr/yH18n/0KEe4iszk0/hmzE749qZo/lVtZbdKgX/dregReyXnOK9mYFdgBJ4fH4QSQ/Zh6MF0XD5/Ap0GbIZPn+3oG5+Z4zGZ50+j+7xQVBu5E0X6bEaJCYmIybTeaeC/9AsYSytaNcfshm+/rfDsF4y5Z/WxXcXF48fRZm4o7h8RAK++W/HhvjRkXr2KfxMS0WlxBF6cHkOhl3NuqOn4cVE4qo7ehSIj4rCHmQZXk5l8Cl0ooksN24FCAymgBxhU/zZYZt5xHP3P+kAjV68gaH8MXp4Vgrv/2gnTHyrI/VF6zF68vzgaffyPYFbYEXQdvwN1A5KRwS0YVzMRFhaLJ6fuwx3DAyjUKaLJUrOPIo57zv9SMX1BIAr9uRPfRGcg5yBXkXHmFL7bEIfmyyNRnZZZH3p/PP7cAY/RcdjGTQRNQ3B4PD5ZH4tGCw+g7N+7YaKQ91DToxwXicXnM3Hy2EkM2RCJdmtj8DH59tII1Jodgnsnx2BRMjfeq4iJSaCgj8NbyyJRkaal8KhAvLQrGel03+X0yzh67iJCTpzHxvh/MZv+cxtKKxRf0fAdaPrbbziIj9fHodWaGDRfHY13V0bhDRrPB2GpyLA+xXWu4tLpU/h+azyF+kG0WheDd1ZFowk9JpurDK4+hBXsdF/B/shD+JSC540VkSg/PRivBadCfQpTTx1HV5qedpviMeQoM//pOyA8hh5L0/EGPUf56ftRafMZnObeewe4SvNJ/YCV/t/VHJ/nHNB3wo7wRHy2PYGCPgYV5kRg6EluIXI9VzPTMI9W/DruOIRvE9Jp3jHQchcadxiddybi/S3xqLb4AIrMoBCeHoYWAUcxZN8xjAw9gZmxp7Ek8SyWJZ7D8sN5d7v60YadebTMXEzByiP848yq++y4ND4JP+45gna7DuOF9TEoSZ8hzzkUwGTpLadxJMdzX8V/GRlIov9/rt1F793ywAOosDwCD9Ayd9eSAyizJALVaRl+fNNRrLjo6P8r9BWRkYrJtNL6SdARvLotAfevisGXiek4cfYCJgYnou7aaFRdE40KtHz6UQybFlIg69L3c3YpgI3Se2VXeg3ZpfjVpe8Quy7Tpfg1St9zOaR5aFf6PshVmj92pe8lu9K8tit9XnOVvs/sSt/fdt3ggPT9a9dNdtzMSQFslL5f7bpVcxvFrz39HZC+I+26w44BFL/23OmAgRTA9tzlgLspgHNzjwPSd4Zd9zrgPgrg3NzPqEd3MMWvbogduegOpQA2GuaAenSHU/zqHrAjF90RFMBGIx1Qj+4oil/daAfMEd4UwEZjHTCOkwLY6EEHpPW9bCZQ/NrzkAMmUiTn5mEHPHLWvkcd8Ng5+97UmFdyAW+Ui3ddLt51uXjX5QLeKBPv191kDsx5cRdxIdOxVaP/LqVgwcYItKYVs/oUzlUotO7svQn3DNyDcUe4mHIEWpm7chmxiUkYtTYC9SYEoQxFpMm8NV6PeQeCfnoURiVeppCmmy6fwYCxAfjf4J34PcFO0Pd1IOjHWoO+fyiWXNDHlj3oC/++BTXWnUEaPXbGqlC8NTsU1f+OwJwCGvT/XTyLvgvCUIXi1UeFuI2YNwf9/BM2gj4TUQdPYkLYKSyIVseqXsTR1EwKd8NrzkzG2Knb8b/FJ3GcXWAoEpNO4t1ZoSj51054WoO+As3LlJyzjlozGX/O2ouSo3bj2xgXBn1WzFutPGkvHh4TiMcpuF6jlfWXF9D7N3UfStGwXmOjsZyd2P8QFW0J+reXR6ECjUMFfdEJIWg6Zy+qTQpCI1rRb0MrrB+ti0VLCuV3V0bjjaWRaEDP8SJNy9O0fD0+OwSP0Px5YUkUGs/dj/p7U2wGfbct8fiQXseLFB3VaForUYxfU/3b6KwYzDzHzuTrQU8r9irK79t0BucyL2HRhmA0oPnabG0seiU6FvReU2KxQvsFUIX65YwrOJ2ajvhzqQg5lYztR89hNf3HNYf+8x1HKxUDaeWp2w56X2gltefBNKTRKK7+l0lhdhFx6dx0X8aWUEvQv0Xz877ZYWi67Sj+ojAeF3YC8yiMVx46i9UUxrlKIXujrjr0LwbRimj77YnofTQD7Eec5vPemCPoREHfjN63KvSem4N+2n6zhWje/W9eGF6lZbmNfwI+3n4IbXfkxUQMSEjFGb7mCVpmLl3C7uNnaP4cRScK8vY0LW3zIr1G5cf09+Y032vTsuxH3yu5Bz0DfQZ3RRzEaxQt9Wm5K0fhWmR+GHwWRuPHI5fB/fZ89UoGjjPLgR70/1tO4zh2xbKs0nKnTpS3JOoomqw5AB+a5543JeaVFOPOjnku6Ll419XjnVOPd10u3nW5eNc1hrstuYA3aox2W3LxrquHOycX8LruHvNKLuCNcvGumxXsucnFuy4X8Ea5eNc1RrstuXjX5QJe1xUxrywoMa90ScwrKcadHfOOBP3tHvNKLuCNcvGuy8W7LhfvusdJNt51uXjX1cOdkwt4XS7gjXLxrsvFuy4X8LpMyJcauBs/bD6G3f9m8FtIcyHzTBJ+pBXKev/sQQUKu6I9NqDQz+vh89smVP4nGjtSHN9qolYeM2jlMTTuOP6kFakPaWWtCa28Pk3RrIK+UI6Qz3Irfo2xEfRBiViQRCtqWXdmXsScJftQfeRu9E/IOW0qpH+iQKpKQe/dZzP8cgn68VuPYjz9Z9J/XRyG77uAnN1jCXr1Y0dF8xb6LSg76wi27gvHa1P245kJQSg9PBSzz+ScQ+agpxXHKqMo6EfeoqBPPYfBtIL4KE2n72CKaC7mB+3AwxOD8TGtlJ/K+TIcg4L+79n0Hk84iG1chBFXr1zE5NVhKE9xXGioCvoAvLM3lY2gzIvn0HfpATwyJRjfxdoO+q60Avc+rdyqoPceTjFvN+gPoiNF4Kv0vpQZtxueWtArC9Nyc9ffu1BxYhDK0mfCd/QumEbshMfYWGy4xI33PxyIisentBKottDfRwHv9RcNT+PxJP3G7kKNGfvx7LxQ1JoTgodn7kfl6SFosCwG32w7jL+Ck7A8/jz2n76EpPT/aDm/jBVrg/DCbttB/x2tCLZYE4NHZofgDnodhenzZZbmbTbVfeMPYBKzfKrQ3BeZgE+2xON1WrEvR3FZYsExbI47iKcn7cXTCw/gpaVR6BZ/2WbQX3ssRWmh8XvROug0VkWfxOQQFdhH0JNW5j6j2PqEwr892Zam+0Na0W1F86oFBWwzev+a0Ir8W7TC/zqFQcO1hzE54V8M3xGH9zcdg7+qe53/0rE++BA+pfh9gx5bfnYwTBP3oBDN97I0b+tRyHywOR6tadpuSJpeu9LKdSv6s/mWBAw9mckspwTN551RR/AZxfC79NofpFj0NgS9J3knfb/UoLB7lgLqeZoPL+jSe8266TD+PpaOi8Yf13LhKr1vZ1PSsPnQKfy2Mx511tM4KJRyVQ1j9Xmy1tpoVFoeBR9anlXMK6sEnMUJhybhKuIOH0VHWvluQu+f2krvNS8SbaPT6DVYBzFCr+tE0llsZnYVywr6jkFH0ZDeg7LLYzDolP7/gfph+RKm7YxCCZq/3jTvzWFvL+aVXMAblZi3qIc7Z1aw5yYta3Y1hjsnF++6xmi3JRfvuq6IeUeCnot3XS7edbl41+UCXlePd1093Dm5eNfV452TC3ijXLzrcvGuy8W7rt2YV1KMF4iYV1KMOzvmHQl6iXmLXLzr6uHOyQW8LhfwRrl41+XiXVfFvENBz8W7Lhfvuly863IBb5SLd10u3nW5eNfVQ350BBYcTME5u7vV20YF/Ve0glmNIsv3t43w7L7efAZ5T7JYz02ou/QEjtnb2k8rXmkpKdgefhg9lh1ASwrqN2lF9blxe1B1WADu7r8VRWhcfMwrbW2h/w8pFDnZbqfg8d8ejifH7rUZ9N3nh6IaRZW9LfT/7DyLJHYtPIurOK+OoaeVVssW+q0wDQrAs39tx0NjduGBkYEoOjgEs2wFPa0sqi30PkOD0Xv3ESwMP4l1saex6eAZbI7XPY9YChg7c9rM1SuXEUEfvM0Jubsx+hi60orlI9PD8P6iKPy0IR5j9hzHkqjTCDyWgvgLl5Fs3CU2v/x3ETNXHcBjU8Mx/JiNH4DovUyMTcATFItFVTwP2YW+h3LuYaHm+WWK1q9Wx+DZmWHoZiPoMy9dQlhSCoKOJ2Nb4llsoHm6Pu40mYwT3NZK4xZ6WmEvS7Grb6HPshC9195/BaIQBbmHinnl+ATsYjch0ngPWIL+DVpBV1voLUEfiCrTQ9F6dSx+33UMM2mebzmagujzdub5f5cwd2WQ3S30zSnoHpoVgqIU7h60jHnQ8pjDseS4cJtBb9lCH39tC73XP/vx2PTdKDp+DyrNpO+E2eHoEmc76D+lkDJvoafvDy96jLq2uveEIFSgxzagqHiXVtTfpul8fVU06tO/X6D5U5ti6LGFYXh4fhiqzQvFA7NDUFEd0kCPKTNjP0rTdJSbFYynVp9AGPe9Q/NnRZAl6F+jWChPj1VBb5oYhGJT9qLSvDDUpOd4PDcpvuxK05qrFF/KJ5ZHoubyQ5ifbOMdVXsU0PeiCvqmmw6iMi17XvQas4LeQ813et2+9JrvnBPCS9+n2ZwfiXb7zyA41cZnzQFU3KvLAi6NOoZP1kWg5IIw3KlL71M26Ta1ZV7FvO/iGHy2/1+s+/cyUmzuHaBzFUlJp9CFIrzZjkOosioOn8Wm4QL7gwR9xtMvYmJIEjbYDHqadhqX2kJ/z4oETD7PjOe/dMzbm4CnNsaad78vuiQcnjca80paRpwf80qK8YIQ80ou4I3q4c6phzsnF++6erxzcgFvVA93Ti7ede3FvCNBn5+YV3IBb5SLd10u3nW5eNflAt4oF++6XLzrcvGuywW8LhfwRrl41+XiXfdWxbwjQV+QYl5ZUGJe6YqYdyTouXjX1cOdk4t3XT3edbl41+XiXTcr5p0S9Fy863LxrssFvC4X8Ea5eNfl4l1Xi3mzfUOwjFZi8rtSp1BB/wWtWFYctA2Ff9mAUgN34aOFMRgflIRdJ2hlS8UHrXBdyXWljVa+LqfjQPxJ/LkqDM9RSDygdt3/fQu8KeRtb5nP0kbQc9CK6IHgKDzzzz4MOHRjQf/3qmPYdTn313WUIrSZYQu9R58tKNp/G+4evB3FB6nLsO3PPejH7EKRAVvhO3AratB8eXVmCJrMDUNTCo9rLo7D5MPpYPcwzvwPl3Os8F5FRloqNu6LR7vFEXh3QTiaMjaZH4769Hy1Np0Bt67rNP5LxYIN0XienuvtIApRG8/1X3oKhi8JNu92bxoZiRX8ZjmcSDyK9iujUWtGqI0t9PkgD0F/LeINPrzBxjHiVzMQGGIJ+tdpRb76uhPYdy4dZ9WJGPMzz/9Lw4JN4WgboY5n17mK9HNnMXr/cfy+6wg6bYhDC1rpf5+eN4cUDGaXxWFxrrvcG4Ke5omH2rJPYe5HgVxi8n50jrUX9BTVhqD3JItP3ouKFKhV1Q9h9Gc5ivW7p+1Dyan7UGxyEHwn7YXPpCB403MUnhAErwl7UIj+bqK/K73p/gZ7k8EtHlcp5GYGHsInFPSNKCr+R+NXW+c91OPpcd5T9sGHwr4oPRcrTYddaV7kKgV4lr4zwvBh+EWKUusEalz97xKW7rME/du0jDxAy54XPUdWzBv15KR5m2WpJbHoHn4W+y7aOl4+f1ylz8aJMxcwOzQRTZaGwjQ7BJ7KObqhqLzxKGYcTcUJ+pDneRLoe+zCmdP4liL8g10nMOLEZfMhFhxX/7uCPQeP44t9SVjvSNCvOYa1NnbNn0Qr2a13H8FLtLzeS6FaKLeg5+Jd117MK43hznm7x7ySC3ijXLzrcvGuq4c7JxfwRo3Rbksu3nWdEfNKV8S8kgt4o1y863LxrssFvC4X8Ea5eNfl4l2Xi3ddLuB1uYA3qoc7Z0GOeaVLYl5JMV4gYl5JMe7smHck6PMT80ou4I1y8a7LxbuuHu+cXMAb5eJd1xjzdoOeC3ijXLzrcvGuy8W7LhfwulzAG+XiXZeLebPrUXf1aSTnumZlOZ495uhFNkgyL5zDjL0nsTjqLMJOpyONW1P87yLW7EqCOqY116ci1MrhqVPnsHRnLDqP34GSv22CJxvxRreyJ7hjofFHhsai3oT9GGQj6H+a59gu938vi8X0pFy2cl29jO2B0WhMK7flhgWgkDXoPUmv37fApP49IPegrzJ6F7z7b0Vh8s7B21Ge4rDSqF2obDYI7649hu3nbKygUzgdPngUEw5fZiNZbWVLOnkaf60Jw1Pj9qDy2N3ZrETeS/Fcfv5xJDilim3wHwX9RhX0wbhvzlFE29qjg1boz504juaT96D6qlM4yb5mCu+wg2ixPAoPTwlGV/YY+nygxqt2uaeVv1fpfbG1y33OoN+NlygW9lJUsK/qv3Rs3HMQn1Bcq2PlH1x5EvE3MsFqC3RAHH6Mu8SfZM1ZmHe5N+w2T4FZyBr0ykL/7IZpXBA6x+Syyz0Fktr6Xo7CtpA16LOiXm2pL0y3qdAvRMFumhiGT3Ycwo+0nLyzMAT3T6Rh1WOUNOw1J4Xg3R3/ItLGD22ZKefxB61QdqSgf4XCo8zM/eat8x4U83adbM8QtA48jr/2H8Mfe46gD0X4T7QS/C29zi40nz6nlXV15YAOmw6iy/bD+CPsX2w5k4HcfhNU5yj5m1Y6Pw1IROONB+mzGGY+bl6PeVaK+HuWxuLbfaew6uQlnLW3p5QVFcNHL17BJXbLd27Q/xWZVxB38iz+DjqI5xeEwINC3qJl9/oKgefBnDIkV9QPwhcupmJTYhJ60Epvt8hzCEjN5QcvGv7kqX/x496j6Lw3CWuYoL96JQ2zaUVX7XKvgv6BHWcQk3NBRebFC/idnvNTGtebFCvlaZkxmc9Of5vFvCNBr4c7pzHabcnFuy4X8LpcwBvl4l1XD3dOLuB1uYA3qoc7Z46YV1KMS8znlAt4XS7gjerhzsnFuy4X77pcwBs1Rrst9Zhng55i/IZjXkkx7uyYdyTob1bMOxL0BSnmle4e80ou4I3qMZ9r0HMBr8sFvFEu3nW5eNfl4l2XC3ijXLzrsiF/XZ+eQZj9Lxel6izDlxEdfwIjV0eg/ZbTdnYvt406SdmspeHosPYoAs5TeDu6Qkcr/ikXLmJP9HFM3BiJTycF4AHzJee0oO+9GxMdmDi1q3lIRCK+ppWmuhNtB/31LfRbct9CTytXP0en2ziZ1VWknEpCT1qRemU6rVgP3QEThbwKeg8V8lnaCfqsLfQeand90qsfxf0fu9BizWGsOc5vlTdDz3/xzL8YtDYaH65IwMJ/DecR0FBh/++ps5i7nWJp3A4U+cMfXgO3ofAgy59eY+Oxz8EYyDM0nRmXUzBrQzSeU1sRR4dg7Mlcfpyh4VMvXjKf6IobRp05fLF/LJrSe1xp/D4bJ8XLByroD2hb6P8Kx1Sar+dTL+PEhTQknElF9L8XcSApBWEnyVOpOHwx03wyRltcvZKKef4H0ZGCviGt8JednoiAvJ7IwggF/crAePQ46Pqgt7WF3qz6e65Bn8huoc9mVrCboz0Mf107xpne+//+w8VLl3GM5nvM6Ys0r1MQfjoNxy7ltmfDVZw+eRLf7jiE9rSS+xJN910z9pu3zLMBb5QNeM0pwfgy3knLmxn1GT6NHwIPoyMF/au07N0zLxSFaJrZgKfvmRrLY/HV7uOYHn8BwRcycMn2zGBQP96mwz/uGL6iFdkfwv7FkpNpSLycn71FruIK/f+x/8gpDKTvlZKvvAeTT1F4lSyNO0uXwd1lyjpgGdxFw5a4qzSKWfW7m26j2/nhlZbHFDc8pgT7fGVQ6u7SuIPu97WOlxvmrtLXx1O0VGl4l7wbhUkv8ZZrXp4avceHvNIY7bbk4l2XC3hdPd51b/eYV3IBb5SLd10u3nW5eNflAt4oF++6erhzcvGuywW8LhfwRvMT844EvcS8bd095pVcwBvl4l2Xi3ddLt51uYA3ysW80mUxr+QC3igX77pcvOtyAa/LBbxRJuB1Td3X45kV/17fpVoF1qU0BMccx+AV4fhgVggaTTmAMYfzv6L636Xz+GdJOF6hFePnJh3AhIOpcPRETNeh6TqfhO/H+MO3z2aYfrPGPP1ZdPRBBOcaQfTY1BSs2BmLT5ZG4p3ZIXh09B6bu9xbttAHwpviO7ct9GPpNb2x43y23T7V1qRLl9IRc/gk/lwXhdYUf7XGB8FvoH/OmHcg6LO20JcasRcdVidgZuR5HErLZa8AM1eRnnwOEzZTzC+NwMsUTI/NisHSM/b3YriaeQXHT53DutAjGLouEk3/9keh4ZFYb2vfVgcxz5d0CrBzqQg7fh6b6ctvTshRDNl+EF+ti8XHK6PxDAVJiRE7UWvzWZu7IOcORcSFM+hL42u0IBz/+zvIuUGfYwv9TrQJS+N/0HGQzJRzGEIrcx1ovPVomu+aGIU5N3J8g9pCT0H/600Ieptb6M0xby/obW+hzxHzZvfioygbP545yNX/MuAfnojPKeg/oul+hj4bJdSu63q863Lxrjtln9kqO8+zV17IFzSP98YcxecU9B0o6F9cE4O76bvJZIj42luOY078eez89xJOmE+KaH1sXqHP58WLKZgddgRf0MpuZ7IDPW+L7YfQbNth9Io6C/9zl3GBniDPT0Hvd6Uq1fDCWy3QY8YaUXSKL77TGt4VKkvM5yYX77pcvOtyAa+rx7suF++6XLzrcgGvawx3Ti7edbl41+XiXZcLeF13j3mlS2JeSTFeIGJeSTF+u8S8kgt4o1y863LxrssFvC4X80qJeatMwGfzp/VmfXrtw/zTV3D29Dls2p+A7hQsH8wKxasT9uLJv/ajT9SlXHcLtYe6/NmQBWF4clQg7hmwFdWGBeCTTScQkuz4sZxXr1zCqk1heIFW9v83aBu8rgX9VnTYl8pessgMraheOH0af2+IMh8v3pjitiZF8t2DduCdlYcwc98xrIhMMp9sbj25JjQR7WcHozKFpQr6XC9bR0H/5JRQtF98AL/QSsTvm2Lxw6pIfLo8Eh2WRZpjvuH0ENw3PADev2/NV9BXnRSN6ccv84cycNDrTT1/1hzzbWk6Xp0dggdGB+LOoTtQcVIk5iddyXWLsZH/Lidj1OxA+I0MxUxmGnNi2XKanJaOxDMp2Ecf5LX05Tl172H0oZWYzmtjzH62Nhaf0p8dVsegHQXdhxSETWke1py8D0X/3IEi9HwzTtv70YKBXvvRhCPoSON9gV63umzdN67cQk/v6z0rTyEpzxNqhab35JFj+HrTQXxE8+PZuaHw+3sf+h9x4PARemxGxhWcSr6ESHU5N/pyXkT/4Y0KSsR3W+Lxy63aQp/NfG6hzxHzFiv7n7NzeFBuXEXK2dPoSzHfiVZQm9OK+MMLw8zHy7MRb5QLeKPWmFcWXXQMwU7Zm+Uq0i6cwx+7LNegb70tAU/S57k4LdfGrfJ+y48igLt6gsOo3eQzEH7sFPoGHTbHvLo03UcBiXidQuPxVVGosiwCj6+Owss0z1rsOobJR1IQlZZp+ztXQ5234L5qj+CLIROx6ChE0Sl2GTYVRSpXz1/Qc/Gua4x2W+rxzumKmHck6Ll419XDnZOLd1093nW5eNfl4l2Xi3ddPd45uYA3ysW7Lhfvuly867oi5pUuiXklxbizY96RoL9ZMe9I0EvMW9TDnZOLd10u5LO8JTGv5ALeKBfvuly863LxrssFvK416NVW+mqDt+MFCu7XaQX2ZVqpfpSi+97+W+HXazOabLtg8+RDjpCZfBq954XiIQqgoj03oljvTbjvD388MyEEf4aewxF7x9ZTTMVHJqDDggOoQyv2ZQZuQyEV9MreuzHisPX6wRrqePyjicfRl4Ljw4UU11P3oSqFuh+9Lq/em1GYLDd0O56lcb5C9706bT8a0J+11Y8GQ3bARK/dXtDXHLsL5ShCn6LHNKIwaTw7FK+ps3RPCzZvma9Ar9m3/zY+5h0J+jG7UW/taZxyIOjV6z1+NAl/rLfE/OtzQlGVps+X5rWJpsH3j+2oNC4Uw+Mc2EOC7j9+MAGNZwWjyrj9+POoIbDpvszMTJxNuYQ4islA+nJYTl/S43YdQvf1lmjvRH66RkU7TYua/yui0Gp5FJotiUATCuLX5oehPk3fCzSvatF8rzExCGVG74LXkO0wkTWWHUe8o8VgRR0XuzwgDi3puWrS++g7MtBG0F/FleQLmBeRhFnXPIWZB5IwM+I8DnNBZiPoPcbFYYvN4x5y57/LF7Eg8CA6UdC3oLB9hOZFUXq/2x24dH1LtDXck5LTEJGUjC30ZT3nwHEMCTyEL7fEozOtEHYiP6VxfEK2p5XMj2ll9NuYtJsf9P+4Nuj9lhxHVL5+nVF7HaVg1t5D+IKCvgPFsTrDfYW5ofBSQa4HvFE93nUNMW92egym3/AZJNX0XsScYArsQMvx8+qEeJUXh6Mws7v9C7svwKHf27Khfny7goR/z+GfUEvIq63yHWml+YPth/ASLUOVlkbAj763vWeH4A76vJal5b7K8gg8TZ/t1zbH47sDZ7DhTDrO0efF9tNfxbl//0XZ6o9K0ItO1WbQ6/Gua4x2Wxqj3ZZ6uHPai3klF/BG8xPzSi7gjXLxrsvFuy4X8LpcwBvVw52Ti3ddY7Tbkgt4XS7gjXLxrsvFu67dmFdSjDs75h0Jeol527oi5h0Jej3cOfVw5+QCXpcLeKNcvOty8a7LRbzRAhnzSi7gjXLxrsvFuy4X77rWmM/S+5cNKEOBWZFiWf15R89N8KLb1GXovH/fh4VnHNliqrb2UOhdSEUUvVFb6EM3kyKvz+pINKWV9gcpngv/RuP8dQO8KexL/r4ZVYftwIvTI/GPCqlL3HOoY9FPotfSA3iDwq8yxbMPhbg55q2W+jsGu7STjl3NzEBkZCK6Lo1Ey/nheJFWzivSY4upk9H12gQPen2eZFH6992D/FF2sD/uIcsO3o5SA/3h03crPCjo/SbaDvoxtIJdc+xu3DnIctb68sMCzAF/Lz1PaYrSEjRetWVenQSPjXmlnaB/kCLXd1Agfoy6lOteCOmpF7EpOAFfqS3etCLecFYIHhyzC8XoNamY9yA9rVFfcfRudNiehAO5XLZKnVF++qZo89nuq1Fktdp6HAtDjmLavsMYviMe36pop2D/dHUMOlK0t1sZjY8opFsui0Rzev4mC8PxBkVAA4r2OhSqtaftQ016D6pNCML9FHv30rTd/Vcg7hy5E8WH70RRmncq5j2sFqF/f7DzHE7nYc+Ef48eR9d1sXhr8QHcP2EPvIbttBn06jr03WilTAV6S5r2JjTNby0hVx5HMDejVdBzJ8UbGYyRJ/O+N4FaPoMiEvElRbja3V6dEK/8pCAUHh2IGqsOY9b+wxjiH4dfNseg88aD18JdRbuyLT2mDb3WD+g9eJeC+q3lkWi0LAIv0Wt/bkEYmoVeZIKeXnfyBSyK/RcLyPkOeRbh7PXztV3uKSzVifAcD3obu9xrEZ/NqQexNq9bo2m5SElJxsx9lpj/jFZSW9CKdi36XihB0+xpjHddLuB19aCfEoxvEvK/V4g6n8XJM+cxjj5nKuY7WbfOq+vLl5obkm13+2vOiEDfY/yPmjkw/0B0GQfUietCru9e/wmtMH8YkIg3aRl7ip7rXlrGfdSZ6el7xEPtFUAWon8XUZe9o+WrHC1nj9D7/iLFT7PAY5h4JAWx9P2t/xamDnPYGnlEgl50umzQq2C3px7vunq4c+rhzumMmFe6e8wr9XjX5eJd1xjttuTiXZcLeKNcvOty8a5bkGNeWVBiXumSmFdSjDs75h0J+ts95pVcwBvVw52TC3hdh4Oei3ddLt51uXjX5QJelwt4o1y863LxrqvFvNKT9PqZQpsivpC6lrzBQj+vR+0lJ/GvHlcqJC+lI+HkeVppO4EpOw7iewrv9gsP4COKaHU9+Xcp5t6Yug/PUviW7b8VhXpsgAcFvdJEf/ehuC4zYBseGrET9aaG44+9/yLkXAYyaNz0BPjvUjLmbohAs9mheJzi9o6+m+FpiHllYRpHvZVJSLJO39Ur6dgTHI/OtNLejKbhWQqF/1HY+lBAq4hXMW+WHudJqsAv1Fu52azaMu9JetDfcwt68xb6v3ejaP8tKETTpS5Lp1Rns1cnwDOHfG4xr8w16A+Yt9D70PwpPS4am1O0LWE0jy5fSkNQzDH0WRuNDhTU79NjXqSV/AdoXhljPktPGpfPH/4oRzFde2Yk/oq8gGOX9fH+hyMHaSWfVthfnhWM/40KRNGh21GZIu31eWH4gOZrc4rfd+i5GlPwv0LR/iKt+D87PRiPUeRUp5h+gOZLuTGBKPPXTpSiaPdTe2eo3enJwkN3oBBFu2nwdniSHkatQa+20pcatQsf7fgXB+3uwXEV506fxp+00vQRBWJdes/vHrMLpj9zC/p/zUHfhuKlDg1fhaa74oQgVJx2iD8pna0t9CN2of0Bx4/tVsGWnJyCVSGHzDGvzm7fbFUUatJ89qN55knzy4PeGxNZlqanHn2W3qfX1Jym8136883lUahPMfUCRVVtei8epflehd7vihST/5schNITg3Dn+N14UV3+z/qc11HXof8X31NId6IQ/5ieuzX5gfphwJbrD2M1t5+7cQs9Tb9TttDbc0IYRp9yIFtVtF65gpMXLmLbwZPoSSuVWTHfmlai662MRjlaZgurIOdCXpkV7LmZI+Yt1t6b4vAhSurcEhlXMnH64iWEnDyH6WFH0YVCXh03ry5Vp2L+ZQqVCgv5rfNZ+q04ht02n/QqMml+HD6XgjU0P3rQSuvnuyy71qst8m1o3jSmcHhmTQweWBqBO2m5Kqwi3hDzRtUl6bwo7ovODUFpCv/KyyNQi75/Xt0cjx8jz2DbuctINn8X0/dTynkMCDoqQS863RxBr4c7Jxfwunq86+rhzpkj5pUU4wUh5pV6vOty8a6rhzsnF++6erxzcgFvlIt3XT3cObmA1+UC3igX77p6zLNBTzF+wzGvpBgvEDGvpBh3dsw7EvS3e8wruYA3ysW7Lhfvuly863IBr8sFvFEu3nVPnLcGPRfwulzAG+XiXZeLd10u3nW5gDfKxbsuF++6WsizakGvLNpzB4aqLU+0Mn7hfAp2x5zExK0x+JLipi3Fe6u5YWhGK4Aq3l+mEHlm7C48SiFXhQLuvkH+KGW+pjwFuDXmLap/bzRfZ76oNeyrjwhAnfFB6LA2EYsPnsOmoBi0phVMdex86QFbUUiNQwt6z982wa/fDnwTchGXMtKwfU8cPqHgbEbTVHvcHpRVZ22nYL8W8taYzy4FvK69oF8ajkfULu391fHxNLxZinSjXMQb7R+EP6IvmM+OnnA2DYfPXzJ76OhJfEMr8Sroi6gIH7gNDazXg7/6HwXA2QvYGH4Yv62JRke1O/viCDSiFe3HKKbvoXnoM8iyRd4Y8x40HqWKem96T+6mIK1O4fXSgmiMOnAWUSlXzHsBqB9Rpm6KQTMKx4fpvSxG76EXzcNSNN7qFFaPT96Hh+h2FfgVaPruGR1I0R6AEjS+YsN2wIfi35uCvJD6QYEe56nUw53TGvNZFqbn/R/N37qLYzEp9gJikjPM5xKwZItlb5DTFG3+UUfxC4VpBwqSxjTND1LUFlWXjKOg/3D3OYQlpSCS5u9Bmr+JF2j+kvFHTuAbekxzmnePTNuPO0YFojA9pvCYaEw7loIDp1IQcyYVCer9MD8mFev3H0QHityG9L6oLfQm9RxktfWnEEnDxqv3j4Y9mpxu/jPhXBpi6XY1rqBj57Ge/gMYv4fiklYK1Vnt1XHzTen5n6I4Kk3z1WuUinlL0HuSd1DgV6LPU016Xx+aGYzK0/ahPIVkaXqP76R4vuNvWvZomCJjdqEwzadCYwJhovfCk3xs8ymEnLqICHrdcVmvm6YrjparrhTSKuYbqmOj54Wi5txcXBCDEYmpiD6bilh6PYes4zmcnIZ1oZagf3M1RTlFZc6g34Pme88hlKYh4nQq4s7TdFgfu/mAZQv9m6tjLEFPr4mNeKO0zN0/9wDeXB6J9psOojeF4jBaQRkRegLDQo5jCK309KcVqp9pBbDz9kNmP9+RiE/9E9COnqsZzfcXKebvU1ua1bHzti5Xp4c7JxPy15wRgkfpO6sOzd+2FOQ/7jmCX/ceRQ/NX2laf9xN00rhrlQRr3av/3TnYbSl6X6XVvpfoHlbkZY331nB5uvKczGvLk+nnrNx6EVYrtBGnxH6jjijfiRIOo9F9F39W9D1iFdb4z+mle331bX4KT6epu+QSksP4M75YSgyJ9SyVd5GzOua1LykZchvQSjKLTmAR1ZFox7N55Z7TmIGfY42xB1HZ3r9ZSToRSebLei5eNfl4l03K9pzMyvabXm7x7ySC3ijerhzcvGua4x2W3IBb5SLd10u3nW5eNc1hrstuYA3mp+YV3IBb/RmxbwjQV+QYl5ZUGJe6YqYV3IBb5SLd10u3nW5eNflAt4oF++6KubNQc/Fuy4X8LpcwBvl4l2Xi3ddLuB1uYA3ysW7LhfvukzMK03d16H83yHov3w/Ppodig9phbXZzBC8RnFXl2JbnfCuKgVYBYq3MurYe4pbdbx84R4b4EXBrrbGczFvVB0X70PhfRc9/gGKwicpVF6klfjnafwVKPCKqCjXYt6DYl7pRQF+95AgfLciFM1ppfRtmrbH6fFqd3p1vHx+Yl5ZdHgoBu8+gsXhJ80nzdt08IzZDdHH8NPCMDxEz1H0WtBToOcl5pW/b4HPgK14mMLs/QXh5jj/dIUl0pvSPK5E89WLxu/ZbyvuGBqEn+g/5H5rItB+eRTaUdi0WHQAb9DrrUUhUoGC8A6KaC91mTsbMW+00MBt8KWQ/t/InXiU5vPLtBLfecthTNl9EB8vi0Q9ish76PkL0XvqoeYj/ek7dIc58IvQ++FNj/UyR/s2c7R72DIr2HPTEPJGC/9J00ex+vSM/WiyOAIfUgB23ZqA32jl5RtaSfuUArvj2lh8SCHReFEEHqEA9qP5YKJp9LBaaNgO3EuBWZ+CRe1e//EaGp7Go3yTxlmJws5bxfmwAItqbwIK6uo0rtcXH8D79F60WBmF5uQ7NF+eo/l9N8WqpzXolSruy9ByWnd+OJrRcC0pxFqtibmm+rc6Tl5tbW9K75vaxf55mp6qFOklKYTVrvZZMZ9lIZr3RSjSi5mjPRDetKx50XAmut2T9MhSPTabu8x6kndN2Iu6ao8ZCvhPaUXysy3x+IT+bLY2xhzsJem1+1Iss9IykeUdFNwPUlS+Ta+jAz1ehbyyA/nqikgbu9yTNE/UdeVL0+usT6/7Y3qsCnllW/p7I5of96pd7u0FPU1Dll40zfdRTNZX7wmtYLeiuDdL41O2pL9/QCvW6j4V8Y3ptb5Mw9ZcFI7/0eN86H21uas9F++6XMTr0nOUoPn1FL1mdfx7c1pBb0HzKps0D7JsTjaj29Sw6vJ0z9N8qU6RXZpi2Yc+h7nHvNXZ0fiOVg777kpA5200n3cmolOgJeDb098/3HEILfwP4Q0KjDr0uVG7zN9Hy+Gd9Bwq5E1ZIe9gzF+/xnwIPEkvWp6K0TKttto/SK/7WXodr9Pr+iAgEXe7POjTMH7FfHzyw89468O2qPf+J3izy2B8OTMCUxO54cWb5fQD59jbb9RrQZ8V7LnJxbsuffbsqse7bo6QV1KMG9XDnbMgx7ySC3ijXLzr6uHOyQW8LhfwRrl41+XiXZeLd10u4HXdPeaVLol5JcV4gYh5JcX47RLzSi7gjXLxrsvFuy4X8LpcwBvNinmHgp6Ld10u4I1y8a7LxbsuF++6XMDrcgFvlIt3XSbkjRahEK9AYffc2N1ma1D8lKMovIui1JfCuAgFtjneaTjPXyjas8wW8kpLwGdTnbHeqroknTeNrzgF790Upyrwi1Jc67vaZ8V8lt4U1fdSHKqQr0FxVJIeaz/mldaI12I+y2L0/I/QOF+lFei3aGX3bVqZbUzWoxX3iiMCUKQfhbke844EPc03pbrO/P00vS9N24/GtGLdZF443pobhjo0/ntp/CroPSjo1Z9laZ4/Q1HRiKajHk1PTYqlihR1d6qt4vReeKph9Zi3EfRZqmvN30GPLzsyANUoyp6j6ahDgaC2wKuAVzFvUy7gjerhzsmEvFEvmra7KE6rUMg9OzMEry6g+UOhrQK/yZIIvEbB+hzNj8p0fwmaF8aYV6p/q8ivSvPtKYqjp2lYZS0a18NT96M0BbOX2n3eGvNKL5rvd6kt5JOC8BDNjxoUaMpq6j0ZH4SiKqQNQa9Ut91H0/AwvS9P0PifpGVE+Rg9Z03yIbq9xvRgVJqyF/dSmKqQL6q2qptDPnvMm1XPYc8cMa+8HvR+tHw8RqHVaFkk3qKAe5tsTL5IIXcfRba3iu6xNLwuvXaj6pJ0Zen1P6cOs6DYfItssibGfPx87YXhKE335Rb0d9J8e2xBGF5ZEWU+bv6N1THmvz9J8VeKHmviIj5LQ8wrPck7aB4+QBH5KD33E7QsPEnLgfIxGp8Kd3UG+xr0fFXnh6IiDVdm5n4Uo+dx+knwOOl5lIVp/pam536QpvEhmrYaNJ3XVP82+NDSCFSl2yvR/P3fvDDcScuND02z7WvOk8aYt2oiS1GgP03zuCnFQzNa0X+TQqPBhjg8vToaj9A8r0jvfUmaLz5zguE1O/j6Fvks6bntSq8rp6Fm1VZ7H3oNJem13LcsAjXXRKNEVded5X76+llo2qAafE0e9J+/BzxNJrPq7x6m4ij3ai/8sjODfazoOhfsC8AXnd7E/S1mYjpz/43qcNBz8a7LxbuuHu+croh5R4Kei3ddLt51uXjX5QLeKBfvuly863LxrssFvC4X8Ea5eNfl4l2Xi3ddV8S80iUxr6QYd3bMOxL0NyvmHQl6iXmLXLzrcvGuywW8rsNBz8W7LhfwulzAG+XiXZeLd10u3nW5gDfKxbuuFu+cnj9vgA+F9F0Uo3dSsBalQM4K+Gvxrpsj5pUU4zZiXlfFvfma8zmkENdUx8cXoagvQVHrS9NYSMX6Dca80ovGWXLQNpSnMKxIsXc/xZ4K+XLDduAOinF1vHx+Y15ZqN8W+P2xDffSuCuO3ElxH4gK9Oc99O+iatd5inkV9MoiFN9l6fbydH8ZClBfepzaIm8J+bzH/DVpvIXouXwG+6MkjVftXu9LIW3iIj5LLuCNcvGuywR8DodSlJM+9LpLUsTeQ8FZkSLxAYo99ef/KDjvpNt9aJr1mM/Si94rX5qvfhS5Jayqv/tSSKtd7Y0xn2UhGp83zWcfGibLIvQ8XnSbcet8luq2wjSM75hdKEb6UqwrLX/fRY+1PL4wWUjtRUDDWkJeSSFulIaxay4xn6U3zZu7KVQrTNuP+5UUghWn78P/KIjvoPln0kNeaQj5LD1JHxr+HgrVCjSO+2cGm72PgrP01L0oOoHCnYn5LNUx8nfSc95Dj72XLE+PVX+/i6K3yEQKdRXunFrMZ2kii9DrKkqR7UvjzVJFuy9FdZHJQeZL0hWh+9UWfZMx2m1pDHdOPdw5rTGfZSH1owm9Th+jFN2cRcjCdH8h0kSyEW+Uhuf0pigvOz8M1Simq5L3LQpHmQXh8JtLoW2NeNMsGtYshbgTY/6acynsycLzQuG7IAxFH3zYJUE/a81oPFfBG55e96B6q8HotjgKk2IyMC/qGP6c+TfeqlMBhSjuiz39K3qH8OMQXePM0R+af2Qp+u6MWxf0XLzrcvGuy8W7rr2YdyTob/eYV3IBb5SLd10u3nW5eNflAt4oF++6XLzrcvGuazfmlRTjzo55R4JeYt62roh5R4Kei3ddLt51uYDX5QLeKBfvuly863LxrmuM+VyDnot3XS7edbmA1+UC3igX77pcvOtyAa/LBbxRJt5zSDGfpYlCXcU9G/BGbzDmr+lAzBvDXYV9tpPfKfMZ81kWoqj3olAvTAGepToBXr5iXmmN+SxNv2+FFwV7YQpwsxTZhSjQjTGfpbpdba0vRCFviXijFOdG9XDnpJg36kmxrkJe/cmGvJILeF0u4I1y8a6r9hAw6EkWokAvTAHuZf1T7VLvaYh3VhXspKdm1u1c0OdQC3hWin27Zgt5JYV4XoM+R8grKcaNjrFoIgtTkJul0FZ6/b0Lng7GfJYq6tWW+sIU2kbVlvncYj5LE6nOZm+i4ZVqN/u8bJlnVT8G2JOLd10u4HW5gDeqxTzrNApxe3LxrsuEvFGvmfvhQ/FdhPSicDfNVFvi6b5sUojnNegdjHndIpUfcn7Qx+5C6+dKUMyXR60eOzGVGyZ8C5o/Q8OYiqN6t52YzQ0jusTbIui5eNfl4l33VsW8kgt4o1y863LxrsvFuy4X8LpcwBvl4l2Xi3ddLuB1uYA3ysW7LhfvuhLzFrmA13VJzCspxiXmc8oFvC4X8Ea5eNfl4l1Xj3mbQc/Fuy4X77pcvOtyAW+Ui3ddLt51uXjX5QJelwt4o4aYvyYX8Lq3IOZtegMxf03zcfK6FOQ3GPMeFPM5ZEI+mzlCXklBfoMxz8a7LhfvulzA63IBb1SLeVYu3nX1cOfkAt4oF++6XLzrOiPmlQ7GfDa5gNfVIj6HerhzaiHPygW8LhfwRrl41+XiXZeLd10u4HW5gDfKxbsuF++6WryzUsBn0xkxr8xHzCudH/SZmDi2PUp7meBb708Mi+eGsThlYif8z9sLfs/2w8C4nPfP3bMT3/Xqgcat26F+66/QrNccDNidrg2XjlFzZuLrkbPQ2z8DcwL98VX3bnjtg3Z49dN++GrJMcwzD3cGw6eMRvMOn6L+B53R9Ofp6B+kdvc3Pj4dM7euxiffdEHDlp3R5Lsx+GWL7ePM8zN98/buQbdev+BNekyDj3/Eh8M3YUyUcfjrTtu0Bp//9ANeb0nDtvkWLfouxB/79EMU8jJ+y7BfdmqAIhT0RZ7/Dl+OmIle2/RpvjHtBj0X8LpcwBvl4l3XGTGvdEXMK7mAN8rFuy4X77pcvOtyAW+Ui3ddLt51uXjX5QJelwt4o1y86+oxzwY9xfitiHmlS2JeSTHu7Jh3JOhvVsw7EvT5iXklF/BGuXjX5eJdl4t3XS7gjXLxrsvFuy4X88p8BT0X77pcvOtyAa/LBbxRLt51uXjX5eJdlwt43QIT80qKcWfHvCNBLzFvkYt3XS7edbmA1+UC3igX77pcvOtyAa/LBbxRLt51c8S8kmLc2THPBT0X77pcwBvl4l2Xi3ddLt51uYDX5QLeKBfvuly863LxrssFvFEu3nW5eNfl4l3XbswrKcadHfM3NehPoWvze+FpKolnBiVgATuM1fjDGLHhCGbluC8DYyd1R817veHpYTn+3qIJhcs1QvPpiYbxnsM37/rBw1QCz38zCM/c75PtWH3PO2qhyZS9+L7Ds/CjiLXcZxlX0Ue/RvegM9cf33Ugapen5zQ+3u9xNBgeru1BkL/pq/PTKNSrWjz7Y0xeKPXiAPSLMI7/NAb+3hoV/KzTYJhm7wpvouWsI/kcv3VY4/0efqg78qx1XM4x16Dn4l2XC3ijXLzr5oh5JcX47RLzSi7gjXLxrsvFuy4X8LpcwBvl4l2Xi3ddLt51uYDX5QLe6E2LeSXFuLNj3pGgl5i3rStiXskFvFEu3nW5eNflAl6XC3ijXLzrciGf5W0d80ou4I1y8a7LxbsuF++6roh5R4K+IMW8sqDEvNIVMe9I0HPxrsvFuy4X77pcwBvl4l2Xi3ddLt51uYDX5QLe6O0e80ou4I1y8a7LxbsuF++6XMDrcgFvlIt3XS7edbmA1+UC3igX77pcvOsWwJhXOj3o47bhvUd94FH0BbRamb8tv/M2jsbTZbzg6V0Ztb9bhKH7UjF7XzB++K4xynibUOied/DZ5qwt1VmRaoJX0Yp44stZGLgrGXNCgvF1m8fgTTHsXfoelKj4Nj4YH4yJsamYuGISXnnIlyLZD0/02oUu1scXLloMd9f7Bd+vS8LsiBj89lsLlCtCMV2yEdqtu/5a8jt93sXuQ/U2o9Bj/THMiDmBoeN74In/eVF0l8Zzg7N+/MjEuLEdUY7GU6Rqc7Smz90/URmYvT8MPfq0x4N30vj/9y465Wv8GRg1fy6+6vyKZQt9ne/x1ai56ON/k7bQc/GuywW8LhfwRiXmLXLxrsvFuy4X8LpcwBvl4l2Xi3ddLt51uYA3mp+YdyToC1LMKwtKzCtdEvNKinGJ+ZxyAa/LBbxRLuKN5inmlVzAG+XiXZeLd10u3nW5gNflAt4oF++6XLzr3qqYV7ok5pUU4wUi5pUU486OeUeCPj8xr+QC3igX77pcvOtyAa/LBbxRLt51uXjX5eJdlwt4XXePeSUX8Eb1cOfk4l2Xi3ddPd51uXjX5eJdl4t3XS7gdbmAN8rFu64e82zQU4zf5JhXOj3ooxbglTImeNzRHF/uZ+63awp6dXoUXh7euK/tUkwyXtou8QR++riG+b4KndZbt+xfD9rir47BqITrw8/bMBiP+nrAw6sc6g4/bNiqnYGRPRuhCD2mVOvp+Nz8eA8UqtgWXXdlXnu82lLe49Oa5uer2GmD9fluZPpG4y/D9KlL+vX/pjYKe3ih9MfLLMPH70LLWr7w9KuP1iuTDcMq0zGiz5sobrqB8ZO35Bh6Lt51uXjX5QJe1xUx70jQc/Guy8W7LhfwulzAG+XiXZeLd10u3nW5gNflAt4oF++6XLzrcgGv64qYV7ok5pUU4wUi5pUU486OeUeC/naPeSUX8Ea5eNfl4l2Xi3ddLuB1uYg36tSYV3IBb5SLd10u3nW5eNflAt4oF++6XLzrOiXmlRTjzo55JRfwRm9WzDsS9AUp5pXuHvNKLuCNcvGuy8W7Lhfvui6JeSXF+O0S80ou4I1y8a7LxbsuF/C6XMAb5eJdl4t3XS7edbmA1+UC3uhNi3klRXoeYl7p/KCfi5dLqqBvia8PMPfbM56C9ilfeHjXRNN5qTnunz3vR1T09kDhJ3paj7vPCtpieLRHmPV4easRM1D3Dgr6Ym/j0wBjqAPTRrayRu14dDY/3hvlP1lzLXqznLOgOx4o4gHv2n3xhzofwA1M3+O9IrNPHzllWAsUpRgv1mw2ZtK/567/A48U9UCRl0dk+3Eiy3nb/8JTvpbxD8jH+NVtNz3ouXjX5eJdl4t3XXsx70jQ3+4xr+QC3igX77pcvOty8a7LBbxRLt51uXjX5eJd127MKynGnR3zjgT9zYp5R4K+IMW80t1jXskFvFEu3nW5eNfl4l2XC3ijJ8mbGvNKLuCNcvGuy8W7LhfwulzAG+XiXVePeUeCXmLeti6JeSXFeEGIeSUX8Ea5eNfl4l2Xi3ddLuB1uYA3ysW7LhfvuvZi3pGgz0/MOxL0XLzrcvGuy8W7LhfwRrl41+XiXZeLd10u4HW5gDfKxbsuF++6XLzrcgFvND8x70jQOynmPea5IOhjVuPNB7woot/CpzuyR7RDRi1Cw7Imevy76Lwn5+MXBE3As8U84FmmA743n+wtK2j98MKwU9mHj5qFeiro72iDbyINt5PXo/Yfa9AXxzN/GLfiW1TP95x6vrKf4Af1fPmdPlMJ9lh1Pa5nTeqEu72yjm+3bX7Hb+s2Z5rnoOfiXZeLd91bFfNKLuCNcvGuy8W7LhfvulzA63IBb5SLd10u3nW5gNflAt4oF++6XLzrSsxb5AJe1yUxr6QYLwgx70jQc/Guy8W7LhfvulzA63IBb5SLd10u3nW5gNc1Bz0X77pcvOty8a7LBbxRLt51uXjX5eJdlwt4XS7gjeYn5pUFJeaVLol5JcW4s2PekaC/3WNeyQW8US7edbl41+XiXZcLeKNcvOty8a7rjJhXuiLmlVzAG+XiXZeLd10u4HW5gDfKxbsuF++6XLzrcgGvywW8US7edbl41+UCXtcVMa90Usy7JOgTotHh5WLw8H4Ib8/KuQU7u2kYszIAo8IMx3BHzcFLJaxb+MONw1oNnwa11d3zzrb4TgvaeqO1XdQNQf+tedjr5gx6P9T9izmjvf58zpw+Uo/rmWPb4g76t1elBqjb7CO8ZMuWw9A3Nu/jt3WbM80W9FzA63IBb5SLd11nxLzSFTGv5ALeKBfvuly863LxrssFvFEu3nW5eNfl4l2XC3hdLuCNcvGuq8c8G/QU47ci5pUuiXklxbizY96RoL9ZMe9I0Ocn5pVcwBvl4l2Xi3ddLt51uYA3ysW7Lhfvuly866qYdyjouXjX5eJdlwt4XS7gjXLxrsvFuy4X77pcwBstUDGvpBh3dsw7EvQS8xa5eNfl4l2XC3ijXLzrcvGuy8W7LhfwulzAG+XiXTdHzCspxiXmc8oFvC4X8Ea5eNfl4l2Xi3ddLuCNcvGuy8W7LhfvunZjXkkx7uyYdyTorTHvkqCnSB/43XMo7OGDql0DMIcdxmrMBjSp7g3PO55DiyVp1ttW4PUKXvDwfQMd/fVLtAHzto3Ak74eKHR/F/wao25zVtAXx9P9c56VP+v5vB78Fr+pgHbm9JF6XM+a2gX3eHmgyIt/YgSzy31OC3DQc/GuywW8US7edXPEvJJi/HaJeSUX8Ea5eNfl4l2XC3hdLuCNcvGuy8W7LhfvulzA63IBb/SmxbySYtzZMe9I0EvM29YVMa/kAt4oF++6XLzrcgGvywW8US7edbl4182KebtBz8W7Lhfvuly863IBr8sFvFEu3nW5eNflAl7XFTHvSNBLzNvWFTHvSNBz8a7LxbsuF/C6XMAb5eJdl4t3XS7edbmA1+UC3ujNinku6Ll41+UCXpcLeKNcvOty8a6rhzsnF/BGuXjX5eJdl4t3XS7gdbmAN8rFuy4X77q3Scy7JuiBuWv/wKN3mOBVqSO+221rt/tMjBvVFmUpXr2qd0OvrOBOiEHH+sXh6VUe9ccmaY8BJo1pi7u8TPC5doy5s4LeC/d8vCxH4E4Z2x530/Pd8dZEjFcnwHPm9JF6XM/bPhq1aN55lnoPnbXj/s2Gh6HPrB0YvueC9ceH/AT9RyhWEIKeC3hdLuCNSsxb5OJdl4t3XS7gdbmAN8rFuy4X77pcvOtyAW80PzHvSNBLzNvWJTGvpBiXmM8pF/C6XMAb5eJd1xjzNxz0XLzrcvGuy8W7LhfwRrl41+XiXZeLd91bFfPKghLzSpfEvJJi3Nkx70jQ3+4xr+QC3igX77pcvOty8a7LBbzR/w8xr+QC3igX77pcvOtyAa/LBbxRLt51uXjX5eJdlwt4XS7gjXLxrluQY16ZI+gfdnrQq7O9d2/7CAqbvFD61YHoE6Rvyc7ElKXD8aza0u11H57/I8pwMrcMjOz7Ju4wmVDs+T7oZzyxXrg/WjxbAuoa90/0Crc+xllB74FCZZqg43rDYQIRAWhdp5Q53l8ckXV8vROnj8wR3Amx6PR6GRqHLyp+OB9jjVvpE5PQ+6sXUJSe+46Go6xntM9H0I9ta74mf9G3p2KqYVhn6VDQc/GuywW8rrvHvJILeKNcvOty8a7LxbsuF/BGuXjX5eJdl4t3XS7gdV0R88qCEvNKl8S8kmLc2THvSNDf7jGv5ALeKBfvuly863LxrssFvFEu3nX1mM816LmA1+UC3igX77pcvOtyAa/LBbxRLt51uXjXdUrMKynGC0TMKynGnR3zjgT97R7zSi7gjXLxrsvFuy4X77pcwOtyAW+Ui3ddLt51uYDXdUnMKynGJeZzygW8LhfwRrl41+XiXZeLd10u4I1y8a6rxzwb9BTjNxzzSgryG4x5j3lhrgl6ckHIFrSqVw6FPEwoXLY2XvikH9r/MQVf/TEczdu8jvJ+JorQkniw7YLs0aqM8EfL50tT1Hqj1DMd0bL/ZHTp/zteeaY8vChmiz/XB79fC2lnBb0JXkV8UKTSm3jrtwno8sdAvFanIj2fF0o1HIEh5uPVrTpr+kguuGet/BNP3aOuH++Hcg2+QpsBU2h6/sR77z6Dkl4e8CxRB83nZ50AL+/jnz2rK8p5e8CrYlO0+GMSflrFnDvgBrQb9Fy863LxruuKmHck6Ll41+XiXZeLd10u4HW5gDfKxbsuF++6XMDrcgFvlIt3XS7edbl417Ub80qK8QIR80qKcWfHvCNBLzFvkYt3XS7edbmA1+UC3igX77pcvOtyAa/LBbxRLuaV/y9iXskFvFEu3nX1mHck6G9WzDsS9AUp5pUFJeaVroh5JRfwRrl41+XiXZeLd10u4I1y8a7LxbsuF++69mLekaDPT8w7EvRcvOty8a7LBbwuF/BGuXjX5eJdl4t3XS7gdbmAN8rFuy4X77pcwOtyAW80PzHvSNC7MOZdGfRmI0Lw3bctUfXeYvD0oLC+pgnFHnwNb/b3xwQ95q0uCNqIj9+rjTu9Kfytj/P0rYiHWg5D72xnl3dS0NPjX/hpHF59ogwK0e3m5ytKz9d6FPrt485m74TpI7ngVk5dPgFv1KmMItZpMWvyQckn2uCjWYmGPRryMf4DW9Dy+bIoZB6vDx74ckvu5zrIo7kGPRfvuly869qLeUeCPj8xr+QC3igX77pcvOty8a7LBbxRLt51uXjX5eJdlwt4XS7gjXLxrsvFu+6tinlHgr4gxbyyoMS80hUx70jQc/Guy8W7LhfvulzAG+XiXZeLd10u3nW5gNflYl7pkphXcgFvlIt3XS7edbl41+UCXpcLeKO3e8wrXRLzSorxAhHzSorx2yXmlVzAG+XiXZeLd10u4HW5gDfKxbsuF++6zoh5pbvHvFKPd10u3nW5eNfl4l2XC3ijXLzrcvGuy8W7Lhfwuq6IeaULY97lQZ9l7AmMXLYeP4+fh27jl6PXijhMtRHy2c3EtO2B+G3SQvwwbTOG7LzADHOjakEcfwLD5i3Fj5M34I8dZ3OcJC+7rp6+NEzc6I8eE+fTfFuB3qsPYYY6jp8dNo/GJGDQjIX4btwS9Fx3ws7rzJs2g56Ld10u3nWdEfNKV8S8kgt4o1y863LxrssFvC4X8Ea5eNfl4l2Xi3ddLuB1uYA3ysW7bkGOeaVLYl5JMV4gYl5JMe7smHck6PMT80ou4I1y8a7LxbsuF/C6XMAb5eJdl4t3XS7edbmQz/KWxLySC3ijXLzrcvGuy8W7LhfwRvMT80qXxLySYtzZMe9I0N+smHck6CXmLXLxrsvFuy4X8LpcwBvl4l03R8wrKcYLQswruYA3ysW7Lhfvuly863IBr8sFvFEu3nW5eNflAl6XC3ijXLzrcvGuy8W7rt2YV1KMF4iYV97koC/Q5r6FW8y7+Q56Lt51c8S8kmJcYj6nXMDrcgFvlIt3XS7edbl41+UC3igX77p6zLNBTzF+wzGvpBh3dsw7EvQ3K+YdCfqCFPNKd495JRfwRrl41+XiXZeLeKMFMuaVXMAb5eJdl4t3XS7gdV0R844EvcS8bV0R844EPRfvuly863IBr8sFvFEu3nW5eNfl4l2XC3hdLuCN3qyY54Kei3ddLuB1uYA3ysW7Lhfvuly863IBb5SLd10u3nW5eNflAl6XC3ijXLzrcvGue6ti3pGgtxPzEvRKCXpnywY9F/C6XMAbvd1jXskFvFEu3nW5eNfl4l2XC3hdLuCNcvGuy8W7LhfwulzAG81PzDsS9BLztnVJzCspxgtCzCu5gDfKxbsuF++6XLzrcgGvywW8US7edbmA13U46Ll41+XiXZeLd10u4I1y8a7LxbsuF++6tyrmlQUl5pUuiXklxbizY96RoL/dY17JBbxRLt51uXjX5eJdlwt4o/8fYl7JBbxRLt51uXjX5QJelwt4o1y863LxrsvFuy4X8LpcwBvl4l23IMe80k7Me8yXoJegd745gp6Ld10u4HXdPeaVXMAb5eJdl4t3XS7edbmAN8rFuy4X77pcvOtyAa/riphXFpSYV7ok5pUU486OeUeC/naPeSUX8Ea5eNfl4l2Xi3ddLuCNcvGuy8W7btIFa9BzAa/LBbxRLt51uXjX5QJelwt4o1y863LxruuUmFdSjBeImFdSjDs75h0J+ts95pVcwBvl4l2Xi3ddLt51uYDX5QLeKBfvuly863IBr+uSmFdSjEvM55QLeF0u4I1y8a7LxbsuF++6XMAb5eJdV495Nugpxm845pUU486OeQl6q+kYNWcmvh45C7399cvrifkxW9Bz8a7LxbuuK2LekaDn4l2Xi3ddLt51uYDX5QLeKBfvuly863IBr8sFvFEu3nW5eNfl4l3XbswrKcYLRMwrKcadHfOOBL3EvEUu3nW5eNflAl6XC3ijXLzrcvGuywW8LhfwRrl411Uxbw56Lt51uYA3ysW7Lhfvuly863IBr8sFvFEu3nULcsw7EvQS87Z1RcwruYA3ysW7Lhfvuly863IBb5SLd10u3nW5eNe1F/OOBP3tHvNKLuCNcvGuy8W7LhfvulzAG+XiXZeLd10u3nW5gNflAt5ofmLekaC/yTEvQS+6wmtBz8W7LhfvuvZi3pGgz0/MK7mAN8rFuy4X77pcvOtyAW+Ui3ddLt51uXjX5QJelwt4o1y863LxrnurYt6RoC9IMa8sKDGvdEXMOxL0XLzrcvGuy8W7LhfwRrl41+XiXZeLd10u4HW5gDeaFfMOBT0X8LpcwBvl4l2Xi3ddLt51uYA3ysW7rh7zjgR9QYp5ZUGJeaVLYl5JMS4xn1Mu4HW5gDfKxbsuF++6tyrmHQl6Lt51uXjX5eJdlwt4XS7gjXLxrsvFuy4X8LpcwBvl4l2Xi3ddLt51uYDXdZOYl6AXXaHDQc/Fu64zYl7p7jGv5ALeKBfvuly863LxrssFvFEu3nW5eNctyDGvdPuYV1KMOzvmHQn62z3mlVzAG+XiXZeLd10u3nW5gDdqjHm7Qc/Fuy4X8LpcwBvl4l2Xi3ddLuB1uYA3mp+YV7ok5pUU4wUi5pUU486OeUeC/naPeSUX8Ea5eNfl4l2Xi3ddLuB1uYA3ysW7rjNiXumKmFdyAW+Ui3ddLt51uXjX5QLeKBfvuly863LxrssFvC4X8Ea5eNfl4l2Xi3ddV8S80iUxrzSEvBbzEvSiK3Qo6Ll4180R80qK8YIQ80ou4I1y8a7LxbsuF++6XMDrcgFvlIt3XS7edbmA1+UC3igX77p6zLNBTzF+wzGvpBgvEDGvpBh3dsw7EvS3e8wruYA3ysW7Lhfvuly863IBr8sFvFEu3nW5eNflAl7X4aDn4l2Xi3ddLuCNcvGuy8W7LhfvulzA67oi5h0J+psV844EfUGKeaW7x7ySC3ijXLzrcvGuy8W7LhfwRrl4180R80qKcWfHPBf0XLzrcgGvywW8US7edbl41+UCXpcLeKNcvOty8a7LxbsuF/C6XMAb5eJdl4t3Xbsxr6QYd3bMOxL0+Yh5pXfFqqj1SmM0++pXUXSKtRu+De8KlfmQz5ILeKO3e8wruYA3ysW7Lhfvuly863IBb5SLd10u3nW5eNflAl6XC3ij+Yl5R4L+ZsW8I0FfkGJeWVBiXumKmFdyAW+Ui3ddLt51uXjX5QLeKBfvuly863LxrqvHvM2g5+Jdl4t3XS7gdbmAN8rFuy4X77pcvOtKzFt0ScwrKcYLQsw7EvRcvOty8a7LxbsuF/C6XMAb5eJdl4t3XS7gdbmANyoxb5GLd10u3nW5gNflAt4oF++6XLzrcvGuywW8US7edbl41y3IMa/MR8wrvStUQaVHn8Qzr78rik6x8qNPofB9D/Ahr+QC3uj/h5hXcgFvlIt3XS7edbmA1+UC3igX77pcvOty8a7LBbyuu8e80iUxr6QYLxAxr6QYv11iXskFvFEu3nW5eNflAl6XC3ijXLzrcvGuy8W8skDHvJILeKNcvOty8a57q2Je6ZKYV1KMOzvmHQn6mxXzjgR9fmJeyQW8US7edbl41+XiXZcLeKNcvOty8a7LxbsuF/C6Lol5JcV4QYh5JRfwRrl41+XiXZeLd10u4HW5gDfKxbsuF++6XMDrcgFvlIt3XT3m2aCnGL/hmFdSjN+kmFfKLveis811l3su4HVdEfOOBD0X77pcvOty8a7LBbxRLt51uXjX5eJdlwt4XS7gjXLxrsvFuy4X77quiHmlS2JeSTHu7Jh3JOhvVsw7EvQS8xa5eNfl4l2XC3hdLuCNcvGuy4V8lnkOei7edbl41+XiXZcLeF0u4I1y8a7rlJhXUow7O+YdCXqJedu6IuaVXMAb5eJdl4t3XS7gdbmAN8rFuy4X77pcvOvai3lHgv52j3klF/BGuXjX5eJdl4t3XS7gjXLxrsvFuy4X77pcwOtyAW80PzHvSNDfrJiXoBdvsjaDnot3XXsx70jQ5yfmlVzAG+XiXZeLd10u4HW5gDfKxbsuF++6XLzrcgGvywW8US7edbl417Ub80qKcWfHvCNBLzFvW1fEvCNBz8W7LhfvulzA63IBb5SLd10u3nW5eNflAl6XC3ijXMQbhSAIgiAIBYKajz8pQS86VRX0Dz1S07qECYIgCO6GBL0gCIIgFBAk6EVnK0EvCILg3kjQC4IgCEIBQYJedLYS9IIgCO6NBL0gCIIgFBAk6EVnK0EvCILg3kjQC4IgCEIBQYJedLY3GvQpKSnIyMiw/ksQBEEoaEjQC4IgCEIBQYJedLb5Cfrjx4/j77//xuuvv44iRYpg5cqV1nsEQRCEgoYEvSAIgiAUECToRWfraNCHh4ejX79+ePrpp+Hp6YmHHnoI3bt3R2BgIK5evWodShAEQShoSNALgiAIQgFBgl50traCPjMzE1u2bEHXrl1RuXJlmEwm1K1bF0OGDEFsbKx1KEEQBKGgI0EvCIIgCAUECXrR2RqD/uLFi1i4cCE++ugj3HXXXfD19UXTpk0xefJk/Pvvv+ZhBEEQhNsLCXpBEARBKCBI0IvOVgV96bL3wMPDw2yxYsVQq1Ytc9T37dsXAwcOFEVRFG/AQYMG3dI9myToBUEQBKGAIEEvOlsV9Hf43Xkt6EuXLo1HHnkEL7/8Mho1aiSKoijeoOq79bvvvrP+T37zkaAXBEEQhAKCBL3obLN2ub9y5Qo2bdqEb775Bg888AAKFSpkPmZ+8ODBiImJsS6BgiAIQl5Rezx9++231n/dfCToBUEQBKGAIEEvOltbJ8ULCwvLdlb76tWr44cffsD27dvx33//WYcSBEEQ7CFBLwiCIAiCGQl60dnaCnoj6rrz48aNw5tvvgkfHx+UKVMG7dq1w+LFi5GammodShAEQeCQoBcEQRAEwYwEvehsHQl6IyrgVci3bdvWfLx90aJFsXHjRuu9giAIgo4EvSAIgiAIZiToRWeb16A3ona99/f3x/nz5623CIIgCDoS9IIgCIIgmJGgF53tjQS9IAiCYB8JekEQBEEQzEjQi85Wgl4QBMG1SNALgiAIgmBGgl50thL0giAIrkWCXhAEQRAEMxL0orOVoBcEQXAtEvSCIAiCIJiRoBedrQS9IAiCa5GgFwRBEATBjAS96Gwl6AVBEFyLBL0gCIIgCGYk6EVnK0EvCILgWiToBUEQBEEwI0EvOlsJekEQBNciQS8IgiAIghkJetHZStALgiC4Fgl6QRAEQRDMSNCLzlaCXhAEwbVI0AuCIAiCYEaCXnS2EvSCIAiuRYJeyBfpqcm4cOECklPSkGm9LVfSU5FMw19ITkZahvU24daQmYaUZHovLiQjJc2hd08QhP8nVKvxECrWqImnGjQWRad4/0OPofKDVa1LmCAIguBsJOiFvJMRjiENi8HDwwPe1b/FmlTr7TbJQMzIN1CMhvfwqoQvlqdYb3ecjLh1mDZ1IdbvjkZSmvXG3Mg4iA0zZ2JlQAxOpVtvcwrpCF0wGP1+74fRqw/SK7ND5jFsGt8fv/8+ALODuAk/gx1TB5jvn7r9jPU215IW0BPP+NB74eGDZ3sF4vpUZeL4jjXYcSy/kU/v8/o5WLIjDufyMIrMkzuwYNZq7Dl0wbEfhxwg8/h2LFkahGOOLCvZyMShtWPp/f0dv/cbgzXxN+nXp4w4bJq3DLsOJVtvEIRbQ42HH8XTjZqi5fd9RdEpPvP6u6hStbp1CRMEQRCcjQS9YIMMJO7fh8Ncz9z0oM9Ewt9N4Weix5tK4b0Jh+yGX0bsKDT2M9E0mlC2xSQcctqG6GQs+rQcTBTDT/y8zRDDNkgPxqCXfWk6/NBq+lnrjQYyEzCmSXG6vzjeGhPvtKDNjfQ9/VDH1xL0z/TcaX0NmTi8qjvqlfFCicfbYszOU3mflrTt+K22D71HXij16OeY59APA5k4MvkDlKH31uRVGg0HB+HGf39Jw+5+dVHcZIJf5ZfwxbQD9n94uUYaAns/Bx+1rPrUwq/+ef5FwEoKln5ZFXeVKosXem63u5yk7xuAer4mmHzK4snP5yDxZiwIgsAgu9yLzlZ2uRcEQXAtEvQCy1n//nj1nhKo+fE47NE79KYH/WnMbVcOXvR4U8kmGHvQXu1k4uDYpiipfgDwKo+PZh5zYii7QdAHD8LL1qB/umeA9TUkY/+ED/FwMfUjiAe8yjyHLrMjYPetNXB2RRdU91bj9ULljvNxwqGeP4IpLcvQ/FQB/TR67shvQBs4uQifPehlfh2mEvUxaG9exumsoM/LcpKOXX2eg696TlNJvDkyMg8/QAiCc5GgF52tBL0gCIJrkaAXGE5h1XePo7gKYoqzcg17YNUhQ2Lc7KBPXoWvqnrT85ng9+ZfiLZXOxkxGP1WSXMkelfvgpVMR+cf26GWeTocW1atwIoVBpdNwOdP+dC0F0Oj3xZlv0+5fCa61VXB74s63WZguX4/uXJTGE45sfQzIoahUTH13vqgdg/j1uM0RM/7Cs/dZYl6k29VvD98h2PPnZmIqS3vtfzoUrwe+u9xLIQzj0xByzKWPSmKvTQA+25483wGwoa9Zvkxx8Mbj36zGqet9zjGLQj6lI344TG1fHvAq1wbTD9yM37WEQQeCXrR2UrQC4IguBYJeoEn9QCmtn0YvuYwMqFkrU6YGWEtdybokw8FY2dAAAJYd2Dpz/UsWyC97kOr0duYYa67c99BnLM8k5m0Ld3xuDrm21QcjYZF2N16mRE6GK8UV5HojWodJsCfeQ5H1KfDgu1QS9uZdWy6c/V56hfkuysZMuPH4K3iatw+eLz7Fi02M3FkzS94uaxlC7eHVwW0nBxnd56n7/8D9c3z3AsPdpyH4w41aSYOjnsHpdUyZiqFt8fE3PiW6aRl+LKGNY7Lf4BJcXkd480P+qQFn6CSl3o/vPHQN6uZZU4Qbh4S9KKzlaAXBEFwLRL0gm2S92HM+5XhbY36Ei8PhPm8bjmCPh1B/epYgt0JZg/YNGz/rbYlsEx34YnGH5oX2uy2x+D1WRmUCv9fnrIMf4PyIW071NKDBuOtGlVQpYrRSihr3o2d5l95/T5lZdxrPdbf797KzP1VUOP1gQjMrQjzyomJeN9PvUZvPNxtPbNbPUX9anU8fXE80nYiQtjztKUi6VAsYmJiyDDM7VwD3jTPTL7P4KeVkdbbNWOP4Kwx9NNDMLhBcZqX9LjSTTEiMJp/nNHYeJywuYNHGoIGvowS5h8ISqLBoKAcIX3heBxiufFeMxLLv69lDfrH8O2SCGaY7MYmJDHz0MGgz4jBmKalzfPAw+dJdFtmY97ZMfbgCXpGQbhxJOhFZytBLwiC4Fok6IXcObUFfRqUhc+DzTAy0Lrv+s0M+rQdlhOtMcNd1w8tppwyD555Yj46VrZuXb5B8xr0LE48hj4zPcVy6b8b9cRUtCxh2Zpe5culOMUNc+Ec4gL8EXbKcFtyMlKzNninBaDn0/beF83i72KC4UR5qf6/olZe92jwro5vbRzjkXloOj6sqN57E3ye+B7rc8zuZMxvbz1e34neyHKSsvVnmgfqveDH7aje1btiLT9bBCFPSNC7xukHzhn+nY5Rc2bi65Gz0Ns/w3B7ATDxNIZOnYnvl8Tj7yUL8M2UvZiSyAyXByXoBUEQXIsEvWCXjAR/bAq5YP1XOg5vGYpmVSy7NWftcp968iAiIyIQwXoAm/s2sB5DXwFtJ4cww1w3Mu4EsjbCpm77GU+ad7cvgWc//hW9evWy2hPd3rFsFfbwKoeOC9QW+gyE/tnIfPy0qdgL+GlJIHbv3p1v94QmIOtVX+dWBX069g98yWk/muRLeg8+nG3dDnzDQZ+ExZ2qWN6/vOj9KL7fyJXraazr9gR81NZ5rwfRfu7ha/MyJXg1luw5QUuHq4K+OxatHIu+15ZN5W9o+3wJei4v3Pfq5+hpuK/v6DWWqy5kHsSkDywne+TGmxe9H/sJmyXoBScgQe9cF+wLwBed3sT9LWZi+rXbz+Gbd/3M36n1RtP/KYbhb60ZGDu2I+4r+RJaL0/BrOX98HDJGqg/+iDmscM7pgS9IAiCa5GgFxwm/Yg/xnWpjwqGLYquPSneBazp+rA5+rzubY1pxpOFZURi5JvWE9898h3Wqp5PWoLPq6sfGrxQ4cMZOGy7jh0ndQ26PlwCxYsXv6avt2UXeS+fYtluL/VSP+zRT+qWmYgVg7vi66+74e/t3Iw6hQ0jv6P7v8OIDUm3ZdB7V3kXPf4ajdGjOUegy0sqbOnxhqDPCBuGRiUtewmUe70bRrCPzXIU+rWpad0N/gl035rzZ5Rk/154wXzoghfKNxt//cSJGREY/XYZeHnfi2fa9MaE+fMxb+5czLXpHAz7+CHLDw3e1dB68GxmmOzOXxmA9f0df298n++DXbScnN3wA54wf5a8cO8bP2PCtGmYlhen9EPzBy0/rPnU/g3OuECAIEjQO9eZoz80n4um6LszDEGfij49O+Cl9zui3YLUbMPfSudtn4y69xVD5c83YJr5trPo/UUtFCnfEl/ewJ4EEvSCIAiuRYJesE96IraM+QIvV/DJsXXTpUF/cj46VlK7UHuhSucl2c5WnhbQE8/4UgyZ/NBwSAjlbip296tnvla9yfdp9PBnniNlOb57qqr5uPRHOkx37MRtKavQxXoJNHtaQi0Th3csxHQuwPLozLUHru2pAEr9Y5vGo//vv+P3G7VvV7xt3cPCp2YL/MwNw9lvIOZknYbeEPQ+T/dEgM2YNGwVvxb0Z7Dqa8sPNaZiz6N3gL0FKANhg617ePjUxm96uabtxeBX7zI/h6n0a/gzOOv+TBxf8Cmqmi+lZ0Kx2j9hwxnrXTbJz0nxMhA9rQsav/YaXrtmI9SqYNn9v2T1OmhkuK9xp4kIT95P01zKMs1+L6JfYD42r6duQLeHLe+jbx3mxyRByAeOBz1FaY+PUOfdP9A7lrtfVPJBXwBNPIyuzSujcLmP8M3uzGu3L9g9Cy+V90HZ5rPxTz53vZegFwRBcC0S9EIupCB2zTB8Wqe89cR4pKkUHnv/S3zwhHXrrMuCPgOxfze1nAHd52n8lm3r9hks+7KaZct9hY8xiyIxI3o8mpWzxH+F1tOQwMV68gJ0KKu2iHqg+Dv/OLYFP/MEQjatwZo1FleOaY8a5kD0RvW2o7HSertyrX8kTVkq1nezbuG9QR2exrySEYnhjSznQCjWcCgO5OfU8jcQ9Gn7h6KR+dJ4XqjUfi6u7YVvk3QEZ+2d4Ps8+qjN29dIRuDAhtfOlN9gwK7rP4Jc2IKfny5miWbfJ9FtjeU8C7njpLPcpwWi17Nq/nCHZmQg6p/3UE6d2d7kg8e/W2P4sSoVh2PimUM9GFJW46sqlh+bfBsMRmh+3kdB0HA86JPR9f1S8LyjDb6N4u7Pn3P37MR3vXqgcet2qN/6KzTrNQcDdqdrwxmPQU/HzK2r8ck3XdCwZWc0+W4MftliPF79utPou/zzn37A6y3boUGbb9Gi70L8sU/f8mwd96iNGBURge49uqFhqy/xXq9F+DMkK3TTMGHlEnTu3h1vtmmHl95vj9c+7Y1PJuzD5GvRaxnPl50aoAh9PxV5/jt8OWImem1TryX3Y+jzPg8yMG/vHnTr9QvepMc0+PhHfDh8E8bk4X2ZteAXPFjUB/d33oiZ2e5LRu/PH0fhorXQbEGK4XbHlaAXBEFwLRL0AsuZ0AX4vXUtlPGyBLB5S+MjzdBrQRjOpXPXoU/Bof3b4e/vz7gNi7u/aAkyr/JoOXITM4zF7fsPWYIsdQd6PutLMWbCXY1HIdIQK5mHJqPlPWq6fPBk9y2UdBmIGPce7qNpNZVogEF7bURYfoI+GxkIH9oQxcw/btg6ht4Q9F5l8dgrjdG4cR588zlUth7S4LKgzzyOCc3UcfsU48/0xM78NGt+g/5wDCa2uM9yvfq7GmHofkc2K6uTLta1Bv2L6G+4WP2ZzT3wgvkEf2pZbIsxa9Zj7ZpVWL50Eab+0AClzKHvg8e+XomTDs1L5wR9RuwoNDZfxi/ncpIRNxWtzXueqGn+DAsMh5JkHpuJj+4rhvJPv4+uI9bgYG6RnrIUnc0nAfRAsddHXD/MQBBugFsX9BkYO6k7at7rDU/1+bumCYXLNULz6YlYcG3Y68egP991IGqXp8eYTGbVYzz9HkeD4eGYfW340xj4e2tUMB+WQ/ebh7WM27vCm2g560jOcRdrhPrNHkJh83D0GN96aLOGojoxET9/+TJKmQ+9Mo6LNBVHhVazMTbBMB51+zX9UHfk2ev35TiGPn/zoM5Po1CvavHsjzF5odSLA9AvImv4XEw8Tu9lBRQq8hw+WJ6W4/45y3ujWhEv3P3+bEzMx1Z6CXpBEATXIkF/W5KOYzvnYOjPXfDpJ53wba8xWBZqd19ix8g8jFW9GqOadcVHafKrgaa/zkVw1lMw16E33nYjFms4BOEZmTg2px0eUFswvaui85JTSI+Zi5/bqkvUtcUXXdqjwYN+8CrVGH9dK/0URC3pjc/7Gbd2atxo0GfGYczb1uPBHQl63/oYHJrH/aBv+EcHR0jG3LaWS6V5P/Qd1uVjb+/8Bv2Y5b9dO1SiTq/tdK8jpF+P7GINaJ5mvefpCB5k79h1WmF/+AsscezC+IQzgp6W3ykfWPYayLGcpGHPoAa4S91Hy3b7OYcM503IQPiwRpbL7qlzAbSaZjl5ni2My0qTsfxeKYKQR25V0M/bOBpPl/GCp3dl1P5uEYbuS8XsfcH44bvGKEPxXOied/DZ5qyt2VmxTKFbtBjurvcLvl+XhNkRMfjttxYoV4Qiu2QjtFuntmpnYtzYjihH4yhStTlaj9+Df6IyMHt/GHr0aY8H76Rx/+9ddMoxbor1Es+h8dgwTAkOw4/DlmIUhfrUqV1Q3tsDhco0RLMJwZgYm4l5B+LQd1BHPKAuUVr0ebRcqZ43A6Pmz8VXnV+xbKGv8z2+GjUXffzVfXzQ53ceeBe7D9XbjEKP9ccwI+YEho7vgSf+50XjL43nBicYfgTgXbB7Ml64m+blo7+gXxwzTNxWvPeIDzzvboEvDbvjO6oEvSAIgmuRoL/tOAX/wU2ubcXN0lTiMbSdFHJ9d+N8k47QEW+ijIoKUzE8+Nr3mLbnVPaTtbk66FP2Y1B9dX1yE/zqD8JeauL03b/jBV81jCWQUlMPYee2EOg/Y2SmnsOZ06dxmvPYDLS9FkCjEHmKGcbqmXOp2V8zkZkwHu+ZdxXPmo5NiFg1D5uz7TNuDPqX0C8wiR2/TY3T6LKgT8Xqr6uap9F0T0cszM8FzPO7hf5IGg5vGYXPWvfCenrz0uLXYPqyCOaHESNp2P5bbWvQN8Jww+4aaTt+w9PGS9+ZTPDxK4Hi1q1n6jJ3ny04Yngvafme2QNdvvwSX7J+gTYvlreced7rXtRp9QUzzHW//mMl8x6dwMwP773+w0/XfzDhr8WIy/ptJ/MUdk/sgg+6Lcr+2ORN+Ml6KIvN80AYuTAbH5pPLOgBv/cn0bMKwo1jM+gTotF71DR8PSLLSWhapzg8feujyVDj7Vm7lWuPz9UU9Or0KH3uvHFf26WYZNwKnHgCP31cw3xfhU7rMct8+/XoLlSxLbruMkbmafT4tKZ5+IqdNmBW/C60rOULT7/6aL1SP6N8Okb0eRPFTdy4vXD3B3MxRRv+j98/xMMPV8Wj3QIwx3hfYgI+fbW4OaLrj73+PPwx9FzQ53cemFD81dH4y7xXQJZp6P9NbRSm11D642XW4W07dWw7lDJ54a5WizCDuV891/cty6GQqRwa/H2GuT93JegFQRBciwT9bUbS8i542MZ1q00l6qLPjhtPeqTsQN+3G6HLP9txnNuNlwt6iq6k+AgELhqN8SuC2cvROWJkfBKNKROng+ei5/uN8PXik+YY04OeD0DnXQ/fsqeAdbRmMhAz5m3zJfEsw3ihwnN18XBxWsF6ZxT2XZvtt8Ex9Ob5ZN2FvXgTjMnPpt0bOimeIgOH1vRFkyq+MJWqi183aj8aZSMN27o/YQn64o0xKs4wZMYh7NmwGdv3hCAq/hhOJafh5Kpv8bjaC4BWfqu2n6tt5Xbe+6PMuZxQrx+fgQ/vtewKb17ZLuEHb1MpvPDDShgv1JCdTBya2hLl1V4patlqY2frvOLUVHzgZ3mOEq1nQF3oQRBuFJtBHzUL9e64vuzbNmu3cu3xuami+ylfeHjXRNN5Oc/6Pnvej6jo7YHCT/TEQPMW5KyY9Ub5T9bkCNY5C7rjgSL0/1Ptvui/6g88UtQDRV4eYd7CbhxOOW/7X3iK/m9R4x6QbdzF8ETvKAcv15aJGTv90eoltdu7H1786/ox/A4Hfb7nQTE83isyx3ROGdYCRem7oViz2dox8bppGND1GYp/XzzyczDmssOk48/uL9H3pg+qdtV+yHBACXpBEATXIkF/O5F5AtNaWeOIlQLmq9VO2EpvBy7oM49g3YD38JAfBcxTXbAk0V6N5I1bHvQZBzCskR9MXuVQ5UG12703HnixPh5Vx0mb/FDr2+XWk7sZgtHkBZ9i1y9r55i+105AyAZ92k70qVOKeZxjlnlvHIViJo5NeA/F1TT6PIOetmvcNjcc9BSw8z/FQ+Yfp0zwrtYW02O4X48Uqdjw/SOWeVq8KcblsmxlJq1G1ycs517wfugzLMgxbBq2D2yCZ2vXRm0n+Hz7icg+2fS6Jrxv3d1e6YV7atTAvSrUve7Bq79vwSlu8lN3ovfz1hP4lXgZA4PsvyeZh//BO8XVc5hQpt08Bw9fEITcsb2FPhZ9xs7Ct6OynIZ36qot9A3QdLjx9qzdyrXH52bUIjRUeyYVexed9+TcpXtB0AQ8W8wDnmU64Hvz7v1ZMVscz/xxOMcu5Wr459TwZT/BN6M74W7zD2W5m3Pcfqg7wsbW6NhD6D92FFp2/hwvvdEI1auVg8+1881k/0HD4aDP7zygcXA/oDh+dv0U/NC6nPmHiOeHnmTutzhx6PsoSt9npVovtrvFX1eCXhAEwbVI0N9OpO9Bvzq+11ZAOIs3HQcntzRDOs4eS0B8fDwSEk9RbilSETy6Ke6zbmEs9+YQBDpxk2Geg967CloNmYeFCxded25PvFHKstLl++J3mGq8z3z/ALxvvtRYzqBPC+yD531N5rPqf9la7U5N09F9PXaPec9yrL9XZbScGEFT4OJj6A0hnR+LNxljPtY6ZWlnVDBP9334bEk+fgIyTId31Q/Qb+JkTJ7MOQHdGua8Dr2ZzCSs+b42ipvj1wtlGw3GLvb07qlY843lqgYefs0w0da+5ZnHsLTLY+aVWJPvY/hq+fFctvq7iIww/NmIXq93BdSoVtK6nCzB4m9rWy6p6F0JzUbv1eI7E4dntbUsRx7eeOTrVVDn4z8bthgDO7ZCTxtn58+MG4U3aQXfvEW/0xLX/5An/L/glhxDHzUHL6mTW97REl+HM/eHT0PdOyhm72yL7/ToNmwN54bvMqwt7qDPnlelBqjb7CO8ZMuWw9DXfPk9JrYNztuxEG89fQ8Kmb+36Dm8S6L0w/Xx3Ifd0eCZYuYwzl/Q53Me2JhOx4Oe3sdmJS17Foy6wNxvcfpfra1b/OfY2eKfUwl6QRAE1yJBfzuReRBj3vazxBGrCfe2n3dju95SFAWtWYolS5bkw4noWrcUTCYflHumDfpO4Yax79L1IUjSSizPQe/zOLpv1YayF8upa/Btdct1vbMH/Wks/UIFpRfKtZ2KaZ+Us4Samo7Mk1jz47OWWCvzOoYHX3Bt0GfEYeng7vjhhx9y2OXtGpbnNZXEM626scN0H7vFfNLA9KB+qGuen8Xw5l+xsLVt3Cb5+WFBD3rF2W3oWcca/KbiqNVtFU7kqPAULP+yEszHtfu1xDT2/I+ZiJ/dDtXUsfM0nto/rDNH8c0meUt3POmjfuT4DN0+ur6cpKaGYMx7Fc2vwVTsUXScFUNLq5Vkf/R4Ru1VQNFRsTWmxdMMSA/BsEbq2vq0Av10d2w6ax3WQMaBoWhoDfqqX6+2/rAmCDfGLQn6mBV4Xf2Y6vsGOjKXcZu3bQSepO+rQvd3wa8x6rasoC+Op/vnPOlb1vBeD36Ln/7pgnu8PFDkxT8xgtnlPqe5hHLiEXzzfkWKeW/c0/BXfDVrH8ZFZE3vCXzRWE1TPoM+v/PghoM+BT+1uQ+FaLqfG3qCud/ixCHN4EPfNXe3WSJb6AVBEAoYEvS3FRmIGtPEcsI6FTe6XpXRcd4NbpVMWYUuD2Yd/3tr9HnqF+gnF7+VQZ8R9w/eK0OP86qAdnMPYeGnhqBXA6TsxfC3KuLhjyYjPNWwhd7naXwzayM2b97suOsG4527cplGm1DQjnnLshu9I1vdz8zGR6XV83ihSn4O03BW0BPJAf3wsnXPCZN3NbSbfVD7gSEFi8zznO4v+RHmMPuWp+wbgSbl1XJrQok6v2ErE8AuJzMR01qrS/J5o2qXxZhl/OHHfPdifFGTwt2rDOr9utb6w0UGose9i3vUZ9pUGq8PD7kW+im7B6GhWhZMFAi9c14RIH1ff7xo/kx449EfNkrQC07hlgR9Qgw61i8OT6/yqD82Kcf9k8a0xV1eJvhcOw4+K+i9cM/Hy3IE65Sx7XE3DX/HWxPx99bRqHWHCZ6l3kPnAOYM7eFh6DNrB4bvuWD9YSCXUI5ZjIb3qOh+Ex23a9Ed549mNdV3oh/qDD917faZoz8yX+rUbtDndx7ccNCnY1C35+n/LF889NNem8fQD/npRfMw1b/fbWMY20rQC4IguBYJ+tuN1BCMa1EFPnrU03/qT34xH/F53tSqIUFvvv960J+lQH/cPL+9HvwcS8/SipMe9ETm8QQkmqv4Vp0UL49Br4L8GUuQF3tzFIznmXMIQ9D71PoJ646cwIkTnIcw7UPLJfJsBb0K9sD+9a+dcNCrQjOMO2Dcs0FdZk9traagL9sBC7SyzTy8HF2ftuy5YrqrPvoF0ACZqUiK3YdtK+di0sj++Pmr9mj55QSEqdFmnEZ8eChCQ2/MsIOnsv3wkOzfw3JJPp8n0H0LrdAzy8lZ/2H4buB66/kWaDKPLcBn1dQyZ4Jfnd7Yke21pWLvkEbmH/BMpV7BoD3Zkz1tZ088Yz7Dvw9q9dhu4zMhCHnD8aBPRd+e7fDi+0PQ27yr+o2YgZF938QdJhOKPd8H/Q4Y7gv3R4tnS8DTVBJP9Aq3nvwtK+jV5eOaoON6w0nkIgLQuk4pcxi/OOIwFiTEotPrZejxvqj44XzrNeKtJiah91cvoCg97x0NR1nPFJ9b0C/Bq+qEl0Xr46P1xvMEpGL4Hx+grPmwmezH9c8c29a8B1fRt6di6rXhuefI5zy44aAHpv3zifkHkJLN5xqm0egZfPf+PTRPK6Dh+Dye8JCUoBcEQXAtEvS3I6kxWDn4c7z93EOoVPFBPPZSC3T7exuO3GjMm0nDuaSTTJjZ9njUCvzWsJxll2izXniw4yxEM8M64slTF67vjmzlVgV9RvgIvGHeYu6Nmt9voLTkg/46xpPiFce9VWqgRg2D1e6zhKvJD+WqaveZrYhS1pMruTTocQozP7ScrM7rgc5Yyh67ngvGoM/XSfE0knegb72sa/x74Z43R2D/tXGexbSWlpV3rwqdkO2lZRzAmKb3Wpc9E3wqPY0GLzyGSqUtu7Crx2TpSyvJu9SCdXIympvPDn9jZnt/MiJpOu6h56SV8Rf7Y2+6veVEcQbrv3/SvNJt8n0C3dapgyE0UnZjYINS5vGWoXkSavhgpG35CY95q2nxRZ1+e3J8ZgQhPzge9E42wh8tny9N0eqNUs90RMv+k9Gl/+945Zny8KLILf5cH/x+LXKzgt4EryI+KFLpTbz12wR0+WMgXqtTkYb3QqmGIzDE+kPDrJV/4im1ZV197zb4Cm0GTKFh/8R77z6DkhThniXqoPn8rFDNJZTVLvfNKqAQfUf5PdGWpnEKvvpjGJq9Xwd3Fy2DUmV94alt6Z49qyvK0efUq2JTtPhjEn5apY75t/Ec+ZkHTgj6BUHTULc0zcvq36MX9+NM7AY0of8bPcu0wdd75Tr0giAIBQ0JeuGGSItbiu4NLEFl8q6MJh83Np/cy1TyFfyx12blXSf1IDbPXYUDdga9VUF/cvbHKGd+PY0wzLzJ3l6oZSBm5WgMGjAAA2jlbevx7E+Svn8gXqLXYSrzEWZzx4Knh2LhnwMxgB4/eOauPJwPIa9Bn4HwIa+gmHle1UaP7Q68V0acHfTEua2/4ll11QBaSS9Rsy2mRFh/oco8hgnvFTc/l1eVr7DK+NIyEzC2SW7nlaB5bfJBqYoP4dmPx1n2unBB0Cct+gwPqq1zXuXwweQEejfsLSeZOLz0azxlfr3eeOjzJdAWlWskb++Nun40nFcFtJwUd22vgNQ136K6OeiL4ZXBYdn2FhCE/HLLgp5cELQRH79XG3eqc2FYP2eevhXxUMth6J3tzO/XY/aFn8bh1SfKXD9JXVEavvUo9NuXPTynLp+AN+pURhHrcGbpu6HkE23w0axEw2Xfcg/leTsWocnz96HwtfGYUPjeF/HqwB0YPvIjlPEyoWi9YRietSfAgS0U6WVRyDysDx74cgvm5PIc+ZkHNxr0i44m4fuWD6BQkSfx3gLmknkLfkalIl4o23qhdl1+x5SgFwRBcC0S9EI+ycDhDX+gWXXrpba8K+LtoTtwJi0Ew19Xu1h74Z63R1l2ceZIS8S2CT/h3Zp3weR1L979OyrXILllu9yfXY4vq/qi6mcLrcc82wu13Dk5ow3K0kpWsQaDEerUAstr0NPLXfcdHlJBaCqG10dE5y0IXRD0lMVY1fVF1Pt8AgKNZ0XMjMOoN62XSXy4GzZk2/M8Ddt71EaxEuVQ/al6eL3ZR+jU9Vf0GzYO0xaswpbdB3DojDZx14LehBJvD8Ba7lwGtrRxjoO0ALX7uwk+T3bHZvNu87ktJxmIX9INdctaDm0xedfAuz/2Q7++vdGzxy/o/mM3fPdNF3zZ+TN0bPcx2rR8G0+bzw9Ar7/aZ1hgnYcpSzpZrlSQ3xMbCgLDrQx6i5mYtj0Qv01aiB+mbcaQndyZ17WYjT+BYfOW4sfJG/DHjrPQT5J33TRM3OiPHhPno9v4Fei9+hBmJHLD2THxDEYtWYMfxy1E97l7Mc7eOQRiEjBoxkJ8N24Jeq47kcv0ZenIPHCus5b0RNWi3riv4xrtB4Bz6NHxIXj5Po8PluaMfUeUoBcEQXAtEvRC3kmJxtLeTVGtmCVsTL7V0OKvQGRtcFYnOXupJN1nKoNXB+5Etr25Uw9h2+Rf0OLJMvAybCnxrtEFK5g9jrO4dcfQJ2ND768xPiorl/hQy4jfjJkTJmBCrv6Nn16/B14eXqj0bk+MY4fJ6cS523Ektw42k/egx+l5aG89kVzJpmNtH0efeRwhO8ORZCxGlwQ9kZlBr0QjIwyDG1iC3ufJn7FNe67MlGSk2J0/BgxBX+rjOTSFecDWMpQegj9eqY6PZx6yTn9uQZ+JY3PaWS9Tl0dNvnii21rzlQqS57a1Xu++ON4dfyTnfBOEfHDrg94Rc986LebDxMPo2uJBFC77Ab7ceX1PgAUBk/BCWR/8r+U8jM/Pjx+kBL0gCIJrkaAX8kAqDq4dhvbPlL0W415lXsBXcyK0M2wnY9cf1pN5FXsMn86ORtq5KKwZ3RVNHlHHA2fFiRfueuQNdOo/A/7xuWfVrQt6IsMYmXyopaz+ClXyE2gOyJ0kMCf5CPrME5jWuqz5/TCVeAujY2xs401Zgk4VvFHiwbpo0XOJ+Tr2Lgt6jrRA9H7O+lzP9UbgjR4s7oqgRwaiNm/B9VmYW9ATqdvR03qpOg+TCd7F70K5StVRs9bzeOnVN/FOizZo99kX+KZbd/zWdwCGjBiDEV1eMp9/weRXF30CknFq6gfwU4/38EOr6bfitP6COyJB///XeVsn4IVyxVD5i43WrfTn0PvzJ1Gk/Af4YlvOS+k5qgS9IAiCa5GgFxwgA0n75qJPq6fMxwdmhabaMthkbNYWSY30KEz9sJr57PAmv0qo/kBxS7yQJu+yeLzptxi+ZD9O2mhIHdtBn4Lo5eMwL1hV3o0H/ddVmaDPBh9qaf6D8X6Dl/Hyy7lYrybKXTsukiLu3kfxIjec5isfjcI+uxHrQNBnXMCRAzuxfl2Q9SzrmUic2NyylddUHC8P3EdzMCcZsX/hTfP1zimAW05DkrrxZgZ96kZ8/6jlffF9eRDMb3WeycCZ2J3YceAMMl0S9Dp2gp7m/anoIOw9cBDHz6bynyGdU8vwZY2yqPXxEKyNT0HC2CaW99tUFh3m5+lVCIJNJOj/P5uB0X+1Rbm7G+DDlamYvXIgHi1VDS+NjDWcYyDvStALgiC4Fgl6IRdScch/Gnp99DzK+1wP0eJ+WXHuhxZTTlmHZTizHYPfVNflVsOSXmXw/KfDsGR/Up6P92WD/sw+TOtaH/f5VsVXq1XA3ljQpwUPxivmk5TR/Y1tXcrNXqjZ4iwCBjYyX9bI5FMDrzR8CL7Fa6LdpODshyTkG2PQ34tWf23AyrkTMaL/z/iqQwu8UfcxPFDKx/y++dT69foW/5Nz0aGi9fjsKp9h0Unr7QZS13yDauaTr/ngmZ4Bltd8M4Ne7SFwn2Uai702AtEOLjzJh/dh7ay/0KtLKzR6ojyKmYqj8ag4ZBSIoM8PmTh+MMG6vGQgdHADy7Lu9SC6rHRgjwxBcIDbI+jTMWrOTHw9chZ6++d/y7HImHgaQ6bOxA9LEvD3koX4ZspeTMnnrvZZStALgiC4Fgl6IQeZZyKwblJvdHilivn6uSpelKZSNfF+z3nYNbENSphvzz3oU5OScC5pO/5890HrdfNNKF79bXSftgsn8lj02YN+MxK2jkTbWpZrk3uYSqPtXJU5eQn60Vg6+mt07tQJncjP2jdH3UqWE/yZzzrebb12GEEW+Qi1zGPYPKgpKqut8yZf1OyyBEfObMfARvfCy/s+vPLjPBzIY9WnnTmEA7u3YNWCafh7WD/88u1n+OCFCoZLB9o2+27ryVjfrab1Mnt+eO7nTebjs6+TgchhjSxnwzfdi3bzrLt2G4Le694X8MFnlvmY08/wdk3rfM1n0GcmjEWT4pZpL/7ueBvnE0hDUtR2LJs2Aj2//giNn6uCUoazRFssjmYTjheQLfQ3SirWdq1ued98nkHPnc5/BuH/J7dH0Iu3kxL0giAIrkWCXshGsn8/1C/rbQ1bi6biVdCoy0isibGkT/LsD20GffrJEKya0BefN62Fik/+iE2qilMiMf+HBiifFVgmH5R/rg1+m7geUWcdC7y0rd3xhI96Ti/cU/NJPJh1Qj6fimjwzUTrWdHzEvRjsaF/Pcuw2TTBq8I7GBNqa7/uvIRaJk7tn4ue79Sw/DBi8kbld0dgl/VadJnH16Kn+ZJ/XijzdFsMXhGZ62Xqkpb9irfr1UKNCqWsP5A4psm7BO57+Fk0bNoGn33XE4On78BJw2zPiJ2A5uWsZ1z3fRxfLDpk2IMiCTPaWI6z9yjWCMOzTg5oCHqHzVfQZyJufDPzlQHUe1O67dxsezSc8f8b337UGM9VLc3PE5rnd1V7AU3adUO/MfMQkEjvqzsEfep2/PaMZf6bSryHCfbPmigIDiFBLzpbCXpBEATXIkEvZCczAbPbVYU3xY53mcfxTrcxWBOdffPxhVnGLfRJSD4UiCXj+uCL915AJXW9bGtMedf8EZuvbeZOQdSSPmj2SAnDjwUm+JR9DK936I5h09cg6NAFG8cSp1Gov4hixmAzeaHssx0xclOi4bjvvO1yf3DbUHzYpDHeeL0RGr3aCK+/3QIdfxyBZbluLncg1DLPImrDJPRq+yIq+lrnh1cZPPf5VARro848HYC/Wj1iDX4/VHv1M/SfuQ1xF3LOiTT/X/GU+UcNTpqXpSqi5guvoVnbL/Fjn6EYN2MJNuyKwJEL9naHSEXQYMtJDNW4TCWfwmeT95mvWpAeMRpNylheQ7YzzBuC3uR7F8o/8AAesOE9fl6W95wL+pQEBAfuw4G4w0i6kJb9/U8/if0LfsVrFSw/Nnh4+OKlQcGG95smY9vP1h96sjTB955H8UrLLug1ajbW7T9CS57GtaC/MV0W9GnHEBUaibjEEzitzxN1LoDoTRj32TPmE+Sp11ss3+cVEIScPPTwo6hQ7RG0+uF3UXSK9z/0GKpUrW5dwgRBEARnI0Ev5CAjfgXGjFmC4GzXKcsiE4f+bmo5VtvDC+Wq1UDZa8fXWzX5oOyjr+LjnosMZ/22cjYMiwa0Q90K1jN8GzSZiqPcI3XRaqg/jOfszkychlbW63CbhyteA017LUYks2k1/dwJHDl8GIePnMBZvaIc3rqaG3yopRwLxeYF/6B/19Z45aHS8L7244MJJR95F7/NC7O99T3jGLaObIeny1jDlx7jXeYRNGzVBT1HTMXiDbsRd4Ym9txifFbBG8XKVkWt+k3Q+rNu6DV4LKYv2YBdkceQnK/XYyU9ClNaV7k+3aYSqPpCIzz3YNZhCF6o0mXF9a3ZzjqG/oJ6Tdb31mSCl68fSpW5B+XKl0MZP21PkdKN8dcBbYFKWYNvaX5XqfMeOv32F+ZsDMMJe/Vc0IP+3AJ0tO4xoZYFL5/iKFm6LO4tXx73li6e7XKP6nwJzcbLNegF5zH0z2F4tdHraPTaG27jq6+9jqLF7jBHJXe/M2z4aiMU8SmKRx97nL3//7NqeRr0x2DrEiYIgiA4Gwl6IW9kHsectsyx2hTjFZ55B5/3/htLAg9dDz8bZJ45gFVjf8ZH9auh1LUz55vgU6M9Zh/U8+Q0tvR+GaUp+Eo/+xn+CThpY0u+HVwU9Bkx/6DZvdd/cLDMD2/c89R76DZmLaxHKtglJXolhn5WH5WshxNYpHny0CeYa75WXCqSjp2ycWy/Ezi7G2PbPILixmC0avJ5DN+vN+xe4Kygz4jCiNcs15jPTZNfTbSdHMa89nScO2Nrzw4bGHa5L/7K95g0bRqmOerkn9CopCPL0A0EfUYEhjWyP088vErj2S7zECc1Lwi5MmPGDPNnplSpUsjMzNcXv10GDx5sfo6aNWXXckEQBOHmIkEv5JFU7B/xNsqbr7luQsnqr6LDb2OxdO+xvEXLNdQuxNswf8zv6NquIwassxHr6dGYO2gkNp+4gZUxl22hT0PQoAYoqY7Xrv4SPvh6AKauj4TaqJ4fzkasxt+/fIT6VUvCy+dRdFl2In8/YOSHjGPw/7sLXqtOz20Ne5PPA3ij34Zsx90jPQR/d2iEhg0bolGHvxFic5fvVKzv2wSv0nAN3/gRi83XvDOSig2/N0XDVxqgQf36qP/yy3jppXqo9+KLePGlBnitaSt0+nkkFgefct48KPDH0KdiU793LPPM6KuvotHrb+HdVh3xTc8RmOOfkPNwAkEQsnH58mXzoT89e/bE3XffjfHjx1vvcR7nzp0z/1gwZMgQFC1aFKtWrbLeIwiCIAiuR4JeyDsZBzH3hw74acJWJLhsc7ELSFmN7vWexBNPPIFnPp+D/P02kIFDO5dh0cJFWLPP8OPDhVjs3ZeYtzi0R+YZxOyPwimnlWweSE9C1M4NWLl8DXbEnLl5PyjcDNJi4b9kIRbSe7hkR3zedlfPOISApYvosQuxZGsMs8dAFjaWE0EQbiojRoxAhQoVkJ6ejlGjRqFcuXJIS8vfz8+2+PHHH83/r1y9ehXdu3c3b6X/77//rPcKgiAIgmuRoBcEQRAEwe1ITk5G6dKlMXnyZPO/MzIy8OCDD2LAgAHmfzuDo0ePmrfKr1271vzvCxcu4K677jIfoiMIgiAINwMJekEQBEEQ3I4ePXrgkUceyba1fO7cuShRogTOnFHX8bhxOnbsiAYNGlj/ZeHPP/9ExYoVzXsFCIIgCIKrkaAXBEEQBMGtOHnyJIoVK4bly5dbb7GgdouvXbs2unbtar0l/0RGRsLLywt79uyx3mJBHbd///33Y+jQodZbBEEQBMF1SNALgiAIguBWdO7cGS+++KL1X9nZtGkTihQpgsTEROst+aNp06Zo3ry59V/ZmT59unnX+/Pnz1tvEQRBEATXIEEvCIIgCILbEBMTg8KFC2Pnzp3WW3Ly2muvmVeA8ktAQID5OWJjY623ZEftCfD444+bT5InCIIgCK5Egl4QBEEQBLfh/fffN289z42QkBDz7vLqz/xQt25d814AubF69WrzCfOOHTtmvUUQBEEQnI8EvSAIgiAIboE6nl2Fujq+3R5t2rTB66+/bv2X46jj8tXx+eo4fXvUr1/ffOI8QRAEQXAVEvSCIAiCILgFeQnoQ4cOmY+l37x5s/UW+6gz5qsz56sz6DtC1g8MERER1lsEQRAEwblI0AuCIAiCcNuzZs2aPO/irlaA1FnvHWXKlCm4++67zde4dxR14rwmTZpY/yUIgiAIzkWCXhAEQRCE25qsk9D99NNP1lsc4/Tp0+br0s+bN896i23UdeUrVKiA4cOHW29xjLi4OPMJ9Hbs2GG9RRAEQRCchwS9IAiCIAi3NTNmzECpUqXydZm4/v37o0qVKrhy5Yr1Fp4hQ4bggQceMF9nPq988cUXeOGFF6z/EgRBEATnIUEvCIIgCMJtS2ZmJjw8PODn54c+ffrkWXVpOfX4MWPGWMeYE7WLvRqmWrVq7Djs+eWXX5ofv2zZMusYBUEQBME5SNALgiAIgnDbok5U17hxY7z66qt46623WNXWe3WsPHef8tlnn8XChQutY8yJ2vKvTrinnod7vFKd+b5OnTrsfUr1HHk5AZ8gCIIgOIIEvSAIgiAIbo3asj5nzhzrv1zDHXfcgW3btln/JQiCIAg3Bwl6QRAEQRDcGgl6QRAEwV2RoBcEQRAEwa2RoBcEQRDcFQl6QRAEQRDcGgl6QRAEwV2RoBcEQRAEwa2RoBcEQRDcFQl6QRAEQRDcGgl6QRAEwV2RoBcEQRAEwa2RoBcEQRDcFQl6QRAEQRDcGgl6QRAEwV2RoBcEQRAEwa2RoBcEQRDcFQl6QRAEQRDcGgl6QRAEwV2RoBcEQRAEwa2RoBcEQRDcFQl6QRAEQRDcGgl6QRAEwV2RoBcEQRAEwa2RoBcEQRDcFQl6QRAEQRDcGgl6QRAEwV2RoBcEQRAEwa2RoBcEQRDcFQl6QRAEQRDcGgl6QRAEwV2RoBcEQRAEwa2RoBcEQRDcFQl6QRAEQRDcGgl6QRAEwV2RoBcEQRAEwa2RoBcEQRDcFQl6QRAEQRDcGgl6QRAEwV2RoBcEQRAEwa2RoBcEQRDcFQl6QRAEQRDcGgl6QRAEwV2RoBcEQRAEwa2RoBcEQRDcFQl6QRAEQRDcGgl6QRAEwV2RoBcEQRAEwa2RoBcEQRDcFQl6QRAEQRDcGgl6QRAEwV2RoBcEQRAEwa2RoBcEQRDcFQl6QRAEQRDcGgl6QRAEwV2RoBcEQRAEwa2RoBcEQRDcFQl6QRAEQRDcGgl6QRAEwV2RoBcEQRAEwa2RoBcEQRDcFQl6QRAEQRDcGgl6QRAEwV2RoBcEQRAEwa2RoBcEQRDcFQl6QRAEQRDcGgl6QRAEwV2RoBcEQRAEwa2RoBcEQRDcFQl6QRAEQRDcGgl6QRAEwV2RoBcEQRAEwa2RoBcEQRDcFQl6QRAEQRDcGgl6QRAEwV2RoBcEQRAEwa2RoBcEQRDcFQl6QRAEQRDcGgl6QRAEwV2RoBcEQRAEwa2RoBcEQRDcFQl6QRAEQRDcGgl6QRAEwV2RoBcEQRAEwa2RoBcEQRDcFQl6QRAEQRDcGgl6QRAEwV2RoBcEQRAEwa2RoBcEQRDcFQl6QRAEQRDcGgl6QRAEwV2RoBcEQRAEwa2RoBcEQRDcFQl6QRAEQRDcGgl6QRAEwV2RoBcEQRAEwa2RoBcEQRDcFQl6QRAEQRDcGgl6QRAEwV2RoBcEQRAEwa2RoBcEQRDcFQl6QRAEQRDcGgl6QRAEwV2RoBcEQRAEwa2RoBcEQRDcFQl6QRAEQRDcGgl6QRAEwV2RoBcEQRAEwa2RoBcEQRDcFQl6QRAEQRDcGgl6QRAEwV2RoBcEQRAEwa2RoBcEQRDcFQl6QRAEQRDcGgl6QRAEwV2RoBcEQRAEwa2RoBcEQRDcFQl6QRAEQRDcGgl6QRAEwV2RoBcEQRAEwa2RoBcEQRDcFQl6QRAEQRDcGgl6QRAEwV2RoBcEQRAEwa2RoBcEQRDcFQl6QRAEQRDcGgl6QRAEwV2RoBcEQRAEwa2RoBcEQRDcFQl6QRAEQRDcGgl6QRAEwV2RoBcEQRAEwa2RoBcEQRDcFQl6QRAEQRDcGgl6QRAEwV2RoBcEQRAEwa2RoBcEQRDcFQl6QRAEQRDcmpsR9B4eHmjdujXGjh0riqxRUVHWpUUQBMF5SNALgiAIbsvevXsREBAg/j+3UKFCLg/69u3bo1atWnj22WdFMYfqB59WrVpZlxZBEATnIUEvCIIguCWrV682r0QXLVpU/H+uWg5U2AvCreLHH39EixYtrP8SBEFwHhL0giAIgluyZMkSVKxY0fovQRCEW4cEvSAIrkKCXhAEQXBLJOgFQSgoSNALguAqJOgFQRAEt0SCXhCEgoIEvSAIrkKCXhAEQXBLJOgFQSgoSNALguAqJOgFQRAEt0SCXhCEgoIEvSAIrkKCXhAEQXBLJOgFQSgoSNALguAqJOgFQRAEt0SCXhCEgoIEvSAIrkKCXhAEQXBLJOgFQSgoSNALguAqJOgFQRAEt0SCXhCEgoIEvSAIrkKCXhAEQXBLJOgFQSgoSNALguAqJOgFQRAEt0SCXhCEgoIEvSAIrkKCXhAEQXBLJOgFQSgoSNALguAqJOgFQRAEt0SCXhCEgoIEvSAIrkKCXhAEQXBLJOgFQSgoSNALguAqJOgFQRAEt0SCXhCEgoIEvSAIrkKCXhAEQXBLJOgFQSgoSNALguAqJOgFQRAEt0SCXhCEgoIEvSAIrkKCXhAEQXBLJOgFQSgoSNALguAqJOgFQRAEt0SCXhCEgoIEvSAIrkKCXhAEQXBLJOgFQSgoSNALguAqJOgFQRAEt0SCXhCEgoIEvSAIrkKCXhAEQXBLJOgFQSgoSNALguAqJOgFQRAEt0SCXhCEgoIEvSAIrkKCXhAEQXBLJOgFQSgoSNALguAqJOgFQRAEt0SCXhCEgoIEvSAIrkKCXhAEQXBLJOgFQSgoSNALguAqJOgFQRAEt0SCXhCEgoIEvSAIrkKCXhAEQXBLJOgFQSgoSNALguAqJOgFQRAEt0SCXhCEgoIEvSAIrkKCXhAEQXBLJOgFQSgoSNALguAqJOgFQRAEt0SCXhCEgoIEvSAIrkKCXhAEQXBLJOgFQSgoSNALguAqJOgFQRAEt0SCXhCEgoIEvSAIrkKCXhAEQXBLJOgFQSgoSNALguAqJOgFQRAEt0SCXhCEgoIEvSAIrkKCXhAEQXBLJOgFQSgoSNALguAqJOgFQRAEt0SCXhCEgoIEvSAIrkKCXhAE4f/YuxPwmO6FDeCTMSabRGNNxVLLVVWUlqp9K6ootccahNp3SlXtWywRQqoiJCSRCKIorb2x1VatpSQqQlvVz3JxuW5ubt/vnJOZZDIzSeaMGcmZvL/veZ9bZ87858yZzHzzztnIIbHQE1F+wUJPRPbCQk9ERA6JhZ6I8gsWeiKyFxZ6IiJySCz0RJRfsNATkb2w0BMRkUNioSei/IKFnojshYWeiIgcEgs9EeUXLPREZC8s9ERE5JBY6Ikov2ChJyJ7YaEnIiKHxEJPRPkFCz0R2QsLPREROSQWeiLKL1joicheWOiJiMghsdATUX7BQk9E9sJCT0REDomFnojyCxZ6IrIXFnoiInJILPRElF+w0BORvbDQExGRQ2KhJ6L8goWeiOyFhZ6IiBwSCz0R5Rcs9ERkLyz0RETkkFjoiSi/YKEnInthoSciIofEQk9E+QULPRHZCws9ERE5JBZ6IsovWOiJyF5Y6ImIyCGx0BNRfsFCT0T2wkJPREQOiYWeiPILFnoishcWeiIickgs9ESUX7DQE5G9sNATEZFDYqEnovyChZ6I7IWFnoiIHBILPRHlFyz0RGQvLPREROSQWOiJKL9goScie2GhJyIih8RCT0T5BQs9EdkLCz0R0Qv43//+h//+979MPsy2bdtQvnx5s7cxeRfxPUNkqb///tvs35HSMnnyZHTv3t3sbczLS1pamu4vi8hxsNATEVnp8ePHKFxYC5VKxTCMjPz000+6dxFRzqrXqGn2b4hhrM1XX32l++sicgws9EREVvrzzz+lLwczo/cj8MBFhmEsiPie+eabb3TvIqKcOTu7YNCsFWb/lhhGbipWfwuff/657q+LyDGw0BMRWUlf6Nefv4Ptv4FhGAtSvPSrLPRksVe8imHWlgNm/5YYRm4aftiVhZ4cDgs9EZGVWOgZRn5Y6EkOFnrGlmGhJ0fEQk9EZCUWeoaRHxZ6koOFnrFlWOjJEbHQExFZiYWeYeSHhZ7kYKFnbBkWenJELPRERFZioWcY+WGhJzlY6BlbhoWeHBELPRGRleQV+mdYt3srhkz5DB37+aFZ9yFoP3oJRkVeQXiKufkdO5suPzQ73bpw3ebHZPcas9CTHHlV6GMTDmL8ygiMDTLIys0YFxyDyWH7MH//LUSauZ+jx7af3S8/LPTkiFjoiYisZGmh37Q/Cp1bvQ43dfo1cJ3Uainif6vUHvBpMwvTT6aava+jJe78CYwc1h6v9YzEJjO3yw3Xbf5Lbq8xCz3JkVeFPnJ1v4zPFbNRa/HKm13QJfhHRJi5v6PF1p/deRUWenJELPRERFaypNBH7VuNBuW1cNJ4o1rvJZi04yrCElMRe/V3LI/8Eh0bl0choYC6v/s5Zv9kfgxHiv5LsmuXzS/8pZDrNn8mt9eYhZ7kyOtC79x4KsaFxGCiLhOCIzBywRJ09X0f3u5qqDTlUHfGCUWXXEtiy8/uvAwLPTkiFnoiIivlWuiTfkCfBkWFwllW+MJ3EuHm5rl0BD3qC/OoPVBt0klEm5vHgWKzL4Vct/k2LPRkS3ld6LP/rErFusjpeLOYGk5u76LrVmXvip5bWOiJ8i8WeiIiK+Vc6NOwPmQQSmrUcGu2HIE3jG/PzMb1w/CqVgPP9+Zj0fWst8WcOYmJs2agQ5+BaNlnDLrN2oKFp59nmWf7b88RvCUSY1dGYXZCKmLPncGkWdPRXrhPqwGfot+KQ1hz1XD+zMScO4spc2eh04DBaNl7tDB+DBadNdxFXTd28EEEX7mCaTMmoXXvUeg6azuW/5SWMV/EoX0YMXUK2vkKj9l3PHrO3YaA86bjjBrWCs7Cl0LnhhMxKigSs77P+lxyH0dM3q3bLacSMGbaJHzQayDaDJ2PMfG/I1aa7z5WbFyNHoOHomWv4ej82SYskNaj4f2fI/LoXgwZNxqtfYej08Q1mH4k+xJg79fesnUtZ3zLXmMWepIj/xZ6Mc+wfEZbuKvV8Oq0EWuNztlh2XssM7l/HhvMm+vng+69m8tnt/gcQvfEY/i0aWjfdyCadx+ED4bOxpDQ89ggPR/L3teyPq9yXSb7hYWeHBELPRGRlXIu9H9hQo8ycFJ7of7iZMSZ3G6QG7cQdOA2orJMT0VI2DTUKqOFk/AY0jGbUtQo7NMWPTalGIz5EOO6eEKlLorGU4PRrKpH1vuoNSjWdCHmXzEc/znWrJuMN73Tx08/9jx9fG3Frhi0S180dWO7t0XLbtVRWJpHmN+tGfruE7+s3cOieX1Q3jP9uPUs45RvD9+o27rl1I2jXyYpnmiy8oHucSwdR0zerNuG4xaj/msuumXTLWeRuui08RwmD34PnsLyGi63a82xmHb2fub9JyxCvbLCYxre37M2Wq24ZLT3gL1feznrWs74ub3G6WGhJznyd6EH4s5FoEkJ4T1UojfGntdPl/MeE2Pp57EYSz8fdO/HbD+7hXlSUvDZqBYopjVeTiFqD5TvHY2Q5Nze11Z8XuW0THYOCz05IhZ6IiIr5Vjor3+PrjVdoHJthN575H9RiT24Gu+W0sBJWxn1Jm7HsvNPEX3+AqZM7IBSwpevQt4f45PD+i03+i9cwpc/93Ko1jcYM/b/js2Jd7Bs3QzUeVUjfDkriQZLMstv7MFg1BPHd30DjT7fg6ALT7DpxBF80rM2XIQvda715+m2aGd+mXMq2gAdQi5i44WL+DRwJ4KT07A2xB8+wvI4V+2BPuvO4KurqYj+8SJmzBmEKq8Iy/lqFwyTljMVwVtjMGb4++lbeRpPxpjgGMxJENeNnHGEZcqjdatxrYA6o6Kw6IfH2PLTBYzt+xa0wrrSlvRG0Qofode6C1if9BTrd4fh/epuwhdjT9SZ9QNG6+5f2NUdJZpNx+Tv7iL6SiK++KInfJyFL9BebTHwu8znYd/XXua6ljV+Tq9x+nMTw0JPcuT3Qr89+SIGNHaHSlsLH299KkyT+x6T83ks5/Mhp8/u9LHCw0ejrFaFQqVao1uo+PmVhtjL1zF3sT8qiucHcG0I3z1PcnxfW/d5lf0y2Tss9OSIWOiJiKyUY6G/Gof3SwlfiIr0wKgfjW7LNU8wa1hNaFRalPPbiTDD3ThT7mDqgDek28oP26/b8pxZujzarMaqLF+MnmHBuHoorNKg5ICvdfM/xZwRbwljuKCiMEaWMzRf3IV2VbTpX05jxS+n+rE1KNErBhsN573xA3zrCsXVsyX67HmcOV3KcwTNaQ8PteFyZvMlWe44ebZu12T50hl7YAlquqmg0vigyYpbGT+WiD9erJzZFs7CfYr12YQRui+whSr4YcIPhruV3sOMobWkx6sw7IDu8ez82st+zeT+beVehFjoSY58X+iF9/GYTsJ7RF0SLUOE95Ts95icz2M5nw85fHZLeY6Aef3w5ptVUXPSCWwxvC0lGUPbeGQ+J2Ga+fVh7edVdstk/7DQkyNioScislLOhT4GLbzE0umLsZeNbsst4hfCd9ykL3GdpS9xWW+Pjv0UFbQqFK4z02grujtqz/pFd0x3ZjYG9oSrUMjcu0WnXzf5xln0ri+M7/w2um1/lmVesaSt3rkfCw/dxmbpy1nm2HVmX80ydsz+ANRwVcG5RZDZrSuxx1bhHaHwisu5ULd1ydyXQtnj5NG6rTnjYtZ1e2UzmhQRCr37Rxh6IuvxnxEre+ue5zoMl+6vRdkh+zJKrz5b4qahorMK2npzESCeC8DOr73810zm35YQFnqypfxf6B9hfBfx5JtF0Sz4kfz3mJzPY1mfD9l/duecNGw+mYDezcXDazzRdFX67v5m18cLfF7JWybbhYWeHBELPRGRlXIs9Il70b6iRih7HTH0uMyT/VzdjtalhcLq3gXDz5jeN+5sKN5zV8Gp1GBMlk5IpvuSJHyhND5eWYzJF7HEHWgj7irt3hUjz+W2bPovYJ5oEnQ/y21RYcNQQqM/XjL7ZC6n+S+FssfJi3UrPP9GgX9lnf9qFJqJhb5IX4z7xWC6kMzn+ZWu0HugfoDhVvz0iI/XQHy80kMwRXw8O7/28l8zmX9b2UwzDAs9yZHvC31KCoa19YBKUx5tw55Y8Xkm4/NY1udD9p/dWZJ0EwtCguE7fASaf9gW1V73gYtGeAxpOTOPlTe7Pl7g8zTHZbJjWOjJEbHQExFZKcdCn3wNg1uIx1VWx0dRplsusuYZ1uw5geCLumONr25B86LClyRxC/Ql43mFXIqQtgw7veKHiUalq9lq4108zXwRMxw/1y3c2Y8dGeKHIsK4mkqt0KRbfzTPLr6BmJuku4+5Aih3nPyybg0K/Xhp3sxkPk99oRe+wOq2dGWJ8ePZ+bWX/5rJ/NvKZpphWOhJjnxf6JMOonM1LVSuzdHvu+fy32NyPo9lfT7k/N4VE3t8Gzq+641CwvJKPzJovVDyzZZo0G8aWtV3l7bQ51zobft59TLCQk+OiIWeiMhKORZ6oUgumtgAhVUuqDrB6PhE4yQeQCfhC6FTkQboGf9M+PdutCuvgcrtQ/gnZJ44SZ/Y74PwtpsKhV4bjc8TxWkyS1firvTx3TtgSK5buLMfOyp8NLw1Kjg3XY4gM7uWmou5L4Xyx8kn61ZWoffAuwtMz8ivfzxNlfH4Qvxyb+fXXv66lvm3lc00w7DQkxz5vdBHb/8cVZxVKFxjGuZet+I9JufzWNbnQ87v3e0ptzGuewWhzGvh3fpzjIk6j7VX9GPewcgO4udWLoXexp9XLyMs9OSIWOiJiKyUc6EHYr4NQM0iamgq+WPi6ey+qKVhbbAfSgtfADXVJmGWWAyTE+Hf0gNOmrJoGXLX5D5ha/xQXKOGS8YxmjJLV/JVDGrhLoxfEW1CjXejTsXK2Z3gXa0xGs0Sy3L2Y8ceW426wvNzKtYVw42OIZdy6SLmRB3HijOPMops5Or+cDf6UmjNOPli3coq9Bp4D/japBhsDBmEEsLjFem4HuvEY2Tt/NrLX9cy/7akaaavsWFY6EmOfF3ok5MwunNFoRR7oPqU04gRpsl+j8n5PJb1+ZDze1fc1b+1t1jG28P/mFEZv56AbrVcpELfeEX6oUZm39c2/rx6GWGhdwwPLx/A99dSdf8iFnoiIivlVujFs/xO86uBwmoNSrZZhDlnjbdgpGHjzhV4T9zCoSmHhgH6kwQJX+LmtkcRtRruDedgvuFumJcS0PM98QRMXqgz65JufrmlKxVBs9sJX87UeOX9FVgmbTnR5XICetQTv6D5oNlK8VrJOYwtfJkd1q6UsCxuqNBvK0IMt0al3MXsMY3gKjxGkdbBGWdHF3dHFa/X7vpROMJfYJx8sW5lFXoVCpXqBP/9BocIXDmBPo2LSV+Gmwbpj6+382sve13L/dvK5jU2CAs9yZFfC33cTz9iwrCW8BIKq7b6OEz/UVfeZb/H5Hwey/l8yPm9uz0xHm3KCJ+Pri3Rf7/hpSWfYkVAL+mHUMNzf5h/X9v28+plhIVe6VJxNXwgahSrhJG7nuimEQs9EZGVci30QuJ+OoLezXxQSKVG4dL10GjIfAwK2IgxASvQo287lPVUC19uvFDFLy7rF78rCfBtWFL4MqRFsfr+8F2wAaMXzMP79ctCI3x58mgwB/MyvjzJL13bLx9Fz/rFpS+d3k1Hou+icIxZtABtG1WQxi/aZDEWSSU157Gj9izHO+JWHrUnfFqNQd+FGzE6YDm6dqkvfNFVwaloY/TYmrnVKTpqAny0KmgqdEbPgDBM/Sb9uHK544jJ83Urq9CroXF2gXOl9uj4Rajw3Bbhg8biutagWOsgLNWdY0CKnV97eeta/vjZvcb6sNCTHHld6DWVWqLxx73RRJ9O3VCvSX28+ooWTsL72rmqL4bueZTlvrI/zyz+PBZi8edDzu9daZf7buWFz08NPOv4CeOIn52B6Na9MUq4lkKx0m7C83ND9annpD0Psn1f2/Dz6mWEhV7pnuHYF/XgomGhN8RCT0RkJUsKvZQrP2HieF9ULSOeZEjc6qGPGu5VPkD7BQkINSycusSdPYgBXevhFa1QTHX3cXKrgOq+gZid5YzC8kuXmLjT+9G/S128ojEYX1MSFT9ejFmn9Vu8c/8CFr4rFB82rgxn4TH046jULvCq0xf9o1J0W2Z0uXxE+PJXWvgSKc7ngoqjjmQcAy9rHH3yct3KKfTC/RtNXYs2dUplnoDKVXi8PsGYf950t1x7v/aWr2srxs/hNRbDQk9y5HWhz3h/SFHDSeuBIq++jipNfdH+sy0I+NH02HExcj/PLPs81s1r0edD7p/dsce3o1PDciicsYxqFC7TFG0WHceKlf1RSlgW12aBWCF+hubwvrbV59XLyMsu9Gn3r+L7nVsQvmETth+6jL/SdDcYSf3rCo7Eb8aGDZux47AwX5a9yZ/j/u1kJN/8E4+Ffz2+cRw7IzdgY/Re/HjnefosSMWfP32LmIgNiNh+BFcf6CZLDO+fhnuXDyA2IgJbdp/EDXHAbMhZpme/n8e+mAhs3LQNhy7/JSyNqSe3zmJfbATCNkYi/vtruC97vDQ8upOEXZPqCIW+AgZvvobkPx6afayChoWeiMhKFhd6fZLuYOXX+/HZulhMWrcLs3ZfR7iZspk1aYg4dgpfhG3DlIjDWHoy65agF48w/vFTmCmMPzl0HxZ8f898cc41z7D+YAJmrN8qPLfdmL33pu469maSmIzFm7dh4tp4zPzujrQ7Z+btMsYxTL5ct2KMvsDeuIPA2J34dMMBBBx/YPTcjWPv5bNyXVuSHF5jFnqSI68KvW0i9z0m5/PYRp8PKfcRHL8Pn67dhmkx57DW6MfJLMnxs/tlfJ6+eF5eoX+AM+s+QUMfF6h1P3Ko1FqUa/kp4n81rKCP8VPEaDTx0WaZr2zTMdh8UbcF+vk5zG/iBnXpfghY44fa4pUFpHnV0FbsjKAffkH8lBbwyfhBRQ2PNwdgw2Vd2c+4f38EBPfGG+6Z83nV6Ill398VqrIhOcvkhxUbRuC9khrdmCqotWXRYurXSNEPmnYb3y3shjczllsczwXlW4xH1GU5493B+u7C/z/VjyHEvf0qJLHRs9ATEVlLdqFnCmDyfotUfgsLPcmh7ELP5Le8rEJ/d89Y1HQRCnPdwVi15wwu/3QEEZNawFujQdme63FdV0Lv7p2A2m5CAa/ZB0viT+Hy5R+wc2kf1PJQw73uFHz7lzCTvuxqPFCs+seYE5OAny+fwY4ZbaTxileshIrvfYLVe8/iysWj2DCyPoqqNag6eo+0tTvj/lpPFC1eE32W7cKZn07h68ABeMtTDe0bIxB/J7PSy1om8VKHb7TF5NC9+OHnizixbT46V9FC5VIH044+FWZ8ivOBHwrL6YU6/QKwNeFnXBXG27NmNJp6a+BRbwq+s3i8v/DzrrWY2bUKtOrSaDtpDdbtOIcsOyMUUCz0RERWYqFncg8LvXFY6EkOFnrGlnkphT7tBtZ+XAxq92aYf0YstTrPz2NhMzdoSnbDumShQKdeR0hnYT63Bph5zHDf98c4NrMB3NTF0TnkOlJ1ZVelqYCBW/7I3Jr+YCsG+2iEsvseZh7PfJy02+vQRSjqbq2W4GfxhwP9/dVuqD8jAY/SZxM8xZn5TeGu9pIeRxpX9jJVxKCYOwZb+FNxaWlruKvc8UHQVaTejcOQSloUbx+ES/qjAyRpSA73RVmNOF6S5ePxGHqzWOiJiKzEQs/kHhZ647DQkxws9Iwt81IK/cNYDPIWCnXTBThnVGIf3L6Je890/3ywBX6lhPkazcPpLPMJHfzsfDRxU6P0gC24ry+7Hp2x9lZm1cXTw/i0lhaaiiORpds+3o4hZYRxG85NH1d/f7emWJB1gfD8/EI0Ex/HLyZ9S7fsZeqG0D8MlknwOMYPJdVuaLrgHB7sHYuqWjc0mBiN7/bvx36DfLdtGpoL45UaEG3xeM9Z6M1ioScishILPZN7niN4SyTGrozC7ATzJ88qaGGhJzlY6Blb5mUU+tTElfjQXQXPnhtxVzfNnNRrQWgnzbfBdL6/wtHLUwX3diuR+CS97KqL+yHGcKO5UOinvqWF9s1JOGCwIwCe7MAnZTVCoZ+DHwwKvdqrH6Ieps+S4Z7ucT4IwtVUK5ap1CBsNVwmweNt/igjFPDG88/i5vru8BS+J4nflbKLe7sgXLNwPBZ681joiYisxELPMPLDQk9ysNAztszLKPRpv65GBw+hFPfYgD9108wR5+soztc9zHS+P8PQXSzP4knf9GW39GDEvUihL9YfWzL3t0/35wb0EB7Ho0MwrqfZYJkEmQX8BySHdoOHyg2NJkVh77592Gcm3x5PxCP9MuY4Hgt9dljoiYisxELPMPLDQk9ysNAztsxL2eX+0TYMMSzUBh6fiMDioDB8c/FBxnwu787ECf1u+DrPjn+Bei5qeA+MxcPsyq7MQq9yfx9LL2Y9JfyzkzNR30WDCsN3pp9A70WXSWBYwO/vGY0qGi1eH7s3ffzssNC/EBZ6IiIrsdAzjPyw0JMcLPSMLfNyToqXgg29vKF2ew8zEgw3id9F/PCq0Goq4pN4odBL85WG2uVtTN5/XzeP6B6+nVQbLuri+Hjtr0izVaFXe6DFwrPInPU+Dn76jlCOy2FgjG57/IsukyBLAf8zFoMraqCp4IuwLNeXS8Od+DFo8OZ76LYkAU9lFPoTM+sLy1wRI75moddjoScispK+0Dfp3Bvv+/ozDGNB3Dw8WejJYkWEv5e3W7Qz+7fEMHLz6mtV7F/oBQ+/n4kmXmq4v9EVsyK+weED8fhqWntUES9l12weTui66MOjM9G4qBouVTpi2vpdOHx4N9YL81XWquFZfxoOiJ3aVoVe+L6idn8D3WdHYNc+YXmmtEMF4XFKvr8YPxjc/4WWSZC1gD/FOemydWoUe7sv5m/6BkeO7ENM0Gi08NFAXawp5og/elg8XiouLmkFd7UHmk3dhkM/XIPxaQEKIhZ6IiIr6Qt9ix5+aDdgJMMwFsSdhZ5kEAt9vTYfmf1bYhi58an0+ksp9EJDxfWdM9HpjaJQC98TxO8K4hbyf3w4DduvGe7L/hxJ8Z+j4+ueGfOpNSXxVteZiE/UzWejQq8u1Q1Tv+iAym5q3eMUx1vd5+Kb5Ky74b/QMgmyFnBB2h84ssIP9ctoDdaFBsVqdsHsXb+mzyNjvGdnA9FOvFyfMI626ljsM3zuBRQLPRGRlbjLPcPID3e5Jzm4yz1jy7yUXe4NPf8Tl4/tw66v9+LoT7eR7U7iz+7gUsI+7N5zACev3YVxxX4hWcpyGh4kncC333yLY5fvwOgw+axsvUyPbuL8EWFd7NyDgz8k4d4LDPg05Sz279qJ3Qcu4A+brixlYqEnIrISCz3DyA8LPcnBQs/YMi+90OcHOWz9JsfAQk9EZCUWeoaRHxZ6koOFnrFl5BT6CxcuoEuXLihevDjmzp2LZ89y3J6df7HQOzwWeiIiK7HQM4z8sNCTHCz0jC1jSaEXi/zHH38MjUaD3r17Y/Xq1fjHP/4BHx8fbNiwAf/73/90cyrE84sI7lUHtRp9im94YniHxEJPRGQlFnqGkR8WepKDhZ6xZXIq9D/++CM6d+6cUeR/+eUX3S1AamoqVq1ahRIlSuCtt97Cd999p7uFKO+x0BMRWYmFnmHkh4We5GChZ2wZc4VeLPKdOnWSinyfPn1w9epV3S2mHj16hKlTp8LFxQVt27bFzz//rLuFKO+w0BMRWYmFnmHkh4We5GChZ2wZw0J//vx5i4u8sZSUFPTr10+676BBg/D777/rbiF6+VjoiYisxELPMPLDQk9ysNAztkyDdl3Qs2dPvP/++yhUqJBU5K9du6b7a5Pv3LlzaN68OVxdXTF69GhcvnwZycnJDPNS07JlSxZ6IiJrsNAzjPyw0JMcLPSMLVP3/Q7S/98WExkZqfsrezF///03evXqlTEuw+RFFi1apPuLfPlY6IlIsVjoGUZ+WOhJDhZ6xpZp+GEXDB48GL6+vtIW+g8//BBnzpzR/bXJd/jwYbz99tt45ZVXMG/ePNy9excPHz5kmJeaf/7zn7q/yLzBQk9EisVCzzDyw0JPcrDQM7aM4TH0SUlJGDBggHQcfPv27WUVe/EM+B06dIBWq8WECRPw4MED3S1EBQ8LPREpFgs9w8gPCz3JwULP2DLmznIvp9iLW+CHDRuGwoULS8fi37hxQ3cLUcHFQk9EisVCzzDyw0JPcrDQM7ZMTtehz6nYP3v2DHPnzoWHhwcaN26MU6dO6W4hIhZ6IlIsFnqGkR8WepKDhZ6xZXIq9HqGxV48xn7BggXw8fHBP/7xD2zbtk03FxHpsdATkWKx0DOM/LDQkxws9IwtY0mh17t+/Tr8/Pzw2muvYeXKlUhNTdXdQkSGWOiJSLFY6BlGfljoSQ4WesaWkVPoicgyLPREpFgs9AwjPyz0JAcLPWPLsNAT2R4LPREpFgs9w8gPCz3JwULP2DIs9ES2x0JPRIrFQs8w8sNCT3Kw0DO2DAs9ke2x0BORYrHQM4z8sNCTHCz0jC3DQk9keyz0RKRYLPQMIz8s9CQHCz1jy7DQE9keCz0RKRYLPcPIDws9ycFCz9gyLPREtsdCT0SKxULPMPLDQk9ysNAztgwLPZHtsdATkWKx0DOM/LDQkxws9Iwtw0JPZHss9ESkWCz0DCM/LPQkBws9Y8uw0BPZHgs9ESkWCz3DyA8LPcnBQs/YMiz0RLbHQk9EisVCzzDyw0JPcrDQM7YMCz2R7bHQE5FisdAzjPyw0JMcLPSMLcNCT2R7LPREpFgs9AwjPyz0JAcLPWPLsNAT2R4LPREplr7Ql3+9Biq+WYdhGAvi4ubGQk8Wcy/iAe/Xqpj9W2IYuSlavCQLPZGNsdATkWLpC/3AmYEYuSyMYRgL4vlKMRZ6spiHZ1F0GjbJ7N8Sw8jNP2q/y0JPZGMs9ESkWNzlnmHkh7vckxzc5Z6xZbjLPZHtsdATkWKx0DOM/LDQkxws9Iwtw0JPZHss9ESkWCz0DCM/LPQkBws9Y8uw0BPZHgs9ESkWCz3DyA8LPcnBQs/YMiz0RLbHQk9EisVCzzDyw0JPcrDQM7YMCz2R7bHQE5FisdDbJ5suPzT493MEb4nE2JVRmJ2QajA9j5NyD8vCIzE5/ga+jI/DuI3nsDHFzHyMSVjoSQ4WevtEEZ+zYmz8WctCT2R7LPREpFgs9LZN3PkTGDmsPV7rGYlNGdMfYlwXT6jURdFs9eMs8+ddUhES4o9yXs3RZ9cTRO2ajze93kDL1b8i1uz8jGFY6EkOFnrbRjmfs2Js/1nLQk9keyz0RKRYLPS2TeTqfnBTq+DaZbPBF82nmDNzMJp398fAuKdZ5s+rxB7bgCbl3FF5xAFESNMeYPbIunAu64tR+W3rVj4MCz3JwUJv2yjlc1aMPT5rWeiJbI+FnogUy/JCL3xZmtEfjbsEYHaSudsZMea/aOazpNzChB6VUdinP8adTsuYHnc6Cs3LuqB0j2h8xV3vcwwLPclheaHn56wlUcTnrBg7fday0BPZHgs9ESmW5YX+MSZ0LwanIn0x/qq52+Un5sxJTJw1Ax36DETLPmPQbdYWLDz93Gg+w+MinyPy6F4MGTcarX2Ho9PENZh+xPAYyqyJOLQPI6ZOQTvfgWjVdzx6zt2GgPPGW0R04wcfRPCVK5g2YxJa9x6FrrO2Y/lP+i9gzxC6Jx7Dp01D+74D0bz7IHwwdDaGhJ7HhowvY+njjBrWCs7CF03nhhMxKigSs74Xn0/Ox3bmvh6y3j/23BlMmjUd7YX5Ww34FP1WHMIaGa9JVNx0VHF1wWvDDyIyy22PMXtEbRR2rYtucU8MpjPGYaEnOSwv9Lb/nBUj7zOmoH7OilHGZy0LPZHtsdATkWLlTaFPRUjYNNQqo4WT8Nji46dHjcI+bdFjUwriMubNPC6y4YRFqFdWuI9aLUW8j5NnbbRacQnRWca/h0Xz+qC8p24eaf708bXl28M36rbp+O5t0bJbdRSW5hPu49YMffcJX/ZSUvDZqBYopjUeS4jaA+V7RyMk2WAccXpGPNFk5YPM20yO7bR0PWTev/HUYDSr6pF1frUGxZouxPwr+nFzSMofwutYHoWcG6DXrmcmt2/ZNRuvO2tQons01nMrfbZhoSc58q7Qy/+MKbifswbj5/PPWhZ6IttjoScixcqLQh97cDXeLaWBk7Yy6k3cjmXnnyL6/AVMmdgBpYQvdIW8P8Ynh/VbWPRf4IQvX67uKNFsOiZ/dxfRVxLxxRc94eMsfPHzaouB3+m3tKRhbYg/fIRxnKv2QJ91Z/DV1VRE/3gRM+YMQpVXhPFf7YJhJuMLXyKLNkCHkIvYeOEiPg3ciWDhC2R4+GiU1apQqFRrdAu9gPVJaYi9fB1zF/ujorvw5dO1IXz3iI+diuCtMRgz/P30LUeNJ2NMcAzmJIi3mf+iafl6yFwHWvdyqNY3GDP2/47NiXewbN0M1HlVI4xdEg2WJBt8MTWfuNMb0KiEsC5rTsf862bmuX4UXWu4wKlET4wy2EWUyRoWepIjrwq9NZ8xBfdz1nA58/dnLQs9ke2x0BORYmVb6JOvYXZwBMYG6ROGzo094OTWEp2WGU7X7+5ocN8c8wSzhtWERqVFOb+dCDPcMpFyB1MHvCHdVn7YfkRJ0zO/CBaq4IcJPxh+8bmHGUNrSfNXGHYgff4bP8C3rhucPFuizx7jMx0/R9Cc9vBQmxtfgxK9YrDRaP6Aef3w5ptVUXPSCWwxvC0lGUPbeEhf7lqGZD6O+WM7zX3RlLMeMr9kerRZjVXSlip9nmHBuHooLCx/yQFf655T9gkPGYhiag2K996OzWZuF5d1sq8PCql90OrL+2ZuZ8Sw0JMc2RZ6u33OirHmM6Ygf84ajJHPP2tZ6Ilsj4WeiBQr20J/NQrNihjsapht9Ls7Gtw3p4hfBN9xg0pbC51jTc9EHB37KSpoVShcZyYWSVs19F+wtCg7ZJ/Jl6gtcdNQ0VkFbb25CLgBxOwPQA1XFZxbBElbfgznFRN7bBXecUsff2GW8d1RZ/ZVCy8jlIbNJxPQu7m4O6Ynmq7KPL7U4i+astZD5jLWnvWLyTJuDOwJV+ELqHu3aKPjNI3zDAsn1Be+kLqhxmcXEGN2nudYPq05tCoXVJ1g9OWayQgLPcmRbaG31+esGKs+Ywry56zBGPn8s5aFnsj2WOiJSLGy30KfhDkhURgfrE8EPm4ibjlqhc4rDKfrd3c0uG9OubodrUuroXLvguFnTHczjDsbivfcVXAqNRiTpV1O9V+wPFA/4JbJbo7i/A3E+UsPwRRh/qiwYSihMfeFOGtMxxe+MAdls5Uk6SYWhATDd/gINP+wLaq97gMXTfqxnsZftC3+oilrPWTe39yXevOPaS5PMKWPj/TluOGyP83cnp71y7oLX1o1KNZnR65boQpqWOhJjuy30Nvpc1aMNZ8xBfpzNusY+fmzloWeyPZY6IlIsV76MfRXt6B5UeELVhFfjL1k5vZLEWhSRPiC9YofJhp/ETTYQpPd/JEhfigifOHSVGqFJt36o3l28Q3EXOmyUGa+BBok9vg2dHzXG4WEMaUvqFovlHyzJRr0m4ZW9d2lL2zWfdGUsx5yXkbLv2QKr2E3r/StXcGPzNyenk2r+ui2Qm3JZStUwQ0LPcmRJ8fQW/MZU6A/Z8VpyvisZaEnsj0WeiJSrJde6BN3o115DVRuH8LfzKWFYr8PwttuKhR6bTQ+TxSn6b9oeuDdBaYnItLPr6kyHl8IXxyjwkfDW6OCc9PlCDKzK6hpcvgCl3Ib47pXEL5kauHd+nOMiTqPtVf0y3wHIzuIy2XlF01Z68FWXzKfYGrfcigkLHODZdm/3uuXdoOLeKxr33huoc8mLPQkR54Uems+Ywr052w2Yxgkv3zWstAT2R4LPREp1ksv9MmJ8G/pASdNWbQMuWtye9gaPxTXqOGScWym/oumBt4Dvjb5ErUxZBBKCPMX6bge61KEL2jHVqNuETWcinXF8BOmu1huv3QRc6KOY8WZR7ovrTl8gUvcgdbe4pfB9vA/ZvRl8HoCutVykb5oNl7xV8b0yNX94W7JF01Z68FWXzKfY/GkhtCq3FB96rlsj+tcOrWpNE+1yaezmYdhoSc58qTQW/MZU6A/Z7MZwyD55bOWhZ7I9ljoiUixLC/0TzF35kA07b4Us6VdKK1NKlbObY8iajXcG87B/MsGt11KQM/3isJJ7YU6sy7pTkik/6KpQqFSneC/3+DERldOoE9j4cuv8GWtaZDuuM/kJAxrV0oYww0V+m3VXbtYl5S7mD2mEVyFxy7SOlh3BuOcvmjGo00Z4Yuma0v03294/OpTrAjohdLSMaRZjzkVd0X1FL/wfRSO8Iz5zT2GnPVgqy+ZQMRXQ6Qv5l49YgyWzzD3MbG7t7BOy6P1OtNjSJn0sNCTHEVf8bKw0Nvqc1aMFZ8xBfpzNrsxMpNfPmtZ6Ilsj4WeiBTL8kJvw1xJgG/DksIXKS2K1feH74INGL1gHt6vXxYa4YuXR4M5mJfxxUv/RVMNjbMLnCu1R8cvQjE6YBE+aFxBmF+DYq2DsNTgy2/UnuV4R9zio/aET6sx6LtwozD/cnTtUh9ewpdDp6KN0WOr/gtUDl/gxF1Bu5VHIZUGnnX8hOXciDEBgejWvTFKuJZCsdJucDLaAhMdNQE+WhU0FTqjZ0AYpn4jHo+azWNYvB5s9yUz7mwEmpQU1mW1yZhlrjAkHUCnalo4leqLsefMbHljpLDQU27++OMPHD16FOvWrYObexELC72NI/czpkB/zopRxmctCz2R7bHQE5Fi5UmhFxJ39iAGdK2HV7Rq6fHFOLlVQHXfQMzOcjbizC9YjaauRZs6pTJPnOQqzN8nGPPPm34ZCt8Vig8bV4azbl4pahd41emL/lEpBpcjyvkLXOzx7ejUsBwKZ4yjRuEyTdFm0XGsWNkfpTRquDYLxAr9FqrLR4Qvj6WFL6fivC6oOOoItuTwGJatB9t9ydz+211M9q2IQs5vo2ucmcs4xX2GSs4alO6zzeha0YxhWOjJ2L///W9cunQJ8fHxWLJkCYKDg/Hdd9/hxo0bKOpl6RZ620fuZ0zB/ZwVo4zPWhZ6IttjoScixcqrQp+eNEQcO4UvwrZhSsRhLD1p7mzARl+wbtxBYOxOfLrhAAKOP8jYBdN8nmH9wQTMWL8Vk9btxuy9N7E5xdx8uSTlPoLj9+HTtdswLeYc1uZ2bGtiMhZv3oaJa+Mx87s7uSyjGEvWg+0SFT8TVV21KOe/z+hL6UPM8K8OjVtD9Npp+gWUyQwLPYnu3r2LY8eOYcOGDVi4cCE2b96M06dP4+HDh7o50ll+DL29kttnDD9n7RF7fday0BPZHgs9ESlW3hZ6S5LzFhPGiqTcwoSeVVC4dC+MOpm5dSruRBgalXbBq76x0omvstyHyRIW+oLpP//5D65evYpdu3YhMDAQK1askP4OEhMT8d///lc3l6m8L/S5hZ+zdomdPmtZ6Ilsj4WeiBSLhb5gJvZoKBr5uKPyyIO6LUcPMXvE23Au2wsjvze9vBOTNSz0Bcf9+/dx8uRJREREYP78+QgPD5f+LU63FAt9wY09PmtZ6Ilsj4WeiBSLhb6gJhWrV/nBp0Qr9NvzFNF7FqFmsdfRfGWSwXGvTHZhoXdc4pb2pKQk7N27FytXrpS2xItb5H/55RdpC701WOgLcmz/WctCT2R7LPREpFj5v9A/R/CWSIxdGYXZCdxybNOk3MPS8EhMiU/Gl/HbMG7jOWzkrvYWhYXesfzzn//EmTNnEBUVJR0Lv379eiQkJEjHyNtC/i/0/Jy1a2z8WctCT2R7LPREpFj5v9AzTP4LC72y/e9//0NycrJ0FvrVq1dLZ6XfuXMnLl68iGfPnunmsp38X+gZJYWFnsj2WOiJSLFY6BlGfljolefx48c4f/48YmJisGjRInz11Vc4cuSIdL14e2OhZ2wZFnoi22OhJyLF0hf6+u26oG2/4QzDWBDxPcNCn7/9/fffuH37Ng4ePIgvv/xSKvFxcXG4cOEC/vWvf+nmejkKFdLgtepvmf1bYhi5ET9/WOiJbIuFnogUS/zS+9lnn2HIkKEMw1iYMWPG4v/+7/907yLKL54+fSoVdrG4L168WCryYqEXi734WZdXgoKCzP4dOVIqVKgArVZr9jZbpWSpUihSpIjZ2wpShg79BD/99JPur4uIbIGFnoiIiCgPiLvMHz16FOvWrZO2wou71J89exaPHj3SzUH2Jv6QIm41FnPu3DndVNsST1Cof4xbt27pphIR2QYLPREREdFL8O9//xuXLl3Cjh07sHTpUunSct9++y1u3rwpneyOXj7xdXjttdfQsWNHDBgwQDfVtiZOnIi6devivffew6effqqbSkRkGyz0RERERHby119/4dixY9iwYYN0Wbno6Gj88MMPuH//vm4Oyivi1vnSpUtLr833338PZ2dn6fWyJXHrvJubG/bu3YutW7eiePHidrkaAREVXCz0RERERDbyn//8B1evXsWuXbuwYsUKBAYGYs+ePbh+/TrS0tJ0c1F+IG6dr1y5Mv773/9K/65Tpw7mzp0r/betiFvnxS3zIvH1L1eunHSIBRGRrbDQExEREb0AcWv7qVOnEBERgfnz52PTpk04ceKEzbf2ku2IW8n1W+f1xP8uU6ZMRsF/UYZb5/XEvTRq1aql+xcR0YtjoSciIiKSQSx8iYmJ0uX/Vq1ahWXLluHrr7/GtWvXbFYGyb7E18xw67zo+fPnKFmypHRYhC1MmjQpY+u83r179+Dq6orDhw/rphARvRgWeiIiIqJciGeeF89AHxkZiQULFmQcd33nzh3dHKQU5rbO602fPh0NGjTQ/ct64t4Zxlvn9QYPHoyPP/5Y9y8iohfDQk9ERERkRDze+caNG9i3bx/WrFkjXRs+Pj4eV65ckY6TJ+Uyt3Ve7/fff4dGo8GZM2d0U6xjbuu8nngd9kKFCklXNyAielEs9ERERESCf/3rX/jxxx+l68GLxzqvX79e2jX69u3b+Pvvv3VzkZLpt86HhYXpppjq2bMn+vXrp/uXfDltnddr1qwZJk+erPsXEZH1WOiJiIioQBKv/Z6SkoKDBw9i7dq1UokXLy32888/89JiDmr58uXZbp3XO378OLRaLf7880/dFHly2jqvt23bNnh5eUmXziMiehEs9ERERFRgiEX94sWLiIuLw6JFi6QiLxZ6cfdnseCT4xJfe29v7xy3zuvVrVsXs2fP1v3LcpZsnReJh3RUqFBB+vsjInoRLPRERETksMRd5X/77TccOXIEoaGh0gnttmzZgvPnz0u72FPBIW6dr1SpkkVXIggPD8err76K1NRU3RTLWLJ1Xk88L0ONGjV0/yIisg4LPRERETkU8aR1v/zyC3bs2IGAgACsXr0a3377LX799VdpyygVPPqt8+J5ESwh/g2Jx9qLVzWwlKVb5/UePHggzS/uIUJEZC0WeiIiIlI88fJx4mXkNm7ciPnz50tFTDxTuXi5OaLAwECLt87rzZgxA/Xr19f9K3dyts7rDR06FB999JHuX0RE8rHQExERkeKIxSwxMRG7d++WLkO2atUq7NmzB9euXZO9mzQ5Nrlb5/X++OMPFC5cGD/88INuSvbkbp3Xu3TpknQJO/ESiURE1mChJyIiIkUQS9OJEycQEREhHQsvHud86tQpaddlouyIP/ioVCrp0AvxJHRyIt6vffv2upGyN3LkSGlec2PkFvF+4v2JiKzBQk9ERET5kni8u3jc+zfffIOgoCBpt+ldu3bhypUreP78uW4uopwFBwdLJ7h79913zUa8jF2JEiXM3la+fHmMGzdON1L2Zs6cmeNjiOOIewmYu61cuXKYM2eObiQiInlY6ImIiCjfELe2nz59GtHR0dJWeHE36WPHjuH//u//dHMQ2Zb4Y1HTpk11/7KPadOmoXv37rp/ERHZDgs9ERER5RnxsnIpKSn47rvvpOPglyxZgvj4eOla8eKxz0T2xkJPRErGQk9EREQvlXjm+XPnziE2NhaLFi3CunXrcPToUelM9UQvGws9ESkZCz0RERHZ3W+//YZDhw5hzZo1WLx4MeLi4nDhwgU8efJENwdR3mChJyIlY6EnIiIimxOLuljYxeIu7kYvFnmx0IvFnig/YaEnIiVjoSciIiKb+PPPP6Vd58Vd6MVd6WNiYnD27Fn885//1M1BlP+w0BORkrHQExERkVXEk9aJJ68TT2K3dOlS6aR23377LW7evIn//e9/urmI8jcWeiJSMhZ6IiIisph4+TjxMnJhYWHSZeWioqKky8zdv39fNweRsrDQE5GSsdATERFRtp4/f45ffvkFu3fvRmBgIFasWIFvvvkG169fR1pamm4uIuVioSciJWOhJyIioiwePHiAU6dOITw8XNoKHxERgRMnTuCvv/7SzUHkOFjoiUjJWOiJiIgKuNTUVCQmJmLv3r3ScfDLli3Drl27cO3aNek2IkfGQk9ESsZCT0REVAA9fvwYZ86cQWRkpLQVfsOGDUhISMCdO3d0cxAVDCz0RKRkLPREZHfisbbi9agZhsm7nDt3TjoOPiQkBJ999hnGjx+P5cuXY/v27dJJ7czdxzjie5nI0bDQE5GSsdATkV39/PPPUKlUDMM4SBYvXqx7dxM5BhZ6IlIyFnoisivxxFrOzs66fxGRUj169Egq9C4uLggICNBNJVI+FnoiUjIWeiKyKxZ6IsegL/TiMfdubm5YsmSJ7hYiZWOhJyIlY6EnIrtioSdyDPpCf+PGDRw8eJClnhwGCz0RKRkLPRHZFQs9kWMwLPQifalfunSp9G8ipWKhJyIlY6EnIrtioSdyDMaFXqQv9eJ164mUioWeiJSMhZ6I7IqFnsgxmCv0ogMHDsDV1VW6BB6RErHQE5GSsdATkV2x0BM5huwKvYilnpSMhZ6IlIyFnojsioWeyDHkVOhF+/fvl0p9YGCgbgqRMrDQE5GSsdATkV2x0BM5Bn2h79mzJz766COzee+996BWqzFgwADdvYjyPxZ6IlIyFnoisisWeiLH8J///AezZs3CwoULpf/NLrVr18YHH3yguxdR/sdCT0RKxkJPRHbFQk9UsAwbNgxDhw7V/Yso/2OhJyIlY6EnIrtioScqWFjoSWlY6IlIyVjoiciuWOiJChYWelIaFnoiUjIWeiKyKxZ6ooKFhZ6UhoWeiJSMhZ6I7IqFXtkePnio+y/Kui6e49qBSERsisLBxFTdtJco7R5+3B2JuOM3kHw8DpG7zuGvNN1teYyFnpSGhZ6IlIyFnojsioVemdLunMD6Se3x1sBIFPRKb35dPMTmPp5QqYuiX/Rj3bSXJRU3YvxRvXhzzD/1BE9OzUfz4m9gYPSvwi15j4WelIaFnoiUjIWeiOyKhV6ZHkf3Q1G1Cp59Nhf4Qm9+XTzF4eWD0X+APwKPPtVNezlSkzbAt6I73vn0AB5IUx7g4NS6cK/gi7C82FvACAs9KQ0LPREpGQs9EdkVC70ysdBnylfrIu0Wov0qw6V8f2y+lbmPfdqtKAyo4IJKftEwmJwnWOhJaVjoiUjJWOiJyK6sLfTP/ziLbatmYdKIwRg4ZDSmB8bg1O/mtz4+v30SMStmYOzQgRg4dAw+D9yCE7ee627Vy3rM87ObCYhYOAnDBw3EJxPnI+L477rdle/j4q7VmDl2KAYOGo7JizfhuPS4hvd/jsdX92L1F6MxxH84Js1egz2/ZF/1rFm+1D/OIHbFdIwW7jN4xKdYHH4I17PZs/vB5X0IXTAFI/0HYtAn4zFz1TacuWO8riwdP32+sEmt4C6UWPcWExEWEYkD14yX1zz5z1XeupT1XCMP4trDK9i5ZBKGDhmFz1Zsx4WMA82f4ffT8fhq4TSM/mQgBgwYhOETZ2P1jvO4m1GIc1oXWdenMXu95k+OTkddNxe8NeUgst70GIc+rQ0Xt7qYfvSJbpqB1Gs4GBmRvk5MF9emWOhJaVjoiUjJWOiJyK7kF/rnuL59Mpr7aKFWqaBWq4WooFKp4faPrgg6ZVj2UnFj5zS8Xy59XlVG1HAp3xZf7E1B5sbKzGOeu3+xGJ2ruOjGVkv3UXvWxaRd57B17HsoKTye4eN6vj0WO3+/n3H/HjMX4aMKwmMa3r9obQwOv4SsO19bt3y9FgSjb3WPrPdRa+DTZiESsnTdezgV3Ac1iuqWwWCZ3Sq1x5zvblsxvm4+w9tUnui9KX3n7uxZ91wtX5dWPFePtvDrXx0u0nzCfdybYeF5oVSnpWDXtBbw0RqPJUTtgRpDovGrVHpzWheZzyHrMfR2fM3T/kC0X3loXBpg9qlnuomZnp2ajQYuGpT3i8YfmQ+S7nEU+noKY3r2RVQ2PwzZCgs9KQ0LPREpGQs9EdmV3EKfeikYH3lroHZ7Az2X7MHlu0/w8MYRhAysDQ+heHk2mQd9l0m9tBqdxHm1lfHR7O348c5TPL1zAdtndUBFoaxpfD5GyBX95kh9OVND61YBbadF4VTKYzz76wI2ffIW3ISx3Up7o1TljzB7+wXcefoUf/wQBv+33ISy54kPVvyAcN39XdzcUa7tdMRduIunDxPx7bKeqOYilMLibbH8QuZWWGuXz82jHBp+Eox9P/+OR0/u4MdtM/BBWY1Q8EqiW2iyrhCmISXGH68L47hX74H5287g1uNUPP3zIvYGDULdYsL4ZbvgS9njJ+KXwzGImPJ++lbpVpMRERWDw4nGW5ezsva5WrYurX2uQln3aoBxMRfx192L2LFxp7R1+v7u0XhDq4LGuzWm7xBf6zSkPriOo2v9UcdDKPluDTH3tPjYqUjMdl3oHsOo0NvzNU+7tQE9Swnr7O3pSDDt80KjP4ppdVygLtUTG4z3u396BMsH90f/wctxxM6H/LPQk9Kw0BORkrHQE5FdySv0T3H407egVbmgzqT9uhN+6dzbhVHVtFBpa+HTQ2IjeYIDk2oK82pRfdRO/GnYX9LuIH7EG9JtNYRx0ndAzixPxTutgeFe0qkXl6CVuwoqjQ96R9wy2IKaiivL28JduI/P0E0I1ZVETWU/RKcYPuA97JtQS3q8mpMO6B7vBZbvo9W4arB84u7hx7+oBxeVBhVGfJ0+//MfMKehG9RFW2LBaeNNrs9xOag9iqutH1/ecePWPlcL16XVz1WDcoNi8Jc0Te85zgT3Q7PaVdFyzgnhmRtIS8aajzykEu0Xk/k45teF7jGyFHr7vub3YwbCR61B2SHb8Sh9JiMPEefvA43aB4Ni7+umvXws9KQ0LPREpGQs9ERkV7IK/fOzmN/EDSqXtzHdZBPkMySd2I8Tl2/jkViUxJLXQJhXKPhTpIKf1dNDn6KWVgWX+jNxUhpKX57c0WrJRaGqG3i4Gb3F3ZE9PsKaG4YtDHiwqbeuzK3DOun+Wrwxfp+ukGV6dnQa6rio4NZoLqSNuy+wfG0Df8m6fIK/NvaEp1D8vPpHS8dOP/8pAC3cVHBvF2T2mOjUpFVo754+/gkrxpdV6K1+rpatyxd5rh8EXTV5rual4VFyAua3FXd790SfzZnP2uJCb9fX/BlOzKwvFHw3tFh8Afp9F7J6jguLmsNN5YL6M41+rHiJWOhJaVjoiUjJWOiJyK5kFfonO/CJuJuxR1eEmhwEbOTxdgwpoxbm7YJ1t03nTfs9FF08VFB7D0ac1Lf05ckTPTdm3WZreHxxpNGmz8wy9xW+ku7vgY+/MtyKn058vK7i45UZgu1SI7Zy+YSCaO54deNS+SR+GMpphGXWH2+dTawdX1aht/q1sGxdWv1chdfaNyKbLdVPb+J4TDDmTh6BAV3bouGbPvDQpB9Tb3zOAIsLvV1f8yfYPtRH+rGhe9ifujlM3VnfHZ4qDXyG7jD5oeRlYaEnpWGhJyIlY6EnIruSVegfb0F/L6EQefoiwrTfZGU4r7nOdj8CvkJJVxfzQ/re02YKmF4OJwzLLFX6Qi+UPYOttxmMH8+WyycwKdwxfigm/FtbtRV69++P/tlkwOBA3THTMsc3W2KzYe1ztXBd2vq5pl7fhgmNvaERxpR+CNB6oULtlug2bBoGNXGXSrN1hd6er/ljRPf3St97wPhXJwMPN/fRbdXfIu1pkRdY6ElpWOiJSMlY6InIruRtod+FkZXELfQdEHzddAtnFk92Y5Q4r/uHWGnmsmGp14LQzl0FTZXR+EbaVJlDeZJV6D3QaY3+xHSZ9I+nrTYe+8RSacvlExiXyie7R6OyRgX3Nstx2aJ9yuWNb77EZsPa52rhurTpc027jcgBFYQyr0Xljp8j/LvzuPlQP+gdrO8uLpcnfK0p9HZ9zZ8g/pNy0AjL1m39Hd0cpv4I7QYP8dwBn8RzCz2RhVjoiUjJWOiJyK5kFfrUqwj6wB1qTUV8ssN4E30qfgnqhCo1GqNn4Ak8S03Eyg89hHnLwi/mrm6eTH9u8UNZjRoeGcdd51CeZBV6DaqM/Nqg2KX7K2YQygmPV6zHekh7W9ty+QTGpTI1aTU6eKqhLtkV64yO+5fcv4jD3x3HpduPdIVZ3viPo/vDy6TEZsPa52rhurTpc32yA0N9xNLdHquSjEr3swR8/o6LVOh7hWcelmF+XZh5DLu+5s/xw5yGcFO5oemCc9keQ39uQVNpnoZzT2czj/2x0JPSsNATkZKx0BORXckq9EJpvxzUTihPapTusAI/Gm5ifJCALxqJZckHfTeJ1xxPxZWV7VFMmNerxRwkGPb/+wmY1awo1GovfLDiku5kYzmUJ1mFXgWNdyes/MngpGcPT2B+q2JSkeuTcZZ8Gy6fwLhwCy0XX35cShjDDbWGbcUNw26adheHpjeCp/DYxToG686eLm98cTd38Xr8nr3CcS99lhxY+VwtXZe2fK5P4vFJOaHQu7VEwE+GlfcpLn7VC5WkY/WzHttvfl2Yewz7vuYP4oZIP3R4+8XA/JkB7iPGz1tYd+UxdJvxD2IvDws9KQ0LPREpGQs9EdmVvEIveHAUs5oWl8pb5TYjsfDLcIR/uQDDWlaAVihKpVovxil993mYgLktSgrzauHTxB9z12zAxjXz4N+0rDRv8eZz8H1Gr8mhPMkq9GpoXVzgXrU9JiwLxcavFmFEK3HZNPDpGITzBt3UZssnMCn0gienl6O9uLVZ7Ylq7cdgYchGYXmWY1rf+vAWiqnaqzG+OKJ/AHnjP/12AqppVdBW7oyZ68IQf1b3qNmtK2ueq4x1abPnKu5y3788NCoNStb3w5w1GxG+LhDT/RqjnFsp+JRxg9poK7j5dZHNY9jxNU/7PQK9SwvrrMZkHDD8O9N7egCTamih9u6LTcYnlczhb9zWWOhJaVjoiUjJWOiJyK5kF3pB2q39WNK3Lkpr1NJWXOnEZZqSqNN7MfbfMtw8K5acg1jarx5Kaw3mda+AJoMDcSjLmcZzKE9yCr1w/54L1uKT+qUyT6rmVgFNhwYj4Y5RiRLYZPkE5gq96N6pUIx+vzLcdcsiRe2CMu/2RcC3KbotwSKZ4z84gjktSgvFVxzTBbWnHUm/DFoO68qa5ypnXdrquaZe345JLcrBJWMcNVzKNcUnXx7HxU39UVH4u/NsG4hL+gHNrovsH8N+r/ldbPWvCI3L2/jsqGmjf3r0M7ztokGloduMrr0vYKEnyhYLPREpGQs9EdmVNYU+XRoeXD+F73ZuQ9yOfTh+7Z5BYTMmzJt0Ct/Gb8P2PYdxLjn7s4Bbz6h8Pb+Dnw/txI6vD+D09QcZu2ebZ+/le4Y7lxKwN34rYrftxqFzN9Ov1f+iniTjh33bELM1Ht9duJPLc9Sz5Lm+yLq00XNNu4/E4/uwY+s2fH3wHFJyK7my14V9XvMnx2aivpsW1cft05V8vYfYO646tO4NMfuEuc33whLd+gpdKvrrLplnPyz0pDQs9ESkZCz0RGRX1hf6/CbnrakkB9el1dJuYcvAKnAp0wsbkjN/Vki7EYaeZVzwD//Y9JMymkjFjfA+qNZhJX7J/pcxm2ChJ6VhoSciJWOhJyK7YqEnU1yXLyL1aih6lnfHO1MPCmtS9BAHP30b7hV6YX366fNNPTuJhT37IfhU1u369sBCT0rDQk9ESsZCT0R2xUJPprguX0wqkjb74fVSrbDo9FM8Pb0IrUq+jgGbknI4LOXlYaEnpWGhJyIlY6EnIrtynEL/HNcORCJiUxQOJuaH2qRkXJcvLO0ezu+OxLbjybh5fBsid53DX9acS8AOWOhJaVjoiUjJWOiJyK4cp9ATkSVY6ElpWOiJSMlY6InIrljoiQoWFnpSGhZ6IlIyFnoisisWeqKChYWelIaFnoiUjIWeiOyKhZ6oYGGhJ6VhoSciJWOhJyK7YqEnKlhY6ElpWOiJSMlY6InIrljoiQoWFnpSGhZ6IlIyFnoisisWeqKChYWelIaFnoiUjIWeiOyKhZ6oYGGhJ6VhoSciJWOhJyK7YqEnKlhY6ElpWOiJSMlY6InIrljoiQoWFnpSGhZ6IlIyFnoisisWeqKChYWelIaFnoiUjIWeiOyKhZ6oYGGhJ6VhoSciJWOhJyK7YqEnKlhY6ElpWOiJSMlY6InIrljoiQoWFnpSGhZ6IlIyFnoisisWeqKChYWelIaFnoiUjIWeiOyKhZ6oYGGhJ6VhoSciJWOhJyK7YqEnKlhY6ElpWOiJSMlY6InIrljoiQoWFnpSGhZ6IlIyFnoisisWeqKChYWelIaFnoiUjIWeiOyKhZ6oYGGhJ6V5WYXeyckJ8+bNY+yQ+fPn486dO7q1TVSwsNATkV2x0BMVLCz09vXrr79i165djA3zwQcfoFGjRro1bB9Hjx5Fu3bt8OGHHzJ2iEqlwvLly3Vrm6hgYaEnIrtioScqWFjo7euNN96QyouPjw9jo7zyyiuYOHGibg2TErVq1QpLly7V/YuoYGGhJyK7YqEnKlhY6O2rRo0a2LRpk+5fRCRioaeCjIWeiOzq559/lrYmeXl5MQxTACK+30eNGqX7BCBbY6EnMsVCTwUZCz0R2d3x48dx8OBBhmEKSJ48eaJ795OtsdATmWKhp4KMhZ6IiIhIIVjoiUyx0FNBxkJPREREpBAs9ESmWOipIGOhJyIiIlIIFnoiUyz0VJCx0BMREREpBAs9kSkWeirIWOiJiIiIFIKFnsgUCz0VZCz0RERERArBQk9kioWeCjIWeiIiIiKFYKEnMsVCTwUZCz0RERGRQrDQE5lioaeCjIWeiIiISCFY6IlMsdBTQcZCT0RERKQQLPREpljoqSBjoSciIiJSCBZ6IlMs9FSQsdATERERKQQLPZEpFnoqyFjoiYiIiBSChZ7IFAs9FWQs9EREREQKwUJPZIqFngoyFnoiIiIihWChJzLFQk8FGQs9ERERkUKw0BOZYqGngoyFnoiIiEghWOiJTLHQU0HGQk9ERESkECz0RKZY6KkgY6EnIiIiUggWeiJTLPRUkLHQExERESkECz2RKRZ6KshY6ImIiIgUgoWeyBQLPRVkLPRERERECsFCT2SKhZ4KMhZ6IiIiIoVgoScyxUJPBRkLPREREZFCsNATmWKhp4KMhZ6IiIhIIVjoiUyx0FNBxkJPREREpBAs9ESmWOipIGOhJyIiIlIIFnoiUyz0VJCx0BMREREpBAs9kSkWeirIWOiJiIiIFIKFnsgUCz0VZCz0RERERArBQk9kioWeCjIWeiIiIiKFYKEnMsVCTwUZCz0RERGRQrDQE5lioaeCjIWeiIiISCFY6IlMsdBTQcZCT0RERKQQLPREpljoqSBjoSciIiJSCBZ6IlMs9FSQsdATERERKQQLPZEpFnoqyFjoiYiIiBSChZ7IFAs9FWQs9EREREQKwUJPZIqFngoyFnoiIiIihWChJzLFQk8FGQs9ERERkUKw0BOZYqGngoyFnoiIiEghWOiJTLHQU0HGQk9ERESkECz0RKZY6KkgY6EnIiIiUggWeiJTLPRUkLHQExERESkECz2RKRZ6KshY6ImIiIgUgoWeyBQLPRVkLPRERERECsFCT2SKhZ4KMhZ6IiIiIoVgoScyxUJPBRkLPREREZFCsNCT3qLFAXj3vYZo0KhJgU+JUqVRqco/zN7GMPqI75fY2FjdO8hxsNATERERKQQLPem9U68+Xqv+FgbNDmIYxoIUeaU4Bg/2172DHAcLPREREZFCsNCTnri10X9eMLb/BoZhLEi7ASNZ6ImIiIgo77DQkx4LPcPICws9EREREeUpFnrSY6FnGHlhoSciIiKiPMVCT3os9AwjLyz0RERERJSnWOhJj4WeYeSFhZ6IiIgcys2bN+Hbuw+6du/BKCRexYoLRe49s7cx9s327Tt075z8wfJC/wzrdm/FkCmfoWM/PzTrPgTtRy/BqMgrCE8xN79jZ9Plh2anW5rYhIMYvzICY4MMsnIzxgXHYHLYPszffwuRZu5XEPKi6zanmF3vQZswdlU0Jq3fhwWH7mCLmfsZhoWeiIiIHEp0dDRUKhW6jJrGMEwOcS3iiS7duuveOfmDJYV+0/4odG71OtzUKum97qRWSxH/W6X2gE+bWZh+MtXsfR0tcedPYOSw9nitZyQ2mbnd0kSu7pexPs1GrcUrb3ZBl+AfEWHm/o4YW63bnJL7eveAd+PRGLXngdn7i2GhJyIiIociFvryVaqZ/eLDMExmuo7+THGFPmrfajQor4WTxhvVei/BpB1XEZaYitirv2N55Jfo2Lg8Cgnl3v3dzzH7J/NjOFL0hdC1y2abFHrnxlMxLiQGE3WZEByBkQuWoKvv+/B2V0OlKYe6M07YreDmp9hq3eaU7Nb7RHG9z1+Iju1qoYjw96yp7I+JP6SZHYOFnoiIiBwKCz3DWBbFFfqkH9CnQVGhzJcVSuVJhJub59IR9KgvzKP2QLVJJxFtbh4Hiq0LffbjpGJd5HS8WUwNJ7d30XWr/XZDzy95mYU+28dIvo5RncQfqdxRY9qPiDEzDws9ERERORQWeoaxLMoq9GlYHzIIJTVquDVbjsAbxrdnZuP6YXhVq4Hne/Ox6Lrp7TFnTmLirBno0GcgWvYZg26ztmDh6edG8z1H8JZIjF0ZhdkJqYg9dwaTZk1He+E+rQZ8in4rDmHNVcP50xNz7iymzJ2FTgMGo2Xv0cLYMVh01nD3f924wQcRfOUKps2YhNa9R6HrrO1Y/lPmFtiIQ/swYuoUtPMVHq/vePScuw0B503HGTWsFZzFLbwNJ2JUUCRmfZ/1eeQ+TnosK6/PsHxGW7ir1fDqtBFrjc5VYOlj6ZP7ujKYV85rluO6fYbQPfEYPm0a2vcdiObdB+GDobMxJPQ8NmQ8H8vWbe7LlPvyWLLew5b3gKtKDY/uMWbPY8BCT0RERA6FhZ5hLIuyCv1fmNCjDJzUXqi/OBlxJrcb5MYtBB24jSiT21IREjYNtcpo4ZTlWGU1Cvu0RY9NKQbjPsS4Lp5QqYui8dRgNKvqkfU+ag2KNV2I+Vf08z/HmnWT8aZ3+tjpx/Wnj62t2BWDdum3aOvGdW+Llt2qo7A0jzC/WzP03SeWwXtYNK8PynumnxMgyzjl28M36rZuGXXj6JdHiiearNQfa23pOOmxdGt03LkINCkhjFWiN8ae10+X91iWrysxVrxm2a3blBR8NqoFimmNl1OI2gPle0cjJNlgnIzHEmO4bi1dptxea0vWexrWzOsAF5UW5YYdMLvHCQs9ERERORQWeoaxLIoq9Ne/R9eaLlC5NkLvPVm3lFqa2IOr8W4pDZy0lVFv4nYsO/8U0ecvYMrEDigllLxC3h/jk8P6LcT6UieUTPdyqNY3GDP2/47NiXewbN0M1HlVI5TAkmiwJP3HhdiDwagnju36Bhp9vgdBF55g04kj+KRnbbgIxdG1/jzd3gKZZdGpaAN0CLmIjRcu4tPAnQhOTsPaEH/4CMviXLUH+qw7g6+upiL6x4uYMWcQqrwiLOOrXTBMWsZUBG+NwZjh76dvRW48GWOCYzAnQVw3csZJXzeWFvrtyRcxoLE7VNpa+HjrU2Ga/MeyfF1Z+5qZW7dAePholNWqUKhUa3QLvYD1SWmIvXwdcxf7o6J4fgDXhvCV/rZyWrdylinn5RHHym29R30fi3a13OHk2RS9vxbXt+k8LPRERETkUOQVel76Sh9e9sp+sedlr0xy/SpmBW+SdhWfdcR8AdBHUYX+ahzeLyWUriI9MOpHo9ssyhPMGlYTGnFLp99OhBm+v1PuYOqAN6Tbyg/br9uyn1noPdqsxipdAUvPMywYVw+FVRqUHPC1MP9TzBnxlnB/F1QU7p/lLPAXd6FdFW16AY4VXw/9uBqU6BWDjYbz3vgBvnXdhPLWEn32PM6cLuU5gua0h4facBmzKYS2Gsds7mFMJ2H51SXRMkQYW/ZjyVlX1r5mZtatsCwB8/rhzTerouakE1kvBZeSjKFtPDKfk266+XUiZ5lyWp706B9DU6klGn/cG0306dwD7zZ9F6WLiFv9W+KjkCvZng+ChZ6IiIgciqWFnpe+Sg8ve2W/vIzLXhln47pP4K0R17kGpXpvxQYz8+ijrEIfgxZeYqH3xdjLRrdZErF4vuMmlcXOUlnMent07KeooFWhcJ2ZRlvS3VF71i+INZp/Y2BP6bhm927RiLxxFr3rC2M7v41u259lmU8s/6t37sfCQ7exWSp/mePWmX01y7gx+wNQw1UF5xZBGVtwDRN7bBXecUtfxoW6LdjmSqetxjGfRxjfRTzpYFE0C34k/7HkrKsXeM2M1232ScPmkwno3Vw8pMITTVdl/vhmdp3IWqbclyfXz03hb6xQ0Tfwtn8YAi6a3l8MCz0RERE5FEsKPS99lRnLv8jnHP04vOxVZmy1bi1OSgpGfVQahdzqoGoNDxQq0QMjT5q/1JUYRRX6xL1oX1EDlXtHDD2e/XPKNle3o3Vp4e/PvQuGnzG9f9zZULznroJTqcGYLJ3sTlfGhOKaeex0ZrK8tok70EbcBd+9K0aey23Z9CXPE02C7me5LSpsGEpIP8bknMxlNP83ZqtxzEb4GxvW1kN4H5dH27An8h9Lzrqy9jUzs24zknQTC0KC4Tt8BJp/2BbVXveBi0b3Q654P4PX2uw6kbVMuS9Ptus9+Rk2/3gdSyPXo0vLStCoNSj98UazP5qw0BMREZFDybXQ89JXWWLxF/lckvs4vOyVuXlsmdjDQXjbUw2PdiFYsLgrPNWeqD3rUrZbKhVV6JOvYXAL8djt6vgoynTLaNY8w5o9JxB80eBY+6tb0LyoUMTELfyXDOfV5VIEmhQRitgrfphoVOibrTbeldzotTUcO9e9B7IfNzLED0WEMTWVWqFJt/5onl18AzE3SXcfM39jthrHbJIOonM1LVSuzdHvu+fyH0vOurLxaxZ7fBs6vuuNQsLySj8yaL1Q8s2WaNBvGlrVd5e20Ode6OUsU87LI8ai9X4hHh+IhyK4NoDvbtPzR7DQExERkUPJudDb5tJX9rzslZiXc+kryy7N9DIveyXGXpe+UuZlrzLHyu21FudbPKkhtOoyaBp0G7FnN6FpaTUKvz3L5O9XH0UVemG9L5rYAIVVLqg6wegYaOMkHkAnoXQ6FWmAnvG63boTd6NdeQ1Ubh/CX3g/Gt8n9vsgvO2mQqHXRuPzRHGajEKfuCt9bPcOGJLr3gPZjxsVPlo6XMK56XIEmdkSay7m3ne2Gsdcord/jirOKhSuMQ1zhb8r2Y8lZ13Z8jVLuY1x3SsIZV4L79afY0zUeay9oh/zDkZ2EO5nSaGXtUw2KvS/3dedt6AYmq95ZHI7Cz0RERE5lJwL/Yte+sqel70S8zIvfaUbQ788Ugy/0L7My16Jsdelr5R82SsLlkk/39XvpBJbqKw/JkuHifyFyb5CgdG+iY6RpiVAjLIKPRDzbQBqFlFDU8kfE09nVwbTsDbYD6WFkqmpNgmz9D+aJSfCv6XwHtSURcuQu0b3AcLW+KG4Rg2XjGPBdevdkkKffBWDWrgLY1dEm9DMQpieVKyc3Qne1Rqj0Szxh4jsx409thp1hefnVKwrhp8w8/wuXcScqONYceZRxt9H5Or+cNcvh26adeNY8P5NTsLozhWFUuyB6lNOI0aYJvux5KwrW75miTvQ2lss4u3hf8yoiF9PQLdaLtJ7tPGKvzKmm1u38v6Ocv4bEmPRer/xI/o1EI/bfx0dNpvuncJCT0RERA4lx0L/gpe+sudlr9LHf5mXvnqaTy57JU6336WvlH3Zq9yXSb8+Nnw1RCixWvgM3pOx/jdFjBHWqQYlfWMRpptmGKUVevEs4tP8aqCwWnhObRZhjsmeGGnYuHMF3hO3oGrKoWGA4YnIhLI4tz2KCH8b7g3nYL7h7t6XEtDzPfEQGy/UyThEIecylvXvPRVBs9tJe5688v4KLJO2FutyOQE96okF0AfNVhr8kGZuXKEwD2tXSlgON1Tot1X345AuKXcxe0wjuAqPUaR1cMZZ98Vd3j3F5fgoPPPwIWvGyeX9G3slHVcAAFFPSURBVPfTj5gwrCW8hLKqrT4O03/UlXfZjyVnXdnwNUuMR5sywt+Fa0v032/42f8UKwJ6ST8AqVQeqB9wK/NHDnPrVtYy5fw3JCbXz82Uv7B4bg94C587mmrjMcPMYQos9ERERORQciz0L3TpK3te9kqcljeXvjL7hVL2pags+GKaEaPLXonTZD+epevqL4Vf9kqcntMy6ZJyUzoZnpNzbXTZ+iRzetJRdK3hAqcS3c2eHE9xhV5I3E9H0LuZDwqJezOUrodGQ+ZjUMBGjAlYgR5926GsuIeHUKiq+MVlLZdiriTAt2FJoXBpUay+P3wXbMDoBfPwfv2y0AgFzaPBHMzLKEw5lzGT1/byUfSsX1wqtt5NR6LvonCMWbQAbRtVkMYu2mQxFllwnHfUnuV4R9ySrPaET6sx6LtwI0YHLEfXLvWFMi3+qNMYPbZmbtmOjpoAH7HsVeiMngFhmPpN+p4pcsfRPx+Ty6d16oZ6Terj1VfEvUnEH9x8MXRP1j0+5D6W5etKiK1eM3GX+27lhb8bDTzr+AnjiH8zgejWvTFKuJZCsdLC54/KDdWnnpP2PBDvk926tXyZcn6txWS73sV07IQa1bylvXKcitZDh7DMHxsMw0JPREREDiXnQv8Cl756gUso5XrZK3FaHl36ylzpfJmXvRKn2e3SV0nWv2b547JX4rTclyn2UCDqFFFDW3cOFmc5L8RzBExuBK1QtN764qLJfZVY6KVc+QkTx/uiahnxRGZZD1lwr/IB2i9IQKiZvyMxcWcPYkDXenhFm37YhLTng1sFVPcNxOwsZy3PuYyZe23jTu9H/y518YrGYGxNSVT8eDFmnTba4yKHkhe+KxQfNq4s7d2hH0eldoFXnb7oH5WS9XW8fEQol6WFoirO54KKo45k/NgkZxz988mYT4oaTloPFHn1dVRp6ov2n21BwI/Ge0WkR9YyC7FsXenmtdFrFnt8Ozo1LJdx2Ip0iEuZpmiz6DhWrOyPUsKyuDYLxAr9304O69ayZcr9tTa/3oWoNSjsWRre1ZvjvX5zMfbrP8y+98Ww0BMREZFDybHQv8ilr+x52StxmpzLOenHFgrki176ylwxeZmXvRKn2e3SV4q/7JU4LbdlEk8W9x4Kq7Tw6bQQY4IiMNYgY6b1lrYyGv74oo9iC70+SXew8uv9+GxdLCat24VZu68jPJsinzVpiDh2Cl+EbcOUiMNYetL8OQasizD28VOYKYw9OXQfFnx/L9silnOeYf3BBMxYv1V4brsxe+9N3Y95ZpKYjMWbt2Hi2njM/O6O0VZcGeO8cOQ+lpx1ZaPXLOU+guP34dO12zAt5hzW6j6/sk2O69aef0eWh4WeiIiIHEqOhf5FLn1lz8teidPy6NJX5krny7zslTjNbpe+Uvxlr8RpOS/T9l++RcfXhfVp8MOH2Qh/8x02Z+49IEbxhZ5hGBZ6IiIiciw5Fnppa6aVl76y52WvxGl5dOkrc6XzZV72Spxmt0tfKf6yV+K0nP+ONnzpL+0q7NliGkYHR2G8mYwZ3Q5F1RqU6BmT5eR4LPQMo/yw0BMREZFDybnQv8Clr+x52StxWh5d+iqvL3slTrfbpa9mxMBP0Ze9Eqfl9CNDMkZ2KCWN1WK18e7ABvkxBq18NCbrl4WeYZQfFnoiIiJyKLkVeusvfWXPy16J0/Lm0ld5ftkrMXa79NUNrFD0Za/E6dkvU+zB5ahdRI1Crw3HVHO772fkAaYNqAqN2gNvzfg54zhlFnqGUX5Y6ImIiMih5FrohVh96St7XvZKTB5c+io/XPZKjN0ufaXoy16JyW6ZnmHhhPrSyfDKDf02/UoJOSRqy2Td2fO/wALdoQ4s9Ayj/LDQExERkUOxpNBLsfLSV/a87JWYl37pq3xy2Ssx9rr0lXIveyUmm2X6ZR86VtVC5VwX3XbkdoJHIdePo0cdF6i0b6BDRPoPCyz0DKP8sNATERGRQ7G40Otj1aWv7H25opd86at8c9krMfa69BUve2UcFnqGUX5Y6ImIiMihyC70DFNAkx8L/dt130XzbgMwduVmhmEsSK0m72PQoMG6d5DjYKEnIiIqoFjoGcay5MdCX+utOnilpDfK/qM6wzAWpEhRLwwcOEj3DnIcLPREREQFFAs9w1gW7nLPMMoPd7knIiIih8JCzzCWhYWeYZQfFnoiIiJyKCz0DGNZWOgZRvlhoSciIiKHwkLPMJaFhZ5hlB8WeiIiInIoLPQMY1lY6BlG+WGhJyIiIociFnrvsq9hZvR+hmFySONOvujcpavunZM/sNAzjLyw0BMREZFDEQu9q3sRFHmlOMMwOUTr4ooOH3XSvXPyBxZ6hpEXFnoiIiJyKNzlnmEsC3e5Zxjlh4WeiIiIHAoLPcNYFhZ6hlF+WOiJiIjIobDQM4xlYaFnGOWHhZ6IiIgcCgs9w1gWFnqGUX5Y6ImIiMihsNAzjGVhoWcY5YeFnoiIiByKcgp9KoJjozA2KBKzvn9u5nbjyJ1fbnIb/xFWb4vFkEmT0K73ADTr4oc2/p9jQOA+rLiYZmb+9Gy6/NDsdLmx1ThMZljoGUb5YaEnIiIih6KcQv8YE7oXg5PKE01WPjBzu3Hkzi832Y8fd2Y/+rSrBle1CiqVELUaTkKk/1apUbjs++j05S+INrzP+RMYOaw9XusZiU0G0+XGVuMwpmGhZxjlh4WeiIiIHAoLvbXJZvzkaxj5UXkUUruhTJsZGLv1EkJ/ScX2lCdYf/gIxk3shnJuQsEv0gDdtmbeL3J1P7ipVXDtsvmFiritxmFMw0LPMMoPCz0RERE5FBZ6a2N+/Jg98/CGqwqFq0/CzMvG9xHzBAFTW8BVrYZn+1B8mZI+nYU+/4eFnmGUHxZ6IiIicigvp9A/Q+ieeAyfNg3t+w5E8+6D8MHQ2RgSeh4bdIU2a55gzZZQ9Bk+Eq19R6LLzK1Y+tOjHAq63PmBiEP7MGLqFLTzHYhWfcej59xtCDifajJfeiwfP/LLgSgqFuoOYVifZYzMxH4fhLc9tdCWHYapic8RvCUSo4a1grNwP+eGEzHK5Lh8S9afJePIfd65JPkaZgdHYGzwQQQnm7ndwcJCzzDKDws9ERERORS7F/qUFHw2qgWKadOPIRePJXcSCmf6seUeKN87GiGGZfDGVUwYUA8e0jzpx547Cf9bpPYnaN2iqGlBlzv/b/ewaF4flPc0Xh41tOXbwzfqNuIy5pU//pa4aajorEKhVz/GkO8eZ46TbR5iXBdPaVkyYzCmxesvl3HkPm9LcjUKzYoIYxTpi/FXzdzuYGGhZxjlh4WeiIiIHIq9C314+GiU1QoFt1RrdAu9gPVJaYi9fB1zF/ujortQLl0bwnePfityKlbM7YCiQtl0eWMAhsT+is1J97AyYhEaVHIRyrNxSZU7fxrWhvjDRyjHzlV7oM+6M/jqaiqif7yIGXMGocoraqGId8Gww/ot1nLHF3L9PPyal5RKf6FiNVG332x88tURrDj/NHOeLElF8NYYjBn+fvqW9caTMSY4BnMS0teJ5esvp3HkPm8Lk3QEA337o7nvcsxNMnO7g4WFnmGUHxZ6IiIicij2LfTPETCvH958sypqTjqBLYa3pSRjaBsPqNQl0TJEtyU76Si61HCByvltdInNetm1DUKxLScU2ywFWu78N36Ab103OHm2RJ89xlvPnyNoTnt4qLUoP2w/osRpcsfXJfbkHvRqY3CWe3GLuLYYXq3bGe+PXoGJ8TeznOFejPlj32WuPyFmx5H7vBmzYaFnGOWHhZ6IiIgcSt6cFC8Nm08moHdzD2mX9aar0styzL4FqC6eUK7mZ5h33eg+SYfQ+Q1tlgIte/79AaghzO/cIsjsMd+xx1bhHTdhvDozsVAYT+74WfMQwVvC0W9Ib7xV3Ufaap6xK7y6OCp1W4n5FzKvRy/vZHbm158Yc+PIfd7GtzPpYaFnGOWHhZ6IiIgcSk6FPjbhIMavjMDYIMOYnmgt1yTdxIKQYPgOH4HmH7ZFtdd94KJJP5bbsBBHrf8EJTQquHy4DuuMT5aXchvDP/R4sfnDhknzZxTrbOJUajAmX5U/fvZJRfj3CZgasAAdOtZHcWfxuWtQqtOGjIKdY6G3cP1lN47c553xuEyWsNAzjPLDQk9EREQOJadCry+HWYufJQU2M7HHt6Hju94opBvHSeuFkm+2RIN+09Cqvru0hVk/XmSIn3TyOddOEQg3Gmf7b48wrkvWk9BZM38RYX5NpVZo0q0/mmcX30DpmHC541uWVHy1eSreEE9OZ3D+gOwKvZz1l904cp+3fiwma1joGUb5YaEnIiIih5LjFvpjRzBxdRTGBxsm84RtuSblNsZ1ryCUUS28W3+OMVHnsfaK/sRrdzCyg3hW9sxCGr15LMpos9k1PCUFwz7IukVc7vxR4aPhrRHmb7ocQWZ2PTeO3PG3J8ajTRkNVG7t4J+QwwnmUm5heDvhvupiaL7mkTTNbKGXuf6yG0fu82bMh4WeYZQfFnoiIiJyKHY9hj5xB1p7iwW3PfyPGRXc6wnoVstFKqSNV/wlTYs79RXqF1WjUJmBmHjBYF4xv+zGhxWFsQwKrNz5Y4+tRt0iajgV64rhJzKPX8/IpYuYE3UcK848ki7hJnf87cmJGPK+J5yEol533lXEGs5vmJRfMbS1UOi1r6PD5vSz30eu7g9340Ivc/2JMTeO3OdtcjsjhYWeYZQfFnoiIiJyKPYt9Lot1q4t0X+/4Vb9p1gR0AulpeO6PVA/4FZ6kUxJxqiPvKVCXHPKcUQYzB84tzO8pPkNCrTc+ZOTMKxdKWF+N1TotzXr9e9T7mL2mEZwVatRpHUwVom3yR1fvDzcqv4oJUwvVKY9+sTeNlPqnyMkdDQqu6mhqTYBX1xJny7uFu8pFvGPwjN375e7/oSYHUfu89bfxmQJCz3DKD8s9ERERORQ7FroxV3Gu5VHIZUGnnX84LtgI8YEBKJb98Yo4VoKxUq7wUnlhupTzyFGd5+oPUtQp6QGTtryqNF/IYYtD4Xf0PYoU6QMSnhrTY4Zlz//crwjbvVWe8Kn1Rj0XbgRowOWo2uX+lJBdyraGD22Wj/+9uRfMal/HemSdU7O5VC1w2j0mvUlRq0Ix4i589CxU0OUcFbDybMeOoRlFvHoqAnw0aqgqdAZPQPCMPWbh1atP7PjCNPlPm+LcjUKzYqooCrSF+MLwMn0WOgZRvlhoSciIiKHYtdCLyT2+HZ0algOhYWCm35SPTUKl2mKNouOY8VKcWu2Gq7NArEiY8twGr6KWowmtUpDo7uPk3MFvDV2O4Z0LWZaoGXPD4TvCsWHjSsbXUrOBV51+qJ/VIrRVnX5429Pvo25C8aibrVSGffRx8m5FMq3HIUhW4223l8+At+GpYXyLs7ngoqjjkjXnZe9/rIZR7xN3vO2ICz0eY6FnmHkhYWeiIiIHIq9C72UlPsIjt+HT9duw7SYc1hrSfm78SdW7tiHqaF7MP/o/dyP7ZY7/2/PsP5gAmas34pJ63Zj9t6b2Gx8aTrDyB5fzBOsP3QCszZux6SQOEyL+h7LfnhsZj5dEpOxePM2TFwbj5nf3cl8DLnrL7txpMh83kxGWOgZRvlhoSciIiKH8lIKPcM4QPJjoa/9dl3UbNwKnT6ZxDCMBan4Zm0MGjRY9w5yHCz0REREBRQLPcNYlnxZ6Ou8g8pv1UXTj/swDGNBylSsykJPREREjoOFnmEsC3e5Zxjlh7vcExERkUNhoWcYy8JCzzDKDws9ERERORQWeoaxLCz0DKP8sNATERGRQ2GhZxjLwkLPMMoPCz0RERE5FBZ6hrEsLPQMo/yw0BMREZFDEQt98dJl0P/zJQzD5JCajVqi08dddO+c/IGF3j7ZdPmhwb+fI3hLJMaujMLshFSD6fkgKfewLDwSk+Nv4Mv4OIzbeA4bU8zMx2SEhZ6IiIgciljoPV4phlqN32cYJoeUKvcaOnbqrHvn5A8s9LZN3PkTGDmsPV7rGYlNGdMfYlwXT6jURdFs9eMs8+dtUhES4o9yXs3RZ9cTRO2ajze93kDL1b8i1uz8jBgWeiIiInIo3OWeYSwLd7l3/ESu7gc3tQquXTYbFPqnmDNzMJp398fAuKdZ5s/LxB7bgCbl3FF5xAFESNMeYPbIunAu64tR+W1PgnwUFnoiIiJyKCz0DGNZlF3ohVI6oz8adwnA7CRztzNizBf6fJiUW5jQozIK+/THuNNpGdPjTkeheVkXlO4Rja+4673ZsNATERGRQ2GhZxjLouxC/xgTuheDU5G+GH/V3O3WJebMSUycNQMd+gxEyz5j0G3WFiw8/dxoPsNj0J8j8uheDBk3Gq19h6PTxDWYfsTwePWsiTi0DyOmTkE734Fo1Xc8es7dhoDzhlufdWMHH0TwlSuYNmMSWvceha6ztmP5T5lFd/tvzxC6Jx7Dp01D+74D0bz7IHwwdDaGhJ7HBqn4po8zalgrOAuF3rnhRIwKisSs78XnkvMx9PLXQSpiz53BpFnT0V64T6sBn6LfikNYI+N1iYqbjiquLnht+EFEZrntMWaPqI3CrnXRLe6JwXRGHxZ6IiIicigs9AxjWVjoDZOKkLBpqFVGCyeVCqqMqFHYpy16bEpBXMa8mcegN5ywCPXKCvdRq6WI93HyrI1WKy4hOsv497BoXh+U99TNI82fPr62fHv4Rt3Wja8b270tWnarjsLSPML8bs3Qd5+uVKek4LNRLVBMazyWELUHyveORkiybhxxWkY80WTlg8zHMDmG3rp10HhqMJpV9ch6H7UGxZouxPwr+vlzSMofwmtZHoWcG6DXrmcmt2/ZNRuvO2tQons01nMrvUlY6ImIiMihsNAzjGVxhEKvcu+BdksiseX6v83MY3liD67Gu6U0cNJWRr2J27Hs/FNEn7+AKRM7oJRQnAt5f4xPDuu3ZuvLslB0Xd1Rotl0TP7uLqKvJOKLL3rCx1ko2F5tMfA7/VbtNKwN8YePMI5z1R7os+4MvrqaiugfL2LGnEGo8oow/qtdMEwaP7OIOxVtgA4hF7HxwkV8GrgTwcnpyxoePhpltSoUKtUa3UIvYH1SGmIvX8fcxf6o6C6UfNeG8N3zBMFbYzBm+PvpW+gbT8aY4BjMSRCXyXyht3YdaN3LoVrfYMzY/zs2J97BsnUzUOdVjTB+STRYkmzwI4D5xJ3egEYlhHVZczrmXzczz/Wj6FrDBU4lemKUwe74THpY6ImIiMihsNDbL4q49BUve2VxFFXok69hdnAExgbpE4Y2dd2hKlwFTUbPMJiu363c6P455glmDasJjUqLcn47EWb495JyB1MHvCHdVn7YfkRJ0zNLd6EKfpjwg2HJvIcZQ2tJ81cYdiB9/hs/wLeuG5w8W6LPHuOzyj9H0Jz28FDrx9ePrUGJXjHYmGXe9PkD5vXDm29WRc1JJ7DF8LaUZAxt4yEV6ZYh6Y9j/hh6c4Xe2nWghkeb1Vil+7EhPc+wYFw9FBaeQ8kBX+vmzz7hIQNRTK1B8d7bsdnM7eJjTfb1QSG1D1p9ed/M7QU7LPRERETkUFjobR/lXPqKl72SE0UV+qtRaFbEYJfubKPfrdzo/jlFLNzvuEGlrYXOsaZnfY+O/RQVtCoUrjMTi6QtyPoyq0XZIftMCuuWuGmo6KyCtt5cBNwAYvYHoIarCs4tgjK2shsm9tgqvOOWPv7C6/qx3VFn9lUZf7dp2HwyAb2bi7u+e6LpqvQf3ywu9FavA3fUnvWLyXJuDOwJV6Hsu3eLNjom3jjPsHBCfaH8u6HGZxcQY3ae51g+rTm0KhdUnWD0IwbDQk9ERESOhYXe9lHKpa942St5UdYW+iTMCYnC2JWb0Xn4FLTs0R/t3ysCJ7dW6LwiCuOD9dHvVm50/5xydTtal1ZD5d4Fw8+Y7tIddzYU77mr4FRqMCZLx+vry6wH6gfcMtmlXJy/gTh/6SGYIswfFTYMJTTmfnzImvTx9WN7oklQDlujk25iQUgwfIePQPMP26La6z5w0aQfU2/4o4bFhd7adSCMYe4HFMvPrv8EU/r4SD9CNFz2p5nb07N+WXe4qjQo1mdHrlv8C1pY6ImIiMihyCv0vPSVJbH8y3kehpe9kh2lHUMflfgvjA4Ml4p7bPJ9250U7+oWNC8qlNkivhh7ycztlyLQpIhQZl/xw8QshV4ozrot4TnNHxnihyLC+0dTqRWadOuP5tnFNxBzk8yUbaPEHt+Gju96o5AwpvRDgNYLJd9siQb9pqFVfXepHMsv9Faug2yW0/LPjMeY0M0rfa+C4Edmbk/PplV9dFv8t+Syxb/ghYWeiIiIHIq8Qm/7S1/l/WWvxOjGz/HSV7ld9ipzHLmXvuJlr5QRJRX6sB//xKBZKzBry0HdNBu+dxN3o115DVRuH8LfzJ4csd8H4W03FQq9NhqfJ4rT9IXeA+8uMD3pm35+TZXx+CJJ+NsMHw1vjfD+abocQWZ2uc+aXAp9ym2M615BKPNaeLf+HGOizmPtFf0y38HIDuJyWVHorV0HL1zon2Bq33IoJCxzg2V3zNyenvVLu8FFPK9A33huoTcKCz0RERE5lLwr9PnlslcG42d36SuLLntlMI44PSP6smDuCz0ve6WkKKXQrzx8BX2nLZL+N3O6Dd+7yYnwbyn8/WnKomXIXZPbw9b4obhGDZeMY+D17wsNvAd8bVJYN4YMQglh/iId12Od8PcWe2w16hYR3mPFumL4CdPd2bdfuog5Ucex4swj4f1h7n1lkMQdaO0tFu/28D9mVLyvJ6BbLRdhuTzReMVf0rTI1f3hbkmht3YdZLOclhf651g8qSG0KjdUn3ou22Pol05tKs1TbfLpbOYpuGGhJyIiIoeSV4U+/1z2ynB8oaybufSVZZe9Eh87Vdalr3jZK2Ulvxf6bbf/lrbID5wZiLALxiXzKebOHIim3Zfa4HCZVKyc2x5F1Gq4N5yD+ZcNbruUgJ7vFYWT2gt1Zl3Snfwt8/1VqFQn+O83OIfElRPo01j4TBGKcdMg3fH1yUkY1q6UMIYbKvTbqvuxTJeUu5g9phFchccu0joYq/TXj8+20MejTRnhveHaEv33G+718hQrAnqhtHSsfuax/eLu/p5isf4oHOEZ85p7DCvXwQsXeiDiqyHSDyBePWIMltEw9zGxu7ewTsuj9TrT4/ULeljoiYiIyKHkWOjNXPqqc2MPOLm1RKdlhtPlXvoqP132SpymH9/cpa/kXfZKjGW77fKyV0pLfi70scmpGLcqUjpmXjx23tzy2zRXEuDbsKRQWrUoVt8fvgs2YPSCeXi/fllohJLr0WAO5mWU3My/XY2zC5wrtUfHL0IxOmARPmhcQZhfg2Ktg7DU4IeGqD3L8Y64ZV3tCZ9WY9B34UZh/uXo2qU+vIQS7lS0MXpszW7PF4OIu9x3K49CwnvDs46fsJwbMSYgEN26N0YJ11IoVlr4nDDY2h0dNQE+WhU0FTqjZ0AYpn4jHs6TzWNYsw5sUOjjzkagSUlhXVabjFnmfpxJOoBO1bRwKtUXY8/xBznjsNATERGRQ8mx0Nvr0lf56rJX4jT9+HIufWX+sldiLCr0vOyV4pJfC32/6QHwn7sKn0d8g603/2t22e2RuLMHMaBrPbyiOxRFjJNbBVT3DcTsLGd+z/zbbzR1LdrUKZV5gjpXYf4+wZh/3rR4hu8KxYeNK0t7u2R81qhd4FWnL/pHpVi05VtM7PHt6NSwXMahNNKePmWaos2i41ixsj9KadRwbRaIFeJnxeUjQkkvjULSfC6oOOqI8Pef/WNYsw5etNBv/+0uJvtWRCHnt9HVzBUzouM+QyVnDUr32WbmuvwMCz0RERE5lJy30Kdf+irzElcR+LiJuIX+BS99la8ue2U4vmf2l76y8LJXYiwq9LzsleKSHwt9rdpv4922nbFk7zmzy2z/pCHi2Cl8EbYNUyIOY+lJc2deN/rbv3EHgbE78emGAwg4/iCXQ0SeYf3BBMxYvxWT1u3G7L03sdma8zqk3Edw/D58unYbpsWcw9qcDhlKTMbizdswcW08Zn53J9dDWCxbB7ZNVPxMVHXVopz/PqP3+0PM8K8OjVtD9NqZPy6Pmd/CQk9EREQOJU+Ooc9Xl70yGD+brWdyLnslxrJCz8teKS35rdAfP34c5cq/hl6T5phd3vyTnP92GSsiXnayZxUULt0Lo05m/iAYdyIMjUq74FXfWIgnGMxyH0YKCz0RERE5lDwp9PnqsldicigcMi97JcaiQs/LXiku+aXQ//e//0V8fDzWrl2Ld+q+m+116PNPWOjtkdijoWjk447KIw/q3vMPMXvE23Au2wsjvzf9TGHSw0JPREREDiVPCn2+uuyVOC2HwiHzsldiLLr0FS97pbjkh0L/+PFjhIaGIjY2Vir22V2HPn+Fhd4+ScXqVX7wKdEK/fY8RfSeRahZ7HU0X5lk4XlACmZY6ImIiMihyCv0trr0VX667JU4PadCL++yV+Jtll36ipe9UlryutD/9ttvCAwMxNGjR3VTzF+HPv/lOYK3RGLsyijMNrM3CvMCSbmHpeGRmBKfjC/jt2HcxnPYyF3tcwwLPRERETkUeYXehsk3l70yGN9cWZZ52SvxPhZf+oqXvVJU8rLQ//TTT1i8eDGuXbumm5JOGYWeYfJPWOiJiIjIoeRZoReSPy57lXV8c2VZ1mWvxPvIuPQVL3ulnORFof/f//6H7777DkFBQbh3755uaiYWeoaRFxZ6IiIicih5WejT44CXvRIj69JXvOyVEvKyC/2///1vREREYPPmzdJ/m8NCzzDywkJPREREDiXvC70lyXnrNGNFeNkr2XmZhf7//u//pK3y+/fvl7bSZ4eFnmHkhYWeiIiIHAoLfcENL3slLy+r0F+9elU6Xv7nn3/WTckeCz3DyAsLPRERETkUFvqCHF72Sk5eRqE/fPgwli9fjt9//103JWfKL/SpCI6NwtigSMz63vAqEtlF7vxyYn7s2ISDGL8yQphumE0Yuyoak9bvw4JDd7AlyzjWJD9dCSAfLEvKPSwLj8Tk+Bv4Mj7OpmfvZ6EnIiIih6KMQs/LXtktvOyVxbFnoRevKR8TE4P169fjyZMnuqm5U36hf4wJ3YvBSeWJJistuUSi3PnlxPzY+hNOZpxY0zhqD3g3Ho1Re15kefLTj5Z5vSypCAnxRzmv5uiz6wmids3Hm15voOXqX23yQyMLPRERETkUZRR6hsn72KvQ//Of/8SXX36J+Ph4pKWl6aZahoXe3DzWJudC79x4KsaFxGCiPsERGDl/ITq2q4UiajU0lf0x8QdrL/OYnwr9U8yZORjNu/tjoJmrYNg7scc2oEk5d1QecQAR0rQHmD2yLpzL+mKUDX7QZaEnIiIih8JCzzCWxR6F/ubNm1i2bBlOnDihmyKP5YVeKGkz+qNxlwDMTjJ3e15FOYU+20tCJl/HqE7lUUjtjhrTfkSMuXlyDQ8rkiKerLNHZRT26Y9xpw1O1nk6Cs3LuqB0j2h89YJ7ELHQExERkUMRC72TkxrztycwDJNDajZqadNCf+bMGSxZsgS//vqrbop8lhd6XVkt0hfjc7vkosV5htA98Rg+bRra9x2I5t0H4YOhszEk9Dw2mC1dT7BmSyj6DB+J1r4j0WXmViz96VEOBV3e/BGH9mHE1Clo5zsQrfqOR8+52xBwPrstupaPnWuhFxK2vAdcVWp4dI9BpNFtli2XYaF/hKhjBzDy00lo22sgWg/6DH7Bx7D2uuH8+ljyGqQiJC4GY4M2Y9qeP81cQjMNYXt2YlzQJkyME3drz/4Qp5gzJzFx1gx06DMQLfuMQbdZW7DwtPG5DHT3Dz6I4CtXMG3GJLTuPQpdZ23H8p9y3oMhKm46qri64LXhB43W42PMHlEbhV3rolvcE4Pp8sNCT0RERA7l9OnT0nGgrm7uDMPkEPF98vnnM3TvHOuJx8vv2bMHwcHBePjwoW6qdfKs0Kek4LNRLVBMq5bWi5NaLSTzmPLyvaMRkmww/42rmDCgHjykecR5hQj/W6T2J2jdoqhpQZc1/z0smtcH5T2Nl0UNbfn28I26nbXEylyW3At9GtbM6wAXlRblhh1AdMZ0OculL/QeqN13FN4ooZHukxG1FiXbLMeiX/TzC7H4NUhDSMDH0mEBRdp+iRDjH1tSbmDYB8LfhroY6i++ISyTub0FUhESNg21ymiF9WOwXMJzKezTFj02pZg+F/e2aNmtOgrrlsnJrRn67svhRIYpfwh/o+VRyLkBeu16ZnL7ll2z8bqzBiW6R2P9C2ylZ6EnIiIiIiKr/Otf/8LGjRulPWNSU1N1U62XV4U+PHw0ympVKFSqNbqFXsD6pDTEXr6OuYv9UdFdKJiuDeG7R1/eUrFibgcUFQqlyxsDMCT2V2xOuoeVEYvQoJKLriAalmg586dhbYg/fIRS61y1B/qsO4OvrqYi+seLmDFnEKq8okahV7tg2GH9lma5y5J7oY/6PhbtarnDybMpen+tP+Zc7nLpSrD4+JpSqNY3GF8c/BPR1//CivVfoM6rQsFXl0LDZZnFWc5rEHdyHRp4CYW/6EcYeizrVve44yF4t6hw2ysfY9gJcQu6aaGPPbga75bSwElbGfUmbsey808Rff4CpkzsgFLCcyzk/TE+MfNcnIo2QIeQi9h44SI+DdyJYOkHBvOJO70BjUqoUbjmdMw3tzfC9aPoWkN4jUr0xCiD3fHlhoWeiIiIiIhk+/PPP6VL0omXpvv77791U19MtoU++RpmBxteZi0MnRt7wMmtJTotM5xuzeXfniNgXj+8+WZV1Jx0Iusl21KSMbSNh1AGS6JliG7rbtJRdBGKmMr5bXSJfZg5r5ANQiktJ5TSLCVazvw3foBvXTehTLdEnz3Gx54/R9Cc9vBQa1F+2H5EidPkLosQfaHXVGqJxh/3RhN9OvfAu03fReki4lbqlvgo5Erm1nm5y5VRgtXwaB2MVVmK7zMsGP8uCqs08B60Rze/zNcg5SZGtC8OJ6GkvzP3msHZ4tOwZkEnuItb79t9pdt6b1zon2DWsJrQiHsg+O1EmOHW8ZQ7mDrgDek20+eiQYleMdiY8Vg5JzxkIIqpNSjeezs2m7ldHHeyrw8KqX3Q6sv7Zm63LCz0REREREQky6VLl7Bo0SL88ssvuim2kW2hvxqFZkXEcppbspbXF0saNp9MQO/mHtJu601XpRfmmH0LUN1VhcI1P8M84y2vSYfQ+Q1tluWQM3/M/gDUEOZ1bhFkdutv7LFVeMdNGKvOTCwUxpK7LGL0hd78+hOjRqGib+Bt/zAEXEy/j9zlyizB7qg984rJ5dkiVvrCVSjd7l2jsym7+ph/DaQ9BpZ2h6cwhquwTCv1y5ScJJT/otLu9u8FiLvbi9ONCr3448Q7blBpa6FzrOlZ76NjP0UFbfpzWWT0XOrMvmrhpeaeYeGE+iisckONzy5kc2LB51g+rTm0KhdUnWD0I4aMsNATEREREZHF9u/fjxUrVuDu3bu6KbaT/Rb6JMwJicL4YH0i8HETcQt9K3ReYTg9BnMS5G6h1yXpJhaEBMN3+Ag0/7Atqr3uAxdN+vHchqU4av0nKKFRweXDdVhncvz2bQz/0MPq+aPChknzmpbsrHEqNRiTr8pfFjHZ7nKf/Aybf7yOpZHr0aVlJWjUGpT+eKNU4OUuV2aJFh47yHTrc7bLYOFrICbudBgaFVPDyb0tBh5K3z0+NiEYdT3F3e27YPhJ/W7sRoX+6na0Li2M6S7Mc8Z0V/e4s6F4z93McxEf38xzMZ8nmNLHR/oRouGyP83cnp71y7rDVaVBsT47dHsDyA8LPRERERER5eo///kPNm/ejIiICDx9+lQ31bby6hj62OPb0PFdbxTSbbl20nqh5Jst0aDfNLSq7y4VM32ZjAzxk05A59opAuFG42z/7ZFQ/rKeiE7O/OK8RYR5NZVaoUm3/mieXXwDMTdJ/rKIye0YeikX4vFBFS1Urg3gu/u57OUyKdFG45tbBjmvgZSUWxj1USk4qd1Ra8bPiP0tFcFz2wvjqlHkw3X4MuMHDuNCvwXNiwqFvogvxl7Sz2OQSxFoUkR4/Ff8MDHLjxPmn4v5CH+f3bykZW4a/MjM7enZtKqPdDUB925bTK4mYGlY6ImIiIiIKEf379+XzmK/d+9epKWl6abaXp4U+pTbGNe9glAktfBu/TnGRJ3H2iv6E6LdwcgOuq2zujIZvXksymiz2f08JQXDPsi6VVzO/FHho+GtEeZtuhxBZnZtN47cZRFjUaH/7T7GdBJLbDE0X/NI9nLJLvQyX4P0pGHdCl+8IhR450YBWJ50Ff4tPYWCXxwNApJNz1KvX5bE3WhXXgOV24fwN7qMnZjY74PwtpsKhV4bjc8TzdzfaH7zeYKpfcuhkLDMDZbdMXN7etYv7QYX8dj8vvHcQm+EhZ6IiIiIyAaSkpKwbNkynD17VjfFfvKk0CfuQGtvseC1h7/RGdO3X09At1ouUplsvOIvaVrcqa9Qv6gahcoMxMQLBvOK+WU3PqwoXqIts3zKmT/22GrULaKGU7GuGC6dod1o/ksXMSfqOFaceSQVVrnLIsaiQn/jR/RrIB5n/jo6bH4qe7lkF3qZr4E+cWcj0KSksFxubTAgYhnquAv/7SUsY8bu9mKMliU5USj+HnDSlEXLkLsG86UnbI0fimvUcMn4kcSaQv8ciyc1hFblhupTz2V7DP3SqU2leapNPp3NPLmHhZ6IiIiIiMw6ceKEVOZTUlJ0U+zL8kL/FHNnDkTT7ksxW9rF+wWSGI82ZYQy6doS/fcbHn//FCsCeqG0dOy4B+oH3EovqynJGPWRt3TitZpTjiPCYP7AuZ3hJc1vUKLlzJ+chGHtxN3I3VCh39as175PuYvZYxpJJ5Mroj9zvNxlEZJroU/5C4vn9oC3VgVNtfGYcVmYJne5ZBd6ma+BPil/YGwX8fm7o2Kd2nAWlsGjfSjWZjmfgPGypGLl3PbSdezdG87BfPH56ee9lICe74kn1fNCnVmXdCfAs6bQAxFfDUEJjRpePWLMHA4h5j4mdheWXVMerddlvj5yw0JPRERERERZiNeU37FjB7788ks8fvxYN9X+LC/0Noy4u3e38iik0sCzjh98F2zEmIBAdOveGCVcS6FYaTc4GW1pjdqzBHVKitcxL48a/Rdi2PJQ+A1tjzJFyqCEt9bkeG8580ftWY53xK3Vak/4tBqDvgs3YnTAcnTtUl8q6E5FG6PHVuvGFqMv0yaXrRPTsRNqVPNGYeF2p6L10CEss0DLWy6Zhd6K1yA9aVi/qi+8hLGkE+eJu9svuZm19JtblisJ8G1YUijuWhSr7y883gaMXjAP79cvC434o0CDOZiXUfStK/T6vQc01SZjlrkfnZIOoFM14fUp1Rdjz5nZ68HCsNATEREREVGGR48eYf369di6datdj5c3J08KvZDY49vRqWE5qcimn1FdjcJlmqLNouNYsbI/SmnUcG0WiBUZW6bT8FXUYjSpVVoogOn3cXKugLfGbseQrsVMSrTc+cN3heLDxpXhnLE8QtQu8KrTF/2jUowunSZvbH2Zzhg3Y3wNCnuWhnf15niv31yM/foPk0u0Wb5cMgu9EPmvgS7nI9G8tEa6j5NXN4w4ZVyOzS9L3NmDGNC1Hl7R6s+iL9zfrQKq+wZidpaz31tX6Lf/dheTfSuikPPb6Bpn5vJ4cZ+hkrMGpftss/ja9ubCQk9ERERERJLff/8dy5cvx/fff6+b8nLlVaGXknIfwfH78OnabZgWcw5rLTk2/8afWLljH6aG7sH8o/eNtgybiaz5n2H9wQTMWL8Vk9btxuy9N7HZ+NJ0hpG7LFZH5nLJiTWvwQslDRHHTuGLsG2YEnEYS09mf0Z6axIVPxNVXbUo57/P6PCGh5jhXx0at4botdO07MsJCz0REREREeGnn37C4sWLkZiYqJvy8uVpoWcYWyflFib0rILCpXthlMGJ+uJOhKFRaRe86huLdS/4YwgLPRERERFRAfa///1PuhzdypUrce/ePd3UvMFCzzhaYo+GopGPOyqPPKjbSv8Qs0e8DeeyvTDye9PL5skNCz0RERERUQH173//G+Hh4YiMjJT+O6+x0DOOl1SsXuUHnxKt0G/PU0TvWYSaxV5H85VJJucosCYs9EREREREBdBff/2FoKAgHDhwQNpKnx+w0DMOmZR7WBoeiSnxyfgyfhvGbTyHjTY67wALPRERERFRAXPlyhUEBATg559/1k3JH1joGUZeWOiJiIiIiAqQw4cPIzAwUDqjfX7DQs8w8sJCT0RERERUAKSmpiImJgahoaH417/+pZuav7xTrz7qtf4In2/ayzCMBSlfrSYLPRERERGRI3v48CG+/PJLxMfH55vj5c0ZMWo03NyLoGRpb4ZhLIj4flm5cpXuHeQ4WOiJiIiIiAQ3b97E8uXLcfLkSd0UIqL8jYWeiIiIiAq8s2fPYsmSJfj11191U4iI8j8WeiIiIiIqsP773/9i165dWL16tbS7PRGRkrDQExEREVGBJJ7wLiwsTDoBnngiPCIipWGhJyIiIqIC586dO9Il6Y4ePYq///5bN5WISFlY6ImIiIioQLl48SIWL16Mq1ev6qYQESkTCz0RERERFRjffvstgoKCcPfuXd0UIiLlYqEnIiIiIof3n//8B5s2bUJERASePn2qm0pEpGws9ERERETk0O7duyedxf6bb77B//73P91UIiLlY6EnIiIiIoeVlJSEZcuWSdeZJyJyNCz0REREROSQjh8/LpX5lJQU3RQiIsfCQk9EREREDkU8Xn7Hjh348ssv8fjxY91UIiLHw0JPRERERA7jn//8J9atW4etW7fyeHkicngs9ERERETkEG7fvi3tYi/uak9EVBCw0BMRERGR4v34448ICAiQToJHRFRQsNATERHJlJaWJl0Gi2GYvM///d//ITo6GosWLUJiYqLZeczl4cOHunc0EZFysdATERHJ1KtXL6hUKoZhFJ6hQ4fi77//1r2ziYiUh4WeiIhIpubNm2PcuHG4desWwzB5lAsXLmDWrFnS1nnxsnTm5skp7733HooWLQp/f3+WeiJSLBZ6IiIimVq2bCmdeIuI8o54ObpLly7p/iXfO++8g7lz58Lb2xuDBw9mqSciRWKhJyIikomFnkj5xEIfGhqKq1ev4tVXX8WgQYN4mTsiUhwWeiIiIplY6ImUT1/oRfpSP3DgQJZ6IlIUFnoiIiKZWOiJlM+w0IuuXbuGMmXKwM/Pj6WeiBSDhZ6IiEgmFnoi5TMu9CJ9qR8wYABLPREpAgs9ERGRTCz0RMpnrtCLxGvZ+/j4oH///iz1RJTvsdATERHJxEJPpHzZFXpRUlISSz0RKQILPRERkUws9ETKl1OhF4mlvmzZsujXrx9LPRHlWyz0REREMrHQEylfboVedP36danU9+3bl6WeiPIlFnoiIiKZWOiJlE8s9PPmzcORI0dyTGRkJEqWLIn3338f9+/f192biCh/YKEnIiKSiYWeSPmaNWsmlXRPT89cU6RIEahUKgQHB+vuTUSUP7DQExERycRCT1TweHl54eDBg7p/ERHlDyz0REREMrHQExU8LPRElB+x0BMREcnEQk9U8LDQE1F+xEJPREQkEws9PXzwUPdfz3HtQCQiNkXhYGKqbtpLlnYPP+6ORNzxG0g+HofIXefwV5ruNrIZFnoiyo9Y6ImIiGRioS+40u6cwPpJ7fHWwEikV/qH2NzHEyp1UfSLfixNeblScSPGH9WLN8f8U0/w5NR8NC/+BgZG/yrcQrbEQk9E+RELPRERkUws9AXX4+h+KKpWwbPPZl2hf4rDywej/wB/BB59Kk15mVKTNsC3ojve+fQAHkhTHuDg1Lpwr+CLsLzaY8BBsdATUX7EQk9ERCQTC33BZVro81DaLUT7VYZL+f7YfCtzH/u0W1EYUMEFlfyiYTCZXhALPRHlRyz0REREMllb6B8nHcLGRVMwYpAfBg0bj5krY3Hy1jPdraKcj8dOTTyIqE0RiDxwTZhTZDj/czy+uhervxiNIf7DMWn2Guz5JfvK+eDyPoQumIKR/gMx6BNhWVZtw5k7xo+pGz/yIK49vIKdSyZh6JBR+GzFdlyw4CDt57dPImbFDIwdOhADh47B54FbcOJW+pJnyg/P4Rl+Px2PrxZOw+hPBmLAgEEYPnE2Vu84j7sZTzN9nLBJreAuFHr3FhMRFhGJA9ceGSy/6Wsmfx2kIvWPM4hdMR2jhfsMHvEpFocfwnUze/M/OToddd1c8NaUg8h682Mc+rQ2XNzqYvrRJ7ppOqnXcDAyIn19cAO+LCz0RJQfsdATERHJZE2hv3dkLt731kClUkGtVktRqdTQVuiIZSce6ebK+Xhs063DmfP3mLkIH1XQGowtPE7R2hgcfglZdwS/h1PBfVCjqG4eaX6VtCxuldpjzne3kVnVdeN7tIVf/+pwkeYT7uPeDAvPG5dSQ6m4sXMa3i8nLI8wv3if9KjhUr4tvtibYvoYefUc0lKwa1oL+GiNxxKi9kCNIdH4VSq+unHE6RnxRO9NyRnLn/U1s24d9FoQjL7VPbLeR62BT5uFSDD8bSPtD0T7lYfGpQFmnzL8USjds1Oz0cBFg/J+0fgj84GEP6Io9PUUxvTsi6i8OORfwVjoiSg/YqEnIiKSSXahT72E5W09odaUw0eLDuDXR6l4duc0Qv1qCAVTjdI9w3BTKl2ZxU5WoRdLops7yrWdjrgLd/H0YSK+XdYT1VyEclq8LZZf0JfvNKTE+ON1oby6V++B+dvO4NbjVDz98yL2Bg1C3WJqaMp2wZdX9JtuM0us2qsBxsVcxF93L2LHxp05bt1NvbQanbw1UGsr46PZ2/Hjnad4eucCts/qgIrCY2t8PkaIyWPkzXO4v3s03tCqoPFujek7LuDO0zSkPriOo2v9UcdDKPluDTH3tPjYqUg8HIOIKe+nb6FvNRkRUTE4nHjX7Gtm7Tpw8yiHhp8EY9/Pv+PRkzv4cdsMfFBWI4xfEt1CkzN+BEi7tQE9Swnr7O3pSDDt80KjP4ppdVygLtUTGwz3u396BMsH90f/wctx5OUf8q9oLPRElB+x0BMREckku9A/3opBQvlSeXRD6B+6aYLUX1bi42q10bx3EE5KpUxX7GQXeqGQVvZDdIrhpth72DehFrQqLWpOOgBpx+vnP2BOQzeoi7bEgtPG4z/H5aD2KK7Wosak/enzZ4yvQblBMfhLmpabJzgwqab0uNVH7cSfhouUdgfxI96QbjN9jLx4Ds9xJrgfmtWuipZzTiBLL05LxpqPPKQi7ReT+Tg57SWR+ZpZuw7UKP7RalzN8mPJMxz/oh5chOWvMOJr3fzA/ZiB8FFrUHbIduj378jqIeL8faBR+2BQ7H3dNHoRLPRElB+x0BMREckku9A/+x6fve0ilD4vvDtkFfb89KdQJc0xVw4zZV/otXhj/L6Msqf37Og01HFRwa3RXIgbmZ//FIAWbiq4twsyu4U9NWkV2rur4FJ/Jk4Y/sCgcscHQVctuwyaWLgbuEGlrYUph0w3AT899ClqadMfI8uPGPnpOSANj5ITML+tuOu7J/psztzX3aJCb/U6cEfbwF9MlvGvjT3hKZR9r/7RumPln+HEzPpCyXdDi8UXsvlbeo4Li5rDTeWC+jONfqwgq7DQE1F+xEJPREQkk/xj6FNxLcIPb7ilH6etUnuiUqPuGLsoAoeuPTR7LLW8Qu+Bj7+6ZTBOurTfQ9HVQwV1mSHYLgz3JH4YymkMjs3OJmrvwYiTHl4/vid8Iyzcyvt4O4aUEfdG6IJ1t42XKH2ZuojLZPIYefgcnt7E8ZhgzJ08AgO6tkXDN33godG9VtJx8ukXhBNZVOitXQfCGIaPpWf6mE+wfaiP9GND97A/pSnm3FnfHZ4qDXyG7jD5oYTkY6EnovyIhZ6IiEgma06KJ24xvZWwETMHtcEbxTUZJz1Tu5VHy/FbcEXakGumHBrIvtALpdNgK3KG+xHw9RQeo5gfxL3GH8f4oZhwf23VVujdvz/6Z5MBgwN1x1fnvDxmPd6C/l5CmfX0hdn+bLRMef0cUq9vw4TG3tAIY0qvh9YLFWq3RLdh0zCoibtUmuUXeivXgcWv+2NE9/dK33sg0vwO96KHm/votuxvMToLPlmDhZ6I8iMWeiIiIpmsK/SZ0u5fw5EtKzCld0OUcxGKn7o4OgaLu1o/QqSu3Bru5q13Z303oaCZK/Qe6LQm84RpeqnXgtDOXSi/1cZjn1Bun+wejcoaFdzbLMdli/Y9z7lomvVkN0ZV0kDl/iFWmrv0nm6ZNFVG4xtps3EePoe024gcUEEo81pU7vg5wr87j5sP9YPewfru6a+Fr9xCb+06sLjQP0H8J+WgEZat2/o70hRz/gjtBg/x3AGfxHMLvQ2w0BNRfsRCT0REJJPcQp+auA8hC6ZhwpJvcCdLY32KC4tbwV08GZpfDB4L/xfjVxJqodx2Xmt4WTOReHK0d+FittBrUGXk17ppmf6KGYRyGjWK9VgPcc/v1KTV6OCphrpkV6y7YVydBfcv4vB3x3Hp9iPdY+dcNM1KTcTKDz2g1pSFX8xd3cRMf27xQ1lhmTwyjoHPw+fwZAeG+ojFuz1WJRkV72cJ+PwdF6nQ9wrPPJXe4+j+8Mqt0Fu7Diwu9M/xw5yGcFO5oemCc9keQ39uQVNpnoZzT2czD8nBQk9E+RELPRERkUyyC/2lZWjtIZTQ0p2x5hfDavUUZ+Y3EUqXFjUnHxT+9QxHp9WWzmheaVAMfjfoq2m34jGiplYomOYKvXjZtU5Y+ZO0j3m6hycwv1UxqVT2idAdm56ahC8/LgW12g21hm3FDcMOm3YXh6Y3gqdaKM8dg3VnWs+5aJqXiisr26OYMI5XizlIMDwk/H4CZjUrKjy+Fz5YcUl38rc8fA5P4vFJOaHQu7VEwE9ZX5eLX/VCJelY/azH9ou7/JcUy3WvcNyTppgb38p1YHGhBx7EDZF+6PD2i4H5MwPcR4yft7DuymPoNtPj8kk+Fnoiyo9Y6ImIiGSSvct9WjI2D6gEjUqNorW6YsryUEREhCJwalfULCpeZ701As6kn4f80YHJ0hnQVZoyaDRoNlaHhWHNgjHo+KY3atWpDhdzW4eFcbUuLnCv2h4TloVi41eLMKJVBWjVGvh0DMJ5g4785PRytBe3Sqs9Ua39GCwM2SjMvxzT+taHt1Bg1V6N8cURfQHMuWjicRT6egrL6tkXUYY3P0zA3BYlhdKqhU8Tf8xdswEb18yDf9OywjKpUbz5HHyf0THz8DmIu9z3Ly+8LhqUrO+HOWs2InxdIKb7NUY5t1LwKeMGtdFW8KffTkA14fXRVu6MmevCEH/2pvnxrVkHMgp92u8R6F1aWGc1JuOAwbrJ8PQAJtXQQu3dF5v+MPhlKLvXjHLFQk9E+RELPRERkUzWHEOf9udRBPZ9B6W1+rOnCxHKXkmh4M/e/atuS60g7U8cXeaLt0xOnBeNs+HZH7/dc8FafFK/VObJ3dwqoOnQYCRk3cdfcu9UKEa/XxnuunnTl8UFZd7ti4BvUzKXJZeimVM5TPv9IJb2q5fl+ardK6DJ4EAcynLm97x9DqnXt2NSi3LSDyXp46jhUq4pPvnyOC5u6o+KGjU82wbikn7AB0cwp0VpaKR5XVB72m6EZTO+NevA0kIP3MVW/4rQuLyNz46aNvqnRz/D2y4aVBq6Leu191norcZCT0T5EQs9ERGRTNafFC8ND349jf1fxyF229f47lQSHph2VUnqvatI+GYHtsV/ix9+ze5M5kZF8Pkd/HxoJ3Z8fQCnrz/I2E3cvGe4cykBe+O3CsuyG4fO3cSjnO9gBeH5Jp3Ct/HbsH3PYZxLNvc88sFzSLuPxOP7sGPrNnx98BxSciu6T5Lxw75tiNkaj+8u3MllGS1ZB9Z5cmwm6rtpUX3cPoOiL3qIveOqQ+veELNPmJb9tFtfoUtFf90l88hSLPRElB+x0BMREclkfaG3tZy37CqDIzyHPJJ2C1sGVoFLmV7YkJz5s0LajTD0LOOCf/jHSicSzCoVN8L7oFqHlfglczcGsgALPRH9f3v3AhtVnehxfHIymUw6aUnb8AjlEcEFRZZ1QSVyFSh6RYRVQATKoxQo4Krssi6rIF5ZQYTVK4ggCpSHLQWqAuWKK+sFlEUEIaAuyPJ+lPAMj0DTpplM8rtnplM67bSFfylwevv9mBPN9N/T/5lJTL7zPw8nIugBADBE0Nckgv5m+PdnaEAznzpM2Gi/k0GXtfHV9vI1H6hFxbfQL6twm6YPGKq528uu6eP6CHoATkTQAwBgiKCvSQT9zfHr0LI0tW7wmGbsKFDBjhl6rH5rDcs6FHEfAdQEgh6AExH0AAAYck7QF+nAhmxlZi3XxoO1Nd/+PxzDHRa4oN3rsrVq6zEd37pK2V/s0vnq3EsAVSLoATgRQQ8AgCHnBD2A24WgB+BEBD0AAIYIeqDuIegBOBFBDwCAIYIeqHsIegBORNADAGCIoAfqHoIegBMR9AAAGCLogbqHoAfgRAQ9AACG7lzQ+3Vw03JlZWZrw4Gi8GtVMR1vquL9+w9u1PKsTGVmRm5Zylq2Qp/mrtd3v5xRYXhs9Tnp7vi3cS6BC/pxXbY+33pUx7Z+zh3tbyOCHoATEfQAABi6c0F/VSuHJchyxWlQ1qXwa1UxHW+q4v1fXTFU9SyXXK5KNitWLR8fq8U7b2ZOTnp+/e2ai19Hc9LVJrGrpm3PV/72aeqaeK+GrzjCM+dvA4IegBMR9AAAGCLoS1Qd9L7HJ2hZTo5ySrblmcr4cLpe7tNOCZYlT+t05Zyo7vKyk4K+QN/MHKnUYematbkg/FrN8x9aopS7fOrw6gYVv9uXtHHCA/I1T9FinuF/yxH0AJyIoAcAwBBBX6LqoI8bvMzO7gr4D2txSjO5LZ+SZ/yo6l0M4KSgvw0CeVqR1lLeZqlallf6JUggb7mGNfeqRdoKRbyMW4CgB+BEBD0AAIaqH/SFOrUjVwumT9TYMcM1bNgI/f7Pb+rDNbt1LirG8nV4Q4amvfKiRqW/qIkzP9Pu81eqCHTT8dKlX9Yr4+1X9GL6cI0Y8ydNnrNKO89UttJ74/u/btDbzi7prziXpcS0HJXP8RubV2TQX1H+oQ1aNG28nh8xXKPHvqb3ln+nExVeqH8jn4FfRzbnKCtzmdbuPKvoTg7o7M61WpaZpZzNwdPdK7+GvujkNuW8/1/64+jhGj76D3p91kp9n1f+K4zw72dv1IHL+7T23fEaPeolvfb+av0UvkA+f/MkPRDj1W9e2Vju/bqqTa/eL2/MA5q0OT/8Wpj/gDZmZxbvlwX8m0bQA3Aigh4AAEPVCvrACX0xMVlJHit0HbllWfZWek1521ErdKQkuor2a8ULDyox9PPgOHuz/53w4BiNfrJedKCbjtcFbZ87WG3rlZ+LpZgWPTXl65NlI9Zw/9cP+oAOz+2lWJdH943foNKT1E3mVRL0seo+5iU90sAd+p1rm+VR86dnavuV8PCgG/4MAjq6oE/osoCE3h/rSPmiDxzV/N4J9u8mqM/8o/bois4W8Ovo2ol6vKnHfn8i5mUfi7dZd73x1YnoY4ntrrTUNvKG52T5umj6bjv+A6e1Iq2Z3N6H9eb26G8pCre/qYe9bjVLW6HTkXO9ulxD4ux9xQ3R8jpwEsOtRtADcCKCHgAAQ9UJ+ovrxupej0vuRv+pSWt+0pmCgPyXDmvz/HT9NtYOzJhOmrojuHLr154PeqmBHZOx7YZp7qYjulJwQfu+nKFnW3nDcRgZ0KbjAzqRk67WdtT62vTXtFU7lXfVr4Kze/TV7BF6IMGSu0lffbyv5NsF0/1fP+jzD3yqlzr4ZNXrrLe2leS86bzCERz8++4G6jRmrtbvPauCwvPak/uGujexA99qoP6LS8P5xj8DezbHFurZRDv445/WvENll7cDRz5S73j7Zwl9NP9ocO/RQe/f+6GeaeSW5Wmpp99crR/PFKjgzE9a/ddeuss+RndSH31UwbFY8Q9rXM4enT+3R2uWrg2trAfylmhAA0ve9pO0paKzDgo3a+Jv7c+iwQAtiTzvvuBbzRyZqtSRM/Xtrbu0v84g6AE4EUEPAIAh86Av0s65Q9Xl/lbqNuX7so9sCxzTvKdj7Risr7QcOwYLiuPM5W2vCZvK5vA5O0jvs4O0TECbji/6QVM6xdgx3U1v7yi/bFukX2b3VKLlUdvx/6vQCdym+7eVBL2nVTelDBqkQSVbSn/1fuIhtYgLrlJ3059z9pWuzpvO61oEW0r83VztL9Pchdo6+SF5XW7dPfbL8HiDzyD02nFl9EuUZUd6zzkHVLr7gA7Pe0bxwdX7PgsU6vmooM/XhvG/lsflUZuX1ups5Kp54IxyX7g39LPoY3Gr6YgcnQ+9VupiznAlWW41GbVakScclLqsz9OT5LaSNOLTi+HXUNMIegBORNADAGCo5m6KF9CVY1s0rXusgqetD152WUW731bnGJe87V/TP8uvxhZs0ivtPGUC2nj8z+8o2R7v6zG7wuuq/YfmqKfP3l/Hyfre3p/p/oNKgr70NPPymyV3/L3qMW6xdlwo/h3TeZVGsE/dZ+6LCO5il7JSFGdHd/zQFZVEcInoz6Dk9RMZz6m+vY+4J2fr3yV/wH/Ijv96odPt+y4Inm4fVC7og19OPBwjl6edXtkUvTResOlVtfMUH8u2csfy5Oz95Y6lUN9P7iivK0bJf/tJFd9AsEg/zeiqGJdXHSeX+7ICNYagB+BEBD0AAIaqHfQFx7U1Z66m/uUFDXu2uzrdl6RYd/H13CVRnJ87Rk3dLsX2XaiTkSu7QYGTWtg39trYIPPxz4fGR0d22c1qNFKf221quv+gSk+59xfqytnD2rV+kSY81UIey60Wg5YqeB8503mVRnScUjKjV6UrncMNfAYlAnmLNaC+JSu2u2b+UpzZ/oNz1ate8HT7vlpwrOQNKRf0V1drVGN7n7F9tTDqTbP3eypDfWMrOBb770cfS75Wj04Kfdnw3OKz4deinVn0nOJcbiWNXhNe9UdNI+gBOBFBDwCAoeoEvf/wKr38SCO5wyvXlideze/vpn7PT9SIR32hYAvG5NWctNDN5+JSMhVevI5wRdlDyt6ErjrjE+zxnlaPaVBqqlIr2YaNnBW67tp0/0GVxnSkc7l64R6PXDEPa8oPRcbziorociqaw41+BtcE8rRkYANZlk+Pv/sv+e1/Dszpae/XUkLfhbrW81FBv1Kp8XbQx6Wogu8apIuZSomz/35CmorP8K/qWK5qRWp8aG6Dsys/1+DyssGhpwbEp66MemoAagZBD8CJCHoAAAwZB33gpLKHNbdD0qOWv3tdn3y9W8cvl5xYfUaLnguvztoxWbD+j2rlqeTU88AJze9ddkXcdHz+urFq6bbHPzFT4UXnKpnuP+iGgl4XlZkSjNgEpa68Yjwv46A3+AxKBXTykxQ1tAPe1+0d/VywXx88FWcHfqKeXXgsfLp9ULm55K/TSy3ccvme0gflHmMX5D8wWz18LrnvHqu/h5bTqzqWfOWOaSq3Pbd+i86EX4t2OqOfYoPX4I/JZYX+FiHoATgRQQ8AgCHjoM9fo9FJwcDrqTnl7piuwi16vYM3FJMDPzmvwPEF6hNvyd10uHLOhceUuLJOY39l7ycioE3H+w99qF5xlqz6z2ph8R3dyrq4R998vVV7T14JBavp/oNuKOiLftSMrsHrzFtr3PoC43kZB73BZxApcCpTgxra8/I9oXf//p66x9r/nWjPsXR53lZuLv6DdvjHynI3UVrUmyadXZmmJm5Lsde+JKnqWIr0w5ROinHFqPPbuyq9hn7X251DYzpN3VHJGNwsgh6AExH0AAAYMg/6XI1pasdkTDe983NkbhVoz4KBahG6djxWfRbkKRA4psUDGoVuutbtra0qzeQC/WtObzUOjY0IaNPx/kP6uE/wNPIYtXv+Mx2NbNvAOW2a9B+hm8kllNw53nT/tusGfeC8fpjTXy09Lnna/knrg79qOi/joDf4DMI/CQmcVubg4PH7dP9D98tnzyGxX4aOlxlUfi5+7fugZ+g59vHJU7Sl9K2RLm7RX7sEb6oXryff3xu+AV7Vx3Lp81Fq6rbUKC1HFd/D/qJy0uw5uptp9KrIP4aaRNADcCKCHgAAQ9U65T61mdwut+p3TNOUeUv1ycJZmpT2iJrGNFBS4xhZESuw+TveVfeGwWeYN1Py76dr/pIMvfdyT7WKa6ymSZ6oa73Nx89Uz+BqtRWne3r+QdM/WqqlC2Zq4pCOamSHrRX/iN74tvr7L4npqMfW2VtK/2eU/OtG8to/t+If1Ljc0oA2m5dh0Bt+BqUCOr1siBrb+wrdOM9KVL+M42Wjv6K5XN6iqcn17XD3KOnRdE2dt0RL572l9M5N5Al+KdB1iv557S2r+lhKzhLwtP2LNlT0PPmCDRrf1v4cGg1R1umImV1driFx9pzjhmh59G5hiKAH4EQEPQAAhqp3U7zVGp/cNBSyxXdUt+Rt2lljPt6qPVmpusttKa77LO0NLdkGlPf13zSoQ0M7/orHW97meuL11fpwaEJUQJuPly5sz9DYx1vKd20+9mZ51fihIXrnHyfKPTrNbP8lMX1tv9f275a3XkO1/E1X9X1+qrK2nS73d0zmZRj0NrPPIMKZbKU2dod+x0rsp4yyy/O2iucSOLVR/z30QTX0lNxF3/59X3M9OnKWNpW5+33VxyKd02fpd8ntba/XNlfwGLzNr6m9160Wo1eVfYY9QV+jCHoATkTQAwBgqDpBHxK4qINb12vNZ6v0Pxt36cT1IqvorPZtWa/cNV9qy/6L5VaFK2A6XoU6s3eLvsr9TJ+uWqdNu47rSlW/ZLz/6jKclwnTz+CmBXTp0Hb9I3eVVn/5jXYdq/qp+JXJ/26yOsZ41Gbc+mtfUBS7rK/GtZHH10lvfh8d+4G8Bep7V3r48Xi4GQQ9ACci6AEAMFTtoAeqK5CnlcPvlrfxQC2JuCFf4OhiDWjs1a/SP1X0I+/9OvrJYN3T6wP9u/xZBzBG0ANwIoIeAABDBD3uBP/+DA1o5lOHCRvDq/SXtfHV9vI1H6hFUc8UtBVu0/QBQzV3e9k1fVQPQQ/AiQh6AAAMEfS4M/w6tCxNrRs8phk7ClSwY4Yeq99aw7IORd2LADWPoAfgRAQ9AACGCHrcMYEL2r0uW6u2HtPxrauU/cUunb91NzNABIIegBMR9AAAGCLogbqHoAfgRAQ9AACGCHqg7iHoATgRQQ8AgCGCHqh7CHoATkTQAwBgiKAH6h6CHoATEfQAABgi6IG6h6AH4EQEPQAAhgh6oO4h6AE4EUEPAIAhgh6oewh6AE5E0AMAYIigB+oegh6AExH0AAAYIuiBuoegB+BEBD0AAIYIeqDuIegBOBFBDwCAIYIeqHsIegBORNADAGCoa9euat26dSjq2djY6sbmcrkIegCOQ9ADAGBozpw56tKli5KTk9nY2OrI1qNHD506dSr8fwEAcAaCHgAAAACAWoigBwAAAACgFiLoAQAAAACohQh6AAAAAABqIYIeAAAAAIBaiKAHAAAAAKAWIugBAAAAAKiFCHoAAAAAAGohgh4AAAAAgFqIoAcAAAAAoBYi6AEAAAAAqIUIegAAAAAAaiGCHgAAAACAWkf6P2Bgjq1TBAxAAAAAAElFTkSuQmCC;" vertex="1" parent="1">
          <mxGeometry x="550" y="30" width="217.16" height="153" as="geometry" />
        </mxCell>
        <mxCell id="bPpA2zot5zo2Qx61cB6g-5" value="应用实例：&lt;br&gt;某软件公司基于面向对象技术开发了一套图形界面构件库，VisualComponent，该构件库提供了大量基本构件，如窗体，文本框，列表框，由于在使用改构件库时，用户经常需要定制一些特殊地显示效果，如带滚动条地窗体、带黑色边框地文本框，既带滚动条又带黑色边框地列表框等等，因此经常需要对该构件库进行拓展以增强其功能" style="text;html=1;strokeColor=none;fillColor=none;align=center;verticalAlign=middle;whiteSpace=wrap;rounded=0;" vertex="1" parent="1">
          <mxGeometry x="50" y="220" width="220" height="170" as="geometry" />
        </mxCell>
        <mxCell id="bPpA2zot5zo2Qx61cB6g-13" style="edgeStyle=orthogonalEdgeStyle;rounded=0;orthogonalLoop=1;jettySize=auto;html=1;entryX=1;entryY=0.5;entryDx=0;entryDy=0;endArrow=diamondThin;endFill=0;startArrow=open;startFill=0;" edge="1" parent="1" source="bPpA2zot5zo2Qx61cB6g-7" target="bPpA2zot5zo2Qx61cB6g-10">
          <mxGeometry relative="1" as="geometry">
            <Array as="points">
              <mxPoint x="340" y="530" />
              <mxPoint x="340" y="665" />
            </Array>
          </mxGeometry>
        </mxCell>
        <mxCell id="bPpA2zot5zo2Qx61cB6g-7" value="&lt;p style=&quot;margin:0px;margin-top:4px;text-align:center;&quot;&gt;&lt;b&gt;Component&lt;/b&gt;&lt;/p&gt;&lt;hr size=&quot;1&quot;&gt;&lt;p style=&quot;margin:0px;margin-left:4px;&quot;&gt;+ field: Type&lt;/p&gt;&lt;hr size=&quot;1&quot;&gt;&lt;p style=&quot;margin:0px;margin-left:4px;&quot;&gt;+ method(): Type&lt;/p&gt;" style="verticalAlign=top;align=left;overflow=fill;fontSize=12;fontFamily=Helvetica;html=1;" vertex="1" parent="1">
          <mxGeometry x="110" y="470" width="160" height="90" as="geometry" />
        </mxCell>
        <mxCell id="bPpA2zot5zo2Qx61cB6g-12" value="" style="edgeStyle=orthogonalEdgeStyle;rounded=0;orthogonalLoop=1;jettySize=auto;html=1;endArrow=block;endFill=0;" edge="1" parent="1" source="bPpA2zot5zo2Qx61cB6g-10" target="bPpA2zot5zo2Qx61cB6g-7">
          <mxGeometry relative="1" as="geometry" />
        </mxCell>
        <mxCell id="bPpA2zot5zo2Qx61cB6g-10" value="&lt;p style=&quot;margin:0px;margin-top:4px;text-align:center;&quot;&gt;&lt;b&gt;Decorator&lt;/b&gt;&lt;/p&gt;&lt;hr size=&quot;1&quot;&gt;&lt;p style=&quot;margin:0px;margin-left:4px;&quot;&gt;+ field: Type&lt;/p&gt;&lt;hr size=&quot;1&quot;&gt;&lt;p style=&quot;margin:0px;margin-left:4px;&quot;&gt;+ method(): Type&lt;/p&gt;" style="verticalAlign=top;align=left;overflow=fill;fontSize=12;fontFamily=Helvetica;html=1;" vertex="1" parent="1">
          <mxGeometry x="110" y="620" width="160" height="90" as="geometry" />
        </mxCell>
        <mxCell id="bPpA2zot5zo2Qx61cB6g-21" style="edgeStyle=orthogonalEdgeStyle;rounded=0;orthogonalLoop=1;jettySize=auto;html=1;entryX=0.429;entryY=1.015;entryDx=0;entryDy=0;entryPerimeter=0;startArrow=none;startFill=0;endArrow=block;endFill=0;" edge="1" parent="1" source="bPpA2zot5zo2Qx61cB6g-19" target="bPpA2zot5zo2Qx61cB6g-10">
          <mxGeometry relative="1" as="geometry">
            <Array as="points">
              <mxPoint x="120" y="745" />
              <mxPoint x="179" y="745" />
            </Array>
          </mxGeometry>
        </mxCell>
        <mxCell id="bPpA2zot5zo2Qx61cB6g-19" value="&lt;p style=&quot;margin:0px;margin-top:4px;text-align:center;&quot;&gt;&lt;b&gt;ConcreteDecorator&lt;/b&gt;&lt;/p&gt;&lt;hr size=&quot;1&quot;&gt;&lt;p style=&quot;margin:0px;margin-left:4px;&quot;&gt;+ field: Type&lt;/p&gt;&lt;hr size=&quot;1&quot;&gt;&lt;p style=&quot;margin:0px;margin-left:4px;&quot;&gt;+ method(): Type&lt;/p&gt;" style="verticalAlign=top;align=left;overflow=fill;fontSize=12;fontFamily=Helvetica;html=1;" vertex="1" parent="1">
          <mxGeometry x="90" y="780" width="160" height="90" as="geometry" />
        </mxCell>
        <mxCell id="bPpA2zot5zo2Qx61cB6g-22" style="edgeStyle=orthogonalEdgeStyle;rounded=0;orthogonalLoop=1;jettySize=auto;html=1;entryX=0.75;entryY=1;entryDx=0;entryDy=0;startArrow=none;startFill=0;endArrow=block;endFill=0;" edge="1" parent="1" source="bPpA2zot5zo2Qx61cB6g-20" target="bPpA2zot5zo2Qx61cB6g-10">
          <mxGeometry relative="1" as="geometry">
            <Array as="points">
              <mxPoint x="420" y="740" />
              <mxPoint x="230" y="740" />
            </Array>
          </mxGeometry>
        </mxCell>
        <mxCell id="bPpA2zot5zo2Qx61cB6g-20" value="&lt;p style=&quot;margin:0px;margin-top:4px;text-align:center;&quot;&gt;&lt;b&gt;ConcreteDecorator&lt;/b&gt;&lt;/p&gt;&lt;hr size=&quot;1&quot;&gt;&lt;p style=&quot;margin:0px;margin-left:4px;&quot;&gt;+ field: Type&lt;/p&gt;&lt;hr size=&quot;1&quot;&gt;&lt;p style=&quot;margin:0px;margin-left:4px;&quot;&gt;+ method(): Type&lt;/p&gt;" style="verticalAlign=top;align=left;overflow=fill;fontSize=12;fontFamily=Helvetica;html=1;" vertex="1" parent="1">
          <mxGeometry x="340" y="780" width="160" height="90" as="geometry" />
        </mxCell>
      </root>
    </mxGraphModel>
  </diagram>
</mxfile>
